G04 #@! TF.GenerationSoftware,KiCad,Pcbnew,(5.1.9)-1*
G04 #@! TF.CreationDate,2021-11-02T13:36:32-07:00*
G04 #@! TF.ProjectId,wemos_d1_mini_weather_station,77656d6f-735f-4643-915f-6d696e695f77,rev?*
G04 #@! TF.SameCoordinates,Original*
G04 #@! TF.FileFunction,Soldermask,Top*
G04 #@! TF.FilePolarity,Negative*
%FSLAX46Y46*%
G04 Gerber Fmt 4.6, Leading zero omitted, Abs format (unit mm)*
G04 Created by KiCad (PCBNEW (5.1.9)-1) date 2021-11-02 13:36:32*
%MOMM*%
%LPD*%
G01*
G04 APERTURE LIST*
%ADD10O,1.700000X1.700000*%
%ADD11R,1.700000X1.700000*%
%ADD12C,3.200000*%
%ADD13C,1.440000*%
%ADD14C,1.524000*%
%ADD15O,2.000000X1.600000*%
%ADD16R,2.000000X2.000000*%
%ADD17C,1.800000*%
%ADD18R,1.800000X1.800000*%
G04 APERTURE END LIST*
D10*
G04 #@! TO.C,I2C*
X105283000Y-98552000D03*
D11*
X105283000Y-96012000D03*
G04 #@! TD*
D12*
G04 #@! TO.C,H4*
X58801000Y-69469000D03*
G04 #@! TD*
G04 #@! TO.C,H3*
X118491000Y-69469000D03*
G04 #@! TD*
G04 #@! TO.C,H2*
X58801000Y-97028000D03*
G04 #@! TD*
G04 #@! TO.C,H1*
X118491000Y-97028000D03*
G04 #@! TD*
D13*
G04 #@! TO.C,RV1*
X66802000Y-69833000D03*
X69342000Y-69833000D03*
X71882000Y-69833000D03*
G04 #@! TD*
G04 #@! TO.C,U5*
G36*
G01*
X72112000Y-90447000D02*
X72112000Y-90147000D01*
G75*
G02*
X72262000Y-89997000I150000J0D01*
G01*
X73912000Y-89997000D01*
G75*
G02*
X74062000Y-90147000I0J-150000D01*
G01*
X74062000Y-90447000D01*
G75*
G02*
X73912000Y-90597000I-150000J0D01*
G01*
X72262000Y-90597000D01*
G75*
G02*
X72112000Y-90447000I0J150000D01*
G01*
G37*
G36*
G01*
X72112000Y-91717000D02*
X72112000Y-91417000D01*
G75*
G02*
X72262000Y-91267000I150000J0D01*
G01*
X73912000Y-91267000D01*
G75*
G02*
X74062000Y-91417000I0J-150000D01*
G01*
X74062000Y-91717000D01*
G75*
G02*
X73912000Y-91867000I-150000J0D01*
G01*
X72262000Y-91867000D01*
G75*
G02*
X72112000Y-91717000I0J150000D01*
G01*
G37*
G36*
G01*
X72112000Y-92987000D02*
X72112000Y-92687000D01*
G75*
G02*
X72262000Y-92537000I150000J0D01*
G01*
X73912000Y-92537000D01*
G75*
G02*
X74062000Y-92687000I0J-150000D01*
G01*
X74062000Y-92987000D01*
G75*
G02*
X73912000Y-93137000I-150000J0D01*
G01*
X72262000Y-93137000D01*
G75*
G02*
X72112000Y-92987000I0J150000D01*
G01*
G37*
G36*
G01*
X72112000Y-94257000D02*
X72112000Y-93957000D01*
G75*
G02*
X72262000Y-93807000I150000J0D01*
G01*
X73912000Y-93807000D01*
G75*
G02*
X74062000Y-93957000I0J-150000D01*
G01*
X74062000Y-94257000D01*
G75*
G02*
X73912000Y-94407000I-150000J0D01*
G01*
X72262000Y-94407000D01*
G75*
G02*
X72112000Y-94257000I0J150000D01*
G01*
G37*
G36*
G01*
X67162000Y-94257000D02*
X67162000Y-93957000D01*
G75*
G02*
X67312000Y-93807000I150000J0D01*
G01*
X68962000Y-93807000D01*
G75*
G02*
X69112000Y-93957000I0J-150000D01*
G01*
X69112000Y-94257000D01*
G75*
G02*
X68962000Y-94407000I-150000J0D01*
G01*
X67312000Y-94407000D01*
G75*
G02*
X67162000Y-94257000I0J150000D01*
G01*
G37*
G36*
G01*
X67162000Y-92987000D02*
X67162000Y-92687000D01*
G75*
G02*
X67312000Y-92537000I150000J0D01*
G01*
X68962000Y-92537000D01*
G75*
G02*
X69112000Y-92687000I0J-150000D01*
G01*
X69112000Y-92987000D01*
G75*
G02*
X68962000Y-93137000I-150000J0D01*
G01*
X67312000Y-93137000D01*
G75*
G02*
X67162000Y-92987000I0J150000D01*
G01*
G37*
G36*
G01*
X67162000Y-91717000D02*
X67162000Y-91417000D01*
G75*
G02*
X67312000Y-91267000I150000J0D01*
G01*
X68962000Y-91267000D01*
G75*
G02*
X69112000Y-91417000I0J-150000D01*
G01*
X69112000Y-91717000D01*
G75*
G02*
X68962000Y-91867000I-150000J0D01*
G01*
X67312000Y-91867000D01*
G75*
G02*
X67162000Y-91717000I0J150000D01*
G01*
G37*
G36*
G01*
X67162000Y-90447000D02*
X67162000Y-90147000D01*
G75*
G02*
X67312000Y-89997000I150000J0D01*
G01*
X68962000Y-89997000D01*
G75*
G02*
X69112000Y-90147000I0J-150000D01*
G01*
X69112000Y-90447000D01*
G75*
G02*
X68962000Y-90597000I-150000J0D01*
G01*
X67312000Y-90597000D01*
G75*
G02*
X67162000Y-90447000I0J150000D01*
G01*
G37*
G04 #@! TD*
D14*
G04 #@! TO.C,U4*
X63246000Y-75819000D03*
X60706000Y-85979000D03*
X70866000Y-85979000D03*
X58166000Y-75819000D03*
X68326000Y-75819000D03*
X70866000Y-75819000D03*
X63246000Y-85979000D03*
X58166000Y-85979000D03*
X60706000Y-75819000D03*
X68326000Y-85979000D03*
X65786000Y-75819000D03*
X65786000Y-85979000D03*
G04 #@! TD*
G04 #@! TO.C,U3*
X110744000Y-75819000D03*
X108204000Y-85979000D03*
X118364000Y-85979000D03*
X105664000Y-75819000D03*
X115824000Y-75819000D03*
X118364000Y-75819000D03*
X110744000Y-85979000D03*
X105664000Y-85979000D03*
X108204000Y-75819000D03*
X115824000Y-85979000D03*
X113284000Y-75819000D03*
X113284000Y-85979000D03*
G04 #@! TD*
D15*
G04 #@! TO.C,U2*
X99545000Y-92329000D03*
X99545000Y-89789000D03*
X99545000Y-87249000D03*
X99545000Y-84709000D03*
X99545000Y-82169000D03*
X99545000Y-79629000D03*
X99545000Y-77089000D03*
X99545000Y-74549000D03*
X76685000Y-74549000D03*
X76685000Y-77089000D03*
X76685000Y-79629000D03*
X76685000Y-82169000D03*
X76685000Y-84709000D03*
X76685000Y-87249000D03*
D16*
X76685000Y-92329000D03*
D15*
X76685000Y-89789000D03*
G04 #@! TD*
G04 #@! TO.C,U1*
G36*
G01*
X88461000Y-68349000D02*
X88461000Y-68049000D01*
G75*
G02*
X88611000Y-67899000I150000J0D01*
G01*
X90361000Y-67899000D01*
G75*
G02*
X90511000Y-68049000I0J-150000D01*
G01*
X90511000Y-68349000D01*
G75*
G02*
X90361000Y-68499000I-150000J0D01*
G01*
X88611000Y-68499000D01*
G75*
G02*
X88461000Y-68349000I0J150000D01*
G01*
G37*
G36*
G01*
X88461000Y-69619000D02*
X88461000Y-69319000D01*
G75*
G02*
X88611000Y-69169000I150000J0D01*
G01*
X90361000Y-69169000D01*
G75*
G02*
X90511000Y-69319000I0J-150000D01*
G01*
X90511000Y-69619000D01*
G75*
G02*
X90361000Y-69769000I-150000J0D01*
G01*
X88611000Y-69769000D01*
G75*
G02*
X88461000Y-69619000I0J150000D01*
G01*
G37*
G36*
G01*
X88461000Y-70889000D02*
X88461000Y-70589000D01*
G75*
G02*
X88611000Y-70439000I150000J0D01*
G01*
X90361000Y-70439000D01*
G75*
G02*
X90511000Y-70589000I0J-150000D01*
G01*
X90511000Y-70889000D01*
G75*
G02*
X90361000Y-71039000I-150000J0D01*
G01*
X88611000Y-71039000D01*
G75*
G02*
X88461000Y-70889000I0J150000D01*
G01*
G37*
G36*
G01*
X88461000Y-72159000D02*
X88461000Y-71859000D01*
G75*
G02*
X88611000Y-71709000I150000J0D01*
G01*
X90361000Y-71709000D01*
G75*
G02*
X90511000Y-71859000I0J-150000D01*
G01*
X90511000Y-72159000D01*
G75*
G02*
X90361000Y-72309000I-150000J0D01*
G01*
X88611000Y-72309000D01*
G75*
G02*
X88461000Y-72159000I0J150000D01*
G01*
G37*
G36*
G01*
X88461000Y-73429000D02*
X88461000Y-73129000D01*
G75*
G02*
X88611000Y-72979000I150000J0D01*
G01*
X90361000Y-72979000D01*
G75*
G02*
X90511000Y-73129000I0J-150000D01*
G01*
X90511000Y-73429000D01*
G75*
G02*
X90361000Y-73579000I-150000J0D01*
G01*
X88611000Y-73579000D01*
G75*
G02*
X88461000Y-73429000I0J150000D01*
G01*
G37*
G36*
G01*
X88461000Y-74699000D02*
X88461000Y-74399000D01*
G75*
G02*
X88611000Y-74249000I150000J0D01*
G01*
X90361000Y-74249000D01*
G75*
G02*
X90511000Y-74399000I0J-150000D01*
G01*
X90511000Y-74699000D01*
G75*
G02*
X90361000Y-74849000I-150000J0D01*
G01*
X88611000Y-74849000D01*
G75*
G02*
X88461000Y-74699000I0J150000D01*
G01*
G37*
G36*
G01*
X88461000Y-75969000D02*
X88461000Y-75669000D01*
G75*
G02*
X88611000Y-75519000I150000J0D01*
G01*
X90361000Y-75519000D01*
G75*
G02*
X90511000Y-75669000I0J-150000D01*
G01*
X90511000Y-75969000D01*
G75*
G02*
X90361000Y-76119000I-150000J0D01*
G01*
X88611000Y-76119000D01*
G75*
G02*
X88461000Y-75969000I0J150000D01*
G01*
G37*
G36*
G01*
X88461000Y-77239000D02*
X88461000Y-76939000D01*
G75*
G02*
X88611000Y-76789000I150000J0D01*
G01*
X90361000Y-76789000D01*
G75*
G02*
X90511000Y-76939000I0J-150000D01*
G01*
X90511000Y-77239000D01*
G75*
G02*
X90361000Y-77389000I-150000J0D01*
G01*
X88611000Y-77389000D01*
G75*
G02*
X88461000Y-77239000I0J150000D01*
G01*
G37*
G36*
G01*
X88461000Y-78509000D02*
X88461000Y-78209000D01*
G75*
G02*
X88611000Y-78059000I150000J0D01*
G01*
X90361000Y-78059000D01*
G75*
G02*
X90511000Y-78209000I0J-150000D01*
G01*
X90511000Y-78509000D01*
G75*
G02*
X90361000Y-78659000I-150000J0D01*
G01*
X88611000Y-78659000D01*
G75*
G02*
X88461000Y-78509000I0J150000D01*
G01*
G37*
G36*
G01*
X88461000Y-79779000D02*
X88461000Y-79479000D01*
G75*
G02*
X88611000Y-79329000I150000J0D01*
G01*
X90361000Y-79329000D01*
G75*
G02*
X90511000Y-79479000I0J-150000D01*
G01*
X90511000Y-79779000D01*
G75*
G02*
X90361000Y-79929000I-150000J0D01*
G01*
X88611000Y-79929000D01*
G75*
G02*
X88461000Y-79779000I0J150000D01*
G01*
G37*
G36*
G01*
X88461000Y-81049000D02*
X88461000Y-80749000D01*
G75*
G02*
X88611000Y-80599000I150000J0D01*
G01*
X90361000Y-80599000D01*
G75*
G02*
X90511000Y-80749000I0J-150000D01*
G01*
X90511000Y-81049000D01*
G75*
G02*
X90361000Y-81199000I-150000J0D01*
G01*
X88611000Y-81199000D01*
G75*
G02*
X88461000Y-81049000I0J150000D01*
G01*
G37*
G36*
G01*
X88461000Y-82319000D02*
X88461000Y-82019000D01*
G75*
G02*
X88611000Y-81869000I150000J0D01*
G01*
X90361000Y-81869000D01*
G75*
G02*
X90511000Y-82019000I0J-150000D01*
G01*
X90511000Y-82319000D01*
G75*
G02*
X90361000Y-82469000I-150000J0D01*
G01*
X88611000Y-82469000D01*
G75*
G02*
X88461000Y-82319000I0J150000D01*
G01*
G37*
G36*
G01*
X88461000Y-83589000D02*
X88461000Y-83289000D01*
G75*
G02*
X88611000Y-83139000I150000J0D01*
G01*
X90361000Y-83139000D01*
G75*
G02*
X90511000Y-83289000I0J-150000D01*
G01*
X90511000Y-83589000D01*
G75*
G02*
X90361000Y-83739000I-150000J0D01*
G01*
X88611000Y-83739000D01*
G75*
G02*
X88461000Y-83589000I0J150000D01*
G01*
G37*
G36*
G01*
X88461000Y-84859000D02*
X88461000Y-84559000D01*
G75*
G02*
X88611000Y-84409000I150000J0D01*
G01*
X90361000Y-84409000D01*
G75*
G02*
X90511000Y-84559000I0J-150000D01*
G01*
X90511000Y-84859000D01*
G75*
G02*
X90361000Y-85009000I-150000J0D01*
G01*
X88611000Y-85009000D01*
G75*
G02*
X88461000Y-84859000I0J150000D01*
G01*
G37*
G36*
G01*
X79161000Y-84859000D02*
X79161000Y-84559000D01*
G75*
G02*
X79311000Y-84409000I150000J0D01*
G01*
X81061000Y-84409000D01*
G75*
G02*
X81211000Y-84559000I0J-150000D01*
G01*
X81211000Y-84859000D01*
G75*
G02*
X81061000Y-85009000I-150000J0D01*
G01*
X79311000Y-85009000D01*
G75*
G02*
X79161000Y-84859000I0J150000D01*
G01*
G37*
G36*
G01*
X79161000Y-83589000D02*
X79161000Y-83289000D01*
G75*
G02*
X79311000Y-83139000I150000J0D01*
G01*
X81061000Y-83139000D01*
G75*
G02*
X81211000Y-83289000I0J-150000D01*
G01*
X81211000Y-83589000D01*
G75*
G02*
X81061000Y-83739000I-150000J0D01*
G01*
X79311000Y-83739000D01*
G75*
G02*
X79161000Y-83589000I0J150000D01*
G01*
G37*
G36*
G01*
X79161000Y-82319000D02*
X79161000Y-82019000D01*
G75*
G02*
X79311000Y-81869000I150000J0D01*
G01*
X81061000Y-81869000D01*
G75*
G02*
X81211000Y-82019000I0J-150000D01*
G01*
X81211000Y-82319000D01*
G75*
G02*
X81061000Y-82469000I-150000J0D01*
G01*
X79311000Y-82469000D01*
G75*
G02*
X79161000Y-82319000I0J150000D01*
G01*
G37*
G36*
G01*
X79161000Y-81049000D02*
X79161000Y-80749000D01*
G75*
G02*
X79311000Y-80599000I150000J0D01*
G01*
X81061000Y-80599000D01*
G75*
G02*
X81211000Y-80749000I0J-150000D01*
G01*
X81211000Y-81049000D01*
G75*
G02*
X81061000Y-81199000I-150000J0D01*
G01*
X79311000Y-81199000D01*
G75*
G02*
X79161000Y-81049000I0J150000D01*
G01*
G37*
G36*
G01*
X79161000Y-79779000D02*
X79161000Y-79479000D01*
G75*
G02*
X79311000Y-79329000I150000J0D01*
G01*
X81061000Y-79329000D01*
G75*
G02*
X81211000Y-79479000I0J-150000D01*
G01*
X81211000Y-79779000D01*
G75*
G02*
X81061000Y-79929000I-150000J0D01*
G01*
X79311000Y-79929000D01*
G75*
G02*
X79161000Y-79779000I0J150000D01*
G01*
G37*
G36*
G01*
X79161000Y-78509000D02*
X79161000Y-78209000D01*
G75*
G02*
X79311000Y-78059000I150000J0D01*
G01*
X81061000Y-78059000D01*
G75*
G02*
X81211000Y-78209000I0J-150000D01*
G01*
X81211000Y-78509000D01*
G75*
G02*
X81061000Y-78659000I-150000J0D01*
G01*
X79311000Y-78659000D01*
G75*
G02*
X79161000Y-78509000I0J150000D01*
G01*
G37*
G36*
G01*
X79161000Y-77239000D02*
X79161000Y-76939000D01*
G75*
G02*
X79311000Y-76789000I150000J0D01*
G01*
X81061000Y-76789000D01*
G75*
G02*
X81211000Y-76939000I0J-150000D01*
G01*
X81211000Y-77239000D01*
G75*
G02*
X81061000Y-77389000I-150000J0D01*
G01*
X79311000Y-77389000D01*
G75*
G02*
X79161000Y-77239000I0J150000D01*
G01*
G37*
G36*
G01*
X79161000Y-75969000D02*
X79161000Y-75669000D01*
G75*
G02*
X79311000Y-75519000I150000J0D01*
G01*
X81061000Y-75519000D01*
G75*
G02*
X81211000Y-75669000I0J-150000D01*
G01*
X81211000Y-75969000D01*
G75*
G02*
X81061000Y-76119000I-150000J0D01*
G01*
X79311000Y-76119000D01*
G75*
G02*
X79161000Y-75969000I0J150000D01*
G01*
G37*
G36*
G01*
X79161000Y-74699000D02*
X79161000Y-74399000D01*
G75*
G02*
X79311000Y-74249000I150000J0D01*
G01*
X81061000Y-74249000D01*
G75*
G02*
X81211000Y-74399000I0J-150000D01*
G01*
X81211000Y-74699000D01*
G75*
G02*
X81061000Y-74849000I-150000J0D01*
G01*
X79311000Y-74849000D01*
G75*
G02*
X79161000Y-74699000I0J150000D01*
G01*
G37*
G36*
G01*
X79161000Y-73429000D02*
X79161000Y-73129000D01*
G75*
G02*
X79311000Y-72979000I150000J0D01*
G01*
X81061000Y-72979000D01*
G75*
G02*
X81211000Y-73129000I0J-150000D01*
G01*
X81211000Y-73429000D01*
G75*
G02*
X81061000Y-73579000I-150000J0D01*
G01*
X79311000Y-73579000D01*
G75*
G02*
X79161000Y-73429000I0J150000D01*
G01*
G37*
G36*
G01*
X79161000Y-72159000D02*
X79161000Y-71859000D01*
G75*
G02*
X79311000Y-71709000I150000J0D01*
G01*
X81061000Y-71709000D01*
G75*
G02*
X81211000Y-71859000I0J-150000D01*
G01*
X81211000Y-72159000D01*
G75*
G02*
X81061000Y-72309000I-150000J0D01*
G01*
X79311000Y-72309000D01*
G75*
G02*
X79161000Y-72159000I0J150000D01*
G01*
G37*
G36*
G01*
X79161000Y-70889000D02*
X79161000Y-70589000D01*
G75*
G02*
X79311000Y-70439000I150000J0D01*
G01*
X81061000Y-70439000D01*
G75*
G02*
X81211000Y-70589000I0J-150000D01*
G01*
X81211000Y-70889000D01*
G75*
G02*
X81061000Y-71039000I-150000J0D01*
G01*
X79311000Y-71039000D01*
G75*
G02*
X79161000Y-70889000I0J150000D01*
G01*
G37*
G36*
G01*
X79161000Y-69619000D02*
X79161000Y-69319000D01*
G75*
G02*
X79311000Y-69169000I150000J0D01*
G01*
X81061000Y-69169000D01*
G75*
G02*
X81211000Y-69319000I0J-150000D01*
G01*
X81211000Y-69619000D01*
G75*
G02*
X81061000Y-69769000I-150000J0D01*
G01*
X79311000Y-69769000D01*
G75*
G02*
X79161000Y-69619000I0J150000D01*
G01*
G37*
G36*
G01*
X79161000Y-68349000D02*
X79161000Y-68049000D01*
G75*
G02*
X79311000Y-67899000I150000J0D01*
G01*
X81061000Y-67899000D01*
G75*
G02*
X81211000Y-68049000I0J-150000D01*
G01*
X81211000Y-68349000D01*
G75*
G02*
X81061000Y-68499000I-150000J0D01*
G01*
X79311000Y-68499000D01*
G75*
G02*
X79161000Y-68349000I0J150000D01*
G01*
G37*
G04 #@! TD*
D10*
G04 #@! TO.C,TH1*
X61087000Y-90678000D03*
D11*
X58547000Y-90678000D03*
G04 #@! TD*
G04 #@! TO.C,R6*
G36*
G01*
X69704000Y-98482999D02*
X69704000Y-99383001D01*
G75*
G02*
X69454001Y-99633000I-249999J0D01*
G01*
X68928999Y-99633000D01*
G75*
G02*
X68679000Y-99383001I0J249999D01*
G01*
X68679000Y-98482999D01*
G75*
G02*
X68928999Y-98233000I249999J0D01*
G01*
X69454001Y-98233000D01*
G75*
G02*
X69704000Y-98482999I0J-249999D01*
G01*
G37*
G36*
G01*
X71529000Y-98482999D02*
X71529000Y-99383001D01*
G75*
G02*
X71279001Y-99633000I-249999J0D01*
G01*
X70753999Y-99633000D01*
G75*
G02*
X70504000Y-99383001I0J249999D01*
G01*
X70504000Y-98482999D01*
G75*
G02*
X70753999Y-98233000I249999J0D01*
G01*
X71279001Y-98233000D01*
G75*
G02*
X71529000Y-98482999I0J-249999D01*
G01*
G37*
G04 #@! TD*
D10*
G04 #@! TO.C,R5*
X64516000Y-97409000D03*
D11*
X64516000Y-94869000D03*
G04 #@! TD*
G04 #@! TO.C,R4*
G36*
G01*
X105198500Y-71824001D02*
X105198500Y-70923999D01*
G75*
G02*
X105448499Y-70674000I249999J0D01*
G01*
X105973501Y-70674000D01*
G75*
G02*
X106223500Y-70923999I0J-249999D01*
G01*
X106223500Y-71824001D01*
G75*
G02*
X105973501Y-72074000I-249999J0D01*
G01*
X105448499Y-72074000D01*
G75*
G02*
X105198500Y-71824001I0J249999D01*
G01*
G37*
G36*
G01*
X103373500Y-71824001D02*
X103373500Y-70923999D01*
G75*
G02*
X103623499Y-70674000I249999J0D01*
G01*
X104148501Y-70674000D01*
G75*
G02*
X104398500Y-70923999I0J-249999D01*
G01*
X104398500Y-71824001D01*
G75*
G02*
X104148501Y-72074000I-249999J0D01*
G01*
X103623499Y-72074000D01*
G75*
G02*
X103373500Y-71824001I0J249999D01*
G01*
G37*
G04 #@! TD*
G04 #@! TO.C,R3*
G36*
G01*
X70504000Y-96970001D02*
X70504000Y-96069999D01*
G75*
G02*
X70753999Y-95820000I249999J0D01*
G01*
X71279001Y-95820000D01*
G75*
G02*
X71529000Y-96069999I0J-249999D01*
G01*
X71529000Y-96970001D01*
G75*
G02*
X71279001Y-97220000I-249999J0D01*
G01*
X70753999Y-97220000D01*
G75*
G02*
X70504000Y-96970001I0J249999D01*
G01*
G37*
G36*
G01*
X68679000Y-96970001D02*
X68679000Y-96069999D01*
G75*
G02*
X68928999Y-95820000I249999J0D01*
G01*
X69454001Y-95820000D01*
G75*
G02*
X69704000Y-96069999I0J-249999D01*
G01*
X69704000Y-96970001D01*
G75*
G02*
X69454001Y-97220000I-249999J0D01*
G01*
X68928999Y-97220000D01*
G75*
G02*
X68679000Y-96970001I0J249999D01*
G01*
G37*
G04 #@! TD*
G04 #@! TO.C,R2*
G36*
G01*
X93810500Y-73792665D02*
X93810500Y-74692667D01*
G75*
G02*
X93560501Y-74942666I-249999J0D01*
G01*
X93035499Y-74942666D01*
G75*
G02*
X92785500Y-74692667I0J249999D01*
G01*
X92785500Y-73792665D01*
G75*
G02*
X93035499Y-73542666I249999J0D01*
G01*
X93560501Y-73542666D01*
G75*
G02*
X93810500Y-73792665I0J-249999D01*
G01*
G37*
G36*
G01*
X95635500Y-73792665D02*
X95635500Y-74692667D01*
G75*
G02*
X95385501Y-74942666I-249999J0D01*
G01*
X94860499Y-74942666D01*
G75*
G02*
X94610500Y-74692667I0J249999D01*
G01*
X94610500Y-73792665D01*
G75*
G02*
X94860499Y-73542666I249999J0D01*
G01*
X95385501Y-73542666D01*
G75*
G02*
X95635500Y-73792665I0J-249999D01*
G01*
G37*
G04 #@! TD*
G04 #@! TO.C,R1*
G36*
G01*
X94610500Y-78450333D02*
X94610500Y-77550331D01*
G75*
G02*
X94860499Y-77300332I249999J0D01*
G01*
X95385501Y-77300332D01*
G75*
G02*
X95635500Y-77550331I0J-249999D01*
G01*
X95635500Y-78450333D01*
G75*
G02*
X95385501Y-78700332I-249999J0D01*
G01*
X94860499Y-78700332D01*
G75*
G02*
X94610500Y-78450333I0J249999D01*
G01*
G37*
G36*
G01*
X92785500Y-78450333D02*
X92785500Y-77550331D01*
G75*
G02*
X93035499Y-77300332I249999J0D01*
G01*
X93560501Y-77300332D01*
G75*
G02*
X93810500Y-77550331I0J-249999D01*
G01*
X93810500Y-78450333D01*
G75*
G02*
X93560501Y-78700332I-249999J0D01*
G01*
X93035499Y-78700332D01*
G75*
G02*
X92785500Y-78450333I0J249999D01*
G01*
G37*
G04 #@! TD*
D10*
G04 #@! TO.C,PWR*
X110236000Y-98552000D03*
D11*
X110236000Y-96012000D03*
G04 #@! TD*
D17*
G04 #@! TO.C,D1*
X109982000Y-70104000D03*
D18*
X112522000Y-70104000D03*
G04 #@! TD*
G04 #@! TO.C,C2*
G36*
G01*
X89116500Y-89018000D02*
X89116500Y-91068000D01*
G75*
G02*
X88866500Y-91318000I-250000J0D01*
G01*
X87291500Y-91318000D01*
G75*
G02*
X87041500Y-91068000I0J250000D01*
G01*
X87041500Y-89018000D01*
G75*
G02*
X87291500Y-88768000I250000J0D01*
G01*
X88866500Y-88768000D01*
G75*
G02*
X89116500Y-89018000I0J-250000D01*
G01*
G37*
G36*
G01*
X95341500Y-89018000D02*
X95341500Y-91068000D01*
G75*
G02*
X95091500Y-91318000I-250000J0D01*
G01*
X93516500Y-91318000D01*
G75*
G02*
X93266500Y-91068000I0J250000D01*
G01*
X93266500Y-89018000D01*
G75*
G02*
X93516500Y-88768000I250000J0D01*
G01*
X95091500Y-88768000D01*
G75*
G02*
X95341500Y-89018000I0J-250000D01*
G01*
G37*
G04 #@! TD*
G04 #@! TO.C,C1*
G36*
G01*
X94640500Y-82263000D02*
X94640500Y-81313000D01*
G75*
G02*
X94890500Y-81063000I250000J0D01*
G01*
X95390500Y-81063000D01*
G75*
G02*
X95640500Y-81313000I0J-250000D01*
G01*
X95640500Y-82263000D01*
G75*
G02*
X95390500Y-82513000I-250000J0D01*
G01*
X94890500Y-82513000D01*
G75*
G02*
X94640500Y-82263000I0J250000D01*
G01*
G37*
G36*
G01*
X92740500Y-82263000D02*
X92740500Y-81313000D01*
G75*
G02*
X92990500Y-81063000I250000J0D01*
G01*
X93490500Y-81063000D01*
G75*
G02*
X93740500Y-81313000I0J-250000D01*
G01*
X93740500Y-82263000D01*
G75*
G02*
X93490500Y-82513000I-250000J0D01*
G01*
X92990500Y-82513000D01*
G75*
G02*
X92740500Y-82263000I0J250000D01*
G01*
G37*
G04 #@! TD*
M02*
