G04 #@! TF.GenerationSoftware,KiCad,Pcbnew,(5.1.9)-1*
G04 #@! TF.CreationDate,2021-11-02T13:36:32-07:00*
G04 #@! TF.ProjectId,wemos_d1_mini_weather_station,77656d6f-735f-4643-915f-6d696e695f77,rev?*
G04 #@! TF.SameCoordinates,Original*
G04 #@! TF.FileFunction,Copper,L1,Top*
G04 #@! TF.FilePolarity,Positive*
%FSLAX46Y46*%
G04 Gerber Fmt 4.6, Leading zero omitted, Abs format (unit mm)*
G04 Created by KiCad (PCBNEW (5.1.9)-1) date 2021-11-02 13:36:32*
%MOMM*%
%LPD*%
G01*
G04 APERTURE LIST*
G04 #@! TA.AperFunction,ComponentPad*
%ADD10O,1.700000X1.700000*%
G04 #@! TD*
G04 #@! TA.AperFunction,ComponentPad*
%ADD11R,1.700000X1.700000*%
G04 #@! TD*
G04 #@! TA.AperFunction,ComponentPad*
%ADD12C,1.440000*%
G04 #@! TD*
G04 #@! TA.AperFunction,ComponentPad*
%ADD13C,1.524000*%
G04 #@! TD*
G04 #@! TA.AperFunction,ComponentPad*
%ADD14O,2.000000X1.600000*%
G04 #@! TD*
G04 #@! TA.AperFunction,ComponentPad*
%ADD15R,2.000000X2.000000*%
G04 #@! TD*
G04 #@! TA.AperFunction,ComponentPad*
%ADD16C,1.800000*%
G04 #@! TD*
G04 #@! TA.AperFunction,ComponentPad*
%ADD17R,1.800000X1.800000*%
G04 #@! TD*
G04 #@! TA.AperFunction,ViaPad*
%ADD18C,0.600000*%
G04 #@! TD*
G04 #@! TA.AperFunction,ViaPad*
%ADD19C,0.800000*%
G04 #@! TD*
G04 #@! TA.AperFunction,Conductor*
%ADD20C,0.250000*%
G04 #@! TD*
G04 #@! TA.AperFunction,Conductor*
%ADD21C,0.800000*%
G04 #@! TD*
G04 #@! TA.AperFunction,Conductor*
%ADD22C,0.400000*%
G04 #@! TD*
G04 #@! TA.AperFunction,Conductor*
%ADD23C,0.254000*%
G04 #@! TD*
G04 #@! TA.AperFunction,Conductor*
%ADD24C,0.100000*%
G04 #@! TD*
G04 APERTURE END LIST*
D10*
G04 #@! TO.P,I2C,2*
G04 #@! TO.N,Net-(J2-Pad2)*
X105283000Y-98552000D03*
D11*
G04 #@! TO.P,I2C,1*
G04 #@! TO.N,Net-(J2-Pad1)*
X105283000Y-96012000D03*
G04 #@! TD*
D12*
G04 #@! TO.P,RV1,3*
G04 #@! TO.N,GND*
X66802000Y-69833000D03*
G04 #@! TO.P,RV1,2*
G04 #@! TO.N,Net-(RV1-Pad2)*
X69342000Y-69833000D03*
G04 #@! TO.P,RV1,1*
G04 #@! TO.N,+3V3*
X71882000Y-69833000D03*
G04 #@! TD*
G04 #@! TO.P,U5,8*
G04 #@! TO.N,+3V3*
G04 #@! TA.AperFunction,SMDPad,CuDef*
G36*
G01*
X72112000Y-90447000D02*
X72112000Y-90147000D01*
G75*
G02*
X72262000Y-89997000I150000J0D01*
G01*
X73912000Y-89997000D01*
G75*
G02*
X74062000Y-90147000I0J-150000D01*
G01*
X74062000Y-90447000D01*
G75*
G02*
X73912000Y-90597000I-150000J0D01*
G01*
X72262000Y-90597000D01*
G75*
G02*
X72112000Y-90447000I0J150000D01*
G01*
G37*
G04 #@! TD.AperFunction*
G04 #@! TO.P,U5,7*
G04 #@! TO.N,LIGHT*
G04 #@! TA.AperFunction,SMDPad,CuDef*
G36*
G01*
X72112000Y-91717000D02*
X72112000Y-91417000D01*
G75*
G02*
X72262000Y-91267000I150000J0D01*
G01*
X73912000Y-91267000D01*
G75*
G02*
X74062000Y-91417000I0J-150000D01*
G01*
X74062000Y-91717000D01*
G75*
G02*
X73912000Y-91867000I-150000J0D01*
G01*
X72262000Y-91867000D01*
G75*
G02*
X72112000Y-91717000I0J150000D01*
G01*
G37*
G04 #@! TD.AperFunction*
G04 #@! TO.P,U5,6*
G04 #@! TO.N,Net-(RV1-Pad2)*
G04 #@! TA.AperFunction,SMDPad,CuDef*
G36*
G01*
X72112000Y-92987000D02*
X72112000Y-92687000D01*
G75*
G02*
X72262000Y-92537000I150000J0D01*
G01*
X73912000Y-92537000D01*
G75*
G02*
X74062000Y-92687000I0J-150000D01*
G01*
X74062000Y-92987000D01*
G75*
G02*
X73912000Y-93137000I-150000J0D01*
G01*
X72262000Y-93137000D01*
G75*
G02*
X72112000Y-92987000I0J150000D01*
G01*
G37*
G04 #@! TD.AperFunction*
G04 #@! TO.P,U5,5*
G04 #@! TO.N,Net-(R5-Pad2)*
G04 #@! TA.AperFunction,SMDPad,CuDef*
G36*
G01*
X72112000Y-94257000D02*
X72112000Y-93957000D01*
G75*
G02*
X72262000Y-93807000I150000J0D01*
G01*
X73912000Y-93807000D01*
G75*
G02*
X74062000Y-93957000I0J-150000D01*
G01*
X74062000Y-94257000D01*
G75*
G02*
X73912000Y-94407000I-150000J0D01*
G01*
X72262000Y-94407000D01*
G75*
G02*
X72112000Y-94257000I0J150000D01*
G01*
G37*
G04 #@! TD.AperFunction*
G04 #@! TO.P,U5,4*
G04 #@! TO.N,GND*
G04 #@! TA.AperFunction,SMDPad,CuDef*
G36*
G01*
X67162000Y-94257000D02*
X67162000Y-93957000D01*
G75*
G02*
X67312000Y-93807000I150000J0D01*
G01*
X68962000Y-93807000D01*
G75*
G02*
X69112000Y-93957000I0J-150000D01*
G01*
X69112000Y-94257000D01*
G75*
G02*
X68962000Y-94407000I-150000J0D01*
G01*
X67312000Y-94407000D01*
G75*
G02*
X67162000Y-94257000I0J150000D01*
G01*
G37*
G04 #@! TD.AperFunction*
G04 #@! TO.P,U5,3*
G04 #@! TO.N,Net-(R3-Pad1)*
G04 #@! TA.AperFunction,SMDPad,CuDef*
G36*
G01*
X67162000Y-92987000D02*
X67162000Y-92687000D01*
G75*
G02*
X67312000Y-92537000I150000J0D01*
G01*
X68962000Y-92537000D01*
G75*
G02*
X69112000Y-92687000I0J-150000D01*
G01*
X69112000Y-92987000D01*
G75*
G02*
X68962000Y-93137000I-150000J0D01*
G01*
X67312000Y-93137000D01*
G75*
G02*
X67162000Y-92987000I0J150000D01*
G01*
G37*
G04 #@! TD.AperFunction*
G04 #@! TO.P,U5,2*
G04 #@! TO.N,TEMP*
G04 #@! TA.AperFunction,SMDPad,CuDef*
G36*
G01*
X67162000Y-91717000D02*
X67162000Y-91417000D01*
G75*
G02*
X67312000Y-91267000I150000J0D01*
G01*
X68962000Y-91267000D01*
G75*
G02*
X69112000Y-91417000I0J-150000D01*
G01*
X69112000Y-91717000D01*
G75*
G02*
X68962000Y-91867000I-150000J0D01*
G01*
X67312000Y-91867000D01*
G75*
G02*
X67162000Y-91717000I0J150000D01*
G01*
G37*
G04 #@! TD.AperFunction*
G04 #@! TO.P,U5,1*
G04 #@! TA.AperFunction,SMDPad,CuDef*
G36*
G01*
X67162000Y-90447000D02*
X67162000Y-90147000D01*
G75*
G02*
X67312000Y-89997000I150000J0D01*
G01*
X68962000Y-89997000D01*
G75*
G02*
X69112000Y-90147000I0J-150000D01*
G01*
X69112000Y-90447000D01*
G75*
G02*
X68962000Y-90597000I-150000J0D01*
G01*
X67312000Y-90597000D01*
G75*
G02*
X67162000Y-90447000I0J150000D01*
G01*
G37*
G04 #@! TD.AperFunction*
G04 #@! TD*
D13*
G04 #@! TO.P,U4,10*
G04 #@! TO.N,Seg6*
X63246000Y-75819000D03*
G04 #@! TO.P,U4,2*
G04 #@! TO.N,Seg4*
X60706000Y-85979000D03*
G04 #@! TO.P,U4,6*
G04 #@! TO.N,G8*
X70866000Y-85979000D03*
G04 #@! TO.P,U4,12*
G04 #@! TO.N,G5*
X58166000Y-75819000D03*
G04 #@! TO.P,U4,8*
G04 #@! TO.N,G7*
X68326000Y-75819000D03*
G04 #@! TO.P,U4,7*
G04 #@! TO.N,Seg2*
X70866000Y-75819000D03*
G04 #@! TO.P,U4,3*
G04 #@! TO.N,Seg8*
X63246000Y-85979000D03*
G04 #@! TO.P,U4,1*
G04 #@! TO.N,Seg5*
X58166000Y-85979000D03*
G04 #@! TO.P,U4,11*
G04 #@! TO.N,Seg1*
X60706000Y-75819000D03*
G04 #@! TO.P,U4,5*
G04 #@! TO.N,Seg7*
X68326000Y-85979000D03*
G04 #@! TO.P,U4,9*
G04 #@! TO.N,G6*
X65786000Y-75819000D03*
G04 #@! TO.P,U4,4*
G04 #@! TO.N,Seg3*
X65786000Y-85979000D03*
G04 #@! TD*
G04 #@! TO.P,U3,10*
G04 #@! TO.N,Seg6*
X110744000Y-75819000D03*
G04 #@! TO.P,U3,2*
G04 #@! TO.N,Seg4*
X108204000Y-85979000D03*
G04 #@! TO.P,U3,6*
G04 #@! TO.N,G4*
X118364000Y-85979000D03*
G04 #@! TO.P,U3,12*
G04 #@! TO.N,G1*
X105664000Y-75819000D03*
G04 #@! TO.P,U3,8*
G04 #@! TO.N,G3*
X115824000Y-75819000D03*
G04 #@! TO.P,U3,7*
G04 #@! TO.N,Seg2*
X118364000Y-75819000D03*
G04 #@! TO.P,U3,3*
G04 #@! TO.N,Seg8*
X110744000Y-85979000D03*
G04 #@! TO.P,U3,1*
G04 #@! TO.N,Seg5*
X105664000Y-85979000D03*
G04 #@! TO.P,U3,11*
G04 #@! TO.N,Seg1*
X108204000Y-75819000D03*
G04 #@! TO.P,U3,5*
G04 #@! TO.N,Seg7*
X115824000Y-85979000D03*
G04 #@! TO.P,U3,9*
G04 #@! TO.N,G2*
X113284000Y-75819000D03*
G04 #@! TO.P,U3,4*
G04 #@! TO.N,Seg3*
X113284000Y-85979000D03*
G04 #@! TD*
D14*
G04 #@! TO.P,U2,16*
G04 #@! TO.N,N/C*
X99545000Y-92329000D03*
G04 #@! TO.P,U2,15*
X99545000Y-89789000D03*
G04 #@! TO.P,U2,14*
G04 #@! TO.N,Net-(J2-Pad1)*
X99545000Y-87249000D03*
G04 #@! TO.P,U2,13*
G04 #@! TO.N,Net-(J2-Pad2)*
X99545000Y-84709000D03*
G04 #@! TO.P,U2,12*
G04 #@! TO.N,Net-(R1-Pad2)*
X99545000Y-82169000D03*
G04 #@! TO.P,U2,11*
G04 #@! TO.N,Net-(R2-Pad1)*
X99545000Y-79629000D03*
G04 #@! TO.P,U2,10*
G04 #@! TO.N,GND*
X99545000Y-77089000D03*
G04 #@! TO.P,U2,9*
G04 #@! TO.N,+5V*
X99545000Y-74549000D03*
G04 #@! TO.P,U2,8*
G04 #@! TO.N,+3V3*
X76685000Y-74549000D03*
G04 #@! TO.P,U2,7*
G04 #@! TO.N,NTC*
X76685000Y-77089000D03*
G04 #@! TO.P,U2,6*
G04 #@! TO.N,LIGHT*
X76685000Y-79629000D03*
G04 #@! TO.P,U2,5*
G04 #@! TO.N,N/C*
X76685000Y-82169000D03*
G04 #@! TO.P,U2,4*
X76685000Y-84709000D03*
G04 #@! TO.P,U2,3*
G04 #@! TO.N,RAIN*
X76685000Y-87249000D03*
D15*
G04 #@! TO.P,U2,1*
G04 #@! TO.N,N/C*
X76685000Y-92329000D03*
D14*
G04 #@! TO.P,U2,2*
G04 #@! TO.N,TEMP*
X76685000Y-89789000D03*
G04 #@! TD*
G04 #@! TO.P,U1,28*
G04 #@! TO.N,N/C*
G04 #@! TA.AperFunction,SMDPad,CuDef*
G36*
G01*
X88461000Y-68349000D02*
X88461000Y-68049000D01*
G75*
G02*
X88611000Y-67899000I150000J0D01*
G01*
X90361000Y-67899000D01*
G75*
G02*
X90511000Y-68049000I0J-150000D01*
G01*
X90511000Y-68349000D01*
G75*
G02*
X90361000Y-68499000I-150000J0D01*
G01*
X88611000Y-68499000D01*
G75*
G02*
X88461000Y-68349000I0J150000D01*
G01*
G37*
G04 #@! TD.AperFunction*
G04 #@! TO.P,U1,27*
G04 #@! TA.AperFunction,SMDPad,CuDef*
G36*
G01*
X88461000Y-69619000D02*
X88461000Y-69319000D01*
G75*
G02*
X88611000Y-69169000I150000J0D01*
G01*
X90361000Y-69169000D01*
G75*
G02*
X90511000Y-69319000I0J-150000D01*
G01*
X90511000Y-69619000D01*
G75*
G02*
X90361000Y-69769000I-150000J0D01*
G01*
X88611000Y-69769000D01*
G75*
G02*
X88461000Y-69619000I0J150000D01*
G01*
G37*
G04 #@! TD.AperFunction*
G04 #@! TO.P,U1,26*
G04 #@! TA.AperFunction,SMDPad,CuDef*
G36*
G01*
X88461000Y-70889000D02*
X88461000Y-70589000D01*
G75*
G02*
X88611000Y-70439000I150000J0D01*
G01*
X90361000Y-70439000D01*
G75*
G02*
X90511000Y-70589000I0J-150000D01*
G01*
X90511000Y-70889000D01*
G75*
G02*
X90361000Y-71039000I-150000J0D01*
G01*
X88611000Y-71039000D01*
G75*
G02*
X88461000Y-70889000I0J150000D01*
G01*
G37*
G04 #@! TD.AperFunction*
G04 #@! TO.P,U1,25*
G04 #@! TO.N,G8*
G04 #@! TA.AperFunction,SMDPad,CuDef*
G36*
G01*
X88461000Y-72159000D02*
X88461000Y-71859000D01*
G75*
G02*
X88611000Y-71709000I150000J0D01*
G01*
X90361000Y-71709000D01*
G75*
G02*
X90511000Y-71859000I0J-150000D01*
G01*
X90511000Y-72159000D01*
G75*
G02*
X90361000Y-72309000I-150000J0D01*
G01*
X88611000Y-72309000D01*
G75*
G02*
X88461000Y-72159000I0J150000D01*
G01*
G37*
G04 #@! TD.AperFunction*
G04 #@! TO.P,U1,24*
G04 #@! TO.N,G7*
G04 #@! TA.AperFunction,SMDPad,CuDef*
G36*
G01*
X88461000Y-73429000D02*
X88461000Y-73129000D01*
G75*
G02*
X88611000Y-72979000I150000J0D01*
G01*
X90361000Y-72979000D01*
G75*
G02*
X90511000Y-73129000I0J-150000D01*
G01*
X90511000Y-73429000D01*
G75*
G02*
X90361000Y-73579000I-150000J0D01*
G01*
X88611000Y-73579000D01*
G75*
G02*
X88461000Y-73429000I0J150000D01*
G01*
G37*
G04 #@! TD.AperFunction*
G04 #@! TO.P,U1,23*
G04 #@! TO.N,G6*
G04 #@! TA.AperFunction,SMDPad,CuDef*
G36*
G01*
X88461000Y-74699000D02*
X88461000Y-74399000D01*
G75*
G02*
X88611000Y-74249000I150000J0D01*
G01*
X90361000Y-74249000D01*
G75*
G02*
X90511000Y-74399000I0J-150000D01*
G01*
X90511000Y-74699000D01*
G75*
G02*
X90361000Y-74849000I-150000J0D01*
G01*
X88611000Y-74849000D01*
G75*
G02*
X88461000Y-74699000I0J150000D01*
G01*
G37*
G04 #@! TD.AperFunction*
G04 #@! TO.P,U1,22*
G04 #@! TO.N,G5*
G04 #@! TA.AperFunction,SMDPad,CuDef*
G36*
G01*
X88461000Y-75969000D02*
X88461000Y-75669000D01*
G75*
G02*
X88611000Y-75519000I150000J0D01*
G01*
X90361000Y-75519000D01*
G75*
G02*
X90511000Y-75669000I0J-150000D01*
G01*
X90511000Y-75969000D01*
G75*
G02*
X90361000Y-76119000I-150000J0D01*
G01*
X88611000Y-76119000D01*
G75*
G02*
X88461000Y-75969000I0J150000D01*
G01*
G37*
G04 #@! TD.AperFunction*
G04 #@! TO.P,U1,21*
G04 #@! TO.N,G4*
G04 #@! TA.AperFunction,SMDPad,CuDef*
G36*
G01*
X88461000Y-77239000D02*
X88461000Y-76939000D01*
G75*
G02*
X88611000Y-76789000I150000J0D01*
G01*
X90361000Y-76789000D01*
G75*
G02*
X90511000Y-76939000I0J-150000D01*
G01*
X90511000Y-77239000D01*
G75*
G02*
X90361000Y-77389000I-150000J0D01*
G01*
X88611000Y-77389000D01*
G75*
G02*
X88461000Y-77239000I0J150000D01*
G01*
G37*
G04 #@! TD.AperFunction*
G04 #@! TO.P,U1,20*
G04 #@! TO.N,G3*
G04 #@! TA.AperFunction,SMDPad,CuDef*
G36*
G01*
X88461000Y-78509000D02*
X88461000Y-78209000D01*
G75*
G02*
X88611000Y-78059000I150000J0D01*
G01*
X90361000Y-78059000D01*
G75*
G02*
X90511000Y-78209000I0J-150000D01*
G01*
X90511000Y-78509000D01*
G75*
G02*
X90361000Y-78659000I-150000J0D01*
G01*
X88611000Y-78659000D01*
G75*
G02*
X88461000Y-78509000I0J150000D01*
G01*
G37*
G04 #@! TD.AperFunction*
G04 #@! TO.P,U1,19*
G04 #@! TO.N,G2*
G04 #@! TA.AperFunction,SMDPad,CuDef*
G36*
G01*
X88461000Y-79779000D02*
X88461000Y-79479000D01*
G75*
G02*
X88611000Y-79329000I150000J0D01*
G01*
X90361000Y-79329000D01*
G75*
G02*
X90511000Y-79479000I0J-150000D01*
G01*
X90511000Y-79779000D01*
G75*
G02*
X90361000Y-79929000I-150000J0D01*
G01*
X88611000Y-79929000D01*
G75*
G02*
X88461000Y-79779000I0J150000D01*
G01*
G37*
G04 #@! TD.AperFunction*
G04 #@! TO.P,U1,18*
G04 #@! TO.N,G1*
G04 #@! TA.AperFunction,SMDPad,CuDef*
G36*
G01*
X88461000Y-81049000D02*
X88461000Y-80749000D01*
G75*
G02*
X88611000Y-80599000I150000J0D01*
G01*
X90361000Y-80599000D01*
G75*
G02*
X90511000Y-80749000I0J-150000D01*
G01*
X90511000Y-81049000D01*
G75*
G02*
X90361000Y-81199000I-150000J0D01*
G01*
X88611000Y-81199000D01*
G75*
G02*
X88461000Y-81049000I0J150000D01*
G01*
G37*
G04 #@! TD.AperFunction*
G04 #@! TO.P,U1,17*
G04 #@! TO.N,+5V*
G04 #@! TA.AperFunction,SMDPad,CuDef*
G36*
G01*
X88461000Y-82319000D02*
X88461000Y-82019000D01*
G75*
G02*
X88611000Y-81869000I150000J0D01*
G01*
X90361000Y-81869000D01*
G75*
G02*
X90511000Y-82019000I0J-150000D01*
G01*
X90511000Y-82319000D01*
G75*
G02*
X90361000Y-82469000I-150000J0D01*
G01*
X88611000Y-82469000D01*
G75*
G02*
X88461000Y-82319000I0J150000D01*
G01*
G37*
G04 #@! TD.AperFunction*
G04 #@! TO.P,U1,16*
G04 #@! TO.N,Seg8*
G04 #@! TA.AperFunction,SMDPad,CuDef*
G36*
G01*
X88461000Y-83589000D02*
X88461000Y-83289000D01*
G75*
G02*
X88611000Y-83139000I150000J0D01*
G01*
X90361000Y-83139000D01*
G75*
G02*
X90511000Y-83289000I0J-150000D01*
G01*
X90511000Y-83589000D01*
G75*
G02*
X90361000Y-83739000I-150000J0D01*
G01*
X88611000Y-83739000D01*
G75*
G02*
X88461000Y-83589000I0J150000D01*
G01*
G37*
G04 #@! TD.AperFunction*
G04 #@! TO.P,U1,15*
G04 #@! TO.N,Seg7*
G04 #@! TA.AperFunction,SMDPad,CuDef*
G36*
G01*
X88461000Y-84859000D02*
X88461000Y-84559000D01*
G75*
G02*
X88611000Y-84409000I150000J0D01*
G01*
X90361000Y-84409000D01*
G75*
G02*
X90511000Y-84559000I0J-150000D01*
G01*
X90511000Y-84859000D01*
G75*
G02*
X90361000Y-85009000I-150000J0D01*
G01*
X88611000Y-85009000D01*
G75*
G02*
X88461000Y-84859000I0J150000D01*
G01*
G37*
G04 #@! TD.AperFunction*
G04 #@! TO.P,U1,14*
G04 #@! TO.N,Seg6*
G04 #@! TA.AperFunction,SMDPad,CuDef*
G36*
G01*
X79161000Y-84859000D02*
X79161000Y-84559000D01*
G75*
G02*
X79311000Y-84409000I150000J0D01*
G01*
X81061000Y-84409000D01*
G75*
G02*
X81211000Y-84559000I0J-150000D01*
G01*
X81211000Y-84859000D01*
G75*
G02*
X81061000Y-85009000I-150000J0D01*
G01*
X79311000Y-85009000D01*
G75*
G02*
X79161000Y-84859000I0J150000D01*
G01*
G37*
G04 #@! TD.AperFunction*
G04 #@! TO.P,U1,13*
G04 #@! TO.N,Seg5*
G04 #@! TA.AperFunction,SMDPad,CuDef*
G36*
G01*
X79161000Y-83589000D02*
X79161000Y-83289000D01*
G75*
G02*
X79311000Y-83139000I150000J0D01*
G01*
X81061000Y-83139000D01*
G75*
G02*
X81211000Y-83289000I0J-150000D01*
G01*
X81211000Y-83589000D01*
G75*
G02*
X81061000Y-83739000I-150000J0D01*
G01*
X79311000Y-83739000D01*
G75*
G02*
X79161000Y-83589000I0J150000D01*
G01*
G37*
G04 #@! TD.AperFunction*
G04 #@! TO.P,U1,12*
G04 #@! TO.N,Seg4*
G04 #@! TA.AperFunction,SMDPad,CuDef*
G36*
G01*
X79161000Y-82319000D02*
X79161000Y-82019000D01*
G75*
G02*
X79311000Y-81869000I150000J0D01*
G01*
X81061000Y-81869000D01*
G75*
G02*
X81211000Y-82019000I0J-150000D01*
G01*
X81211000Y-82319000D01*
G75*
G02*
X81061000Y-82469000I-150000J0D01*
G01*
X79311000Y-82469000D01*
G75*
G02*
X79161000Y-82319000I0J150000D01*
G01*
G37*
G04 #@! TD.AperFunction*
G04 #@! TO.P,U1,11*
G04 #@! TO.N,Seg3*
G04 #@! TA.AperFunction,SMDPad,CuDef*
G36*
G01*
X79161000Y-81049000D02*
X79161000Y-80749000D01*
G75*
G02*
X79311000Y-80599000I150000J0D01*
G01*
X81061000Y-80599000D01*
G75*
G02*
X81211000Y-80749000I0J-150000D01*
G01*
X81211000Y-81049000D01*
G75*
G02*
X81061000Y-81199000I-150000J0D01*
G01*
X79311000Y-81199000D01*
G75*
G02*
X79161000Y-81049000I0J150000D01*
G01*
G37*
G04 #@! TD.AperFunction*
G04 #@! TO.P,U1,10*
G04 #@! TO.N,Seg2*
G04 #@! TA.AperFunction,SMDPad,CuDef*
G36*
G01*
X79161000Y-79779000D02*
X79161000Y-79479000D01*
G75*
G02*
X79311000Y-79329000I150000J0D01*
G01*
X81061000Y-79329000D01*
G75*
G02*
X81211000Y-79479000I0J-150000D01*
G01*
X81211000Y-79779000D01*
G75*
G02*
X81061000Y-79929000I-150000J0D01*
G01*
X79311000Y-79929000D01*
G75*
G02*
X79161000Y-79779000I0J150000D01*
G01*
G37*
G04 #@! TD.AperFunction*
G04 #@! TO.P,U1,9*
G04 #@! TO.N,Seg1*
G04 #@! TA.AperFunction,SMDPad,CuDef*
G36*
G01*
X79161000Y-78509000D02*
X79161000Y-78209000D01*
G75*
G02*
X79311000Y-78059000I150000J0D01*
G01*
X81061000Y-78059000D01*
G75*
G02*
X81211000Y-78209000I0J-150000D01*
G01*
X81211000Y-78509000D01*
G75*
G02*
X81061000Y-78659000I-150000J0D01*
G01*
X79311000Y-78659000D01*
G75*
G02*
X79161000Y-78509000I0J150000D01*
G01*
G37*
G04 #@! TD.AperFunction*
G04 #@! TO.P,U1,8*
G04 #@! TO.N,Net-(R2-Pad1)*
G04 #@! TA.AperFunction,SMDPad,CuDef*
G36*
G01*
X79161000Y-77239000D02*
X79161000Y-76939000D01*
G75*
G02*
X79311000Y-76789000I150000J0D01*
G01*
X81061000Y-76789000D01*
G75*
G02*
X81211000Y-76939000I0J-150000D01*
G01*
X81211000Y-77239000D01*
G75*
G02*
X81061000Y-77389000I-150000J0D01*
G01*
X79311000Y-77389000D01*
G75*
G02*
X79161000Y-77239000I0J150000D01*
G01*
G37*
G04 #@! TD.AperFunction*
G04 #@! TO.P,U1,7*
G04 #@! TO.N,Net-(R1-Pad2)*
G04 #@! TA.AperFunction,SMDPad,CuDef*
G36*
G01*
X79161000Y-75969000D02*
X79161000Y-75669000D01*
G75*
G02*
X79311000Y-75519000I150000J0D01*
G01*
X81061000Y-75519000D01*
G75*
G02*
X81211000Y-75669000I0J-150000D01*
G01*
X81211000Y-75969000D01*
G75*
G02*
X81061000Y-76119000I-150000J0D01*
G01*
X79311000Y-76119000D01*
G75*
G02*
X79161000Y-75969000I0J150000D01*
G01*
G37*
G04 #@! TD.AperFunction*
G04 #@! TO.P,U1,6*
G04 #@! TO.N,GND*
G04 #@! TA.AperFunction,SMDPad,CuDef*
G36*
G01*
X79161000Y-74699000D02*
X79161000Y-74399000D01*
G75*
G02*
X79311000Y-74249000I150000J0D01*
G01*
X81061000Y-74249000D01*
G75*
G02*
X81211000Y-74399000I0J-150000D01*
G01*
X81211000Y-74699000D01*
G75*
G02*
X81061000Y-74849000I-150000J0D01*
G01*
X79311000Y-74849000D01*
G75*
G02*
X79161000Y-74699000I0J150000D01*
G01*
G37*
G04 #@! TD.AperFunction*
G04 #@! TO.P,U1,5*
G04 #@! TO.N,N/C*
G04 #@! TA.AperFunction,SMDPad,CuDef*
G36*
G01*
X79161000Y-73429000D02*
X79161000Y-73129000D01*
G75*
G02*
X79311000Y-72979000I150000J0D01*
G01*
X81061000Y-72979000D01*
G75*
G02*
X81211000Y-73129000I0J-150000D01*
G01*
X81211000Y-73429000D01*
G75*
G02*
X81061000Y-73579000I-150000J0D01*
G01*
X79311000Y-73579000D01*
G75*
G02*
X79161000Y-73429000I0J150000D01*
G01*
G37*
G04 #@! TD.AperFunction*
G04 #@! TO.P,U1,4*
G04 #@! TA.AperFunction,SMDPad,CuDef*
G36*
G01*
X79161000Y-72159000D02*
X79161000Y-71859000D01*
G75*
G02*
X79311000Y-71709000I150000J0D01*
G01*
X81061000Y-71709000D01*
G75*
G02*
X81211000Y-71859000I0J-150000D01*
G01*
X81211000Y-72159000D01*
G75*
G02*
X81061000Y-72309000I-150000J0D01*
G01*
X79311000Y-72309000D01*
G75*
G02*
X79161000Y-72159000I0J150000D01*
G01*
G37*
G04 #@! TD.AperFunction*
G04 #@! TO.P,U1,3*
G04 #@! TA.AperFunction,SMDPad,CuDef*
G36*
G01*
X79161000Y-70889000D02*
X79161000Y-70589000D01*
G75*
G02*
X79311000Y-70439000I150000J0D01*
G01*
X81061000Y-70439000D01*
G75*
G02*
X81211000Y-70589000I0J-150000D01*
G01*
X81211000Y-70889000D01*
G75*
G02*
X81061000Y-71039000I-150000J0D01*
G01*
X79311000Y-71039000D01*
G75*
G02*
X79161000Y-70889000I0J150000D01*
G01*
G37*
G04 #@! TD.AperFunction*
G04 #@! TO.P,U1,2*
G04 #@! TA.AperFunction,SMDPad,CuDef*
G36*
G01*
X79161000Y-69619000D02*
X79161000Y-69319000D01*
G75*
G02*
X79311000Y-69169000I150000J0D01*
G01*
X81061000Y-69169000D01*
G75*
G02*
X81211000Y-69319000I0J-150000D01*
G01*
X81211000Y-69619000D01*
G75*
G02*
X81061000Y-69769000I-150000J0D01*
G01*
X79311000Y-69769000D01*
G75*
G02*
X79161000Y-69619000I0J150000D01*
G01*
G37*
G04 #@! TD.AperFunction*
G04 #@! TO.P,U1,1*
G04 #@! TA.AperFunction,SMDPad,CuDef*
G36*
G01*
X79161000Y-68349000D02*
X79161000Y-68049000D01*
G75*
G02*
X79311000Y-67899000I150000J0D01*
G01*
X81061000Y-67899000D01*
G75*
G02*
X81211000Y-68049000I0J-150000D01*
G01*
X81211000Y-68349000D01*
G75*
G02*
X81061000Y-68499000I-150000J0D01*
G01*
X79311000Y-68499000D01*
G75*
G02*
X79161000Y-68349000I0J150000D01*
G01*
G37*
G04 #@! TD.AperFunction*
G04 #@! TD*
D10*
G04 #@! TO.P,TH1,2*
G04 #@! TO.N,Net-(R3-Pad1)*
X61087000Y-90678000D03*
D11*
G04 #@! TO.P,TH1,1*
G04 #@! TO.N,NTC*
X58547000Y-90678000D03*
G04 #@! TD*
G04 #@! TO.P,R6,2*
G04 #@! TO.N,GND*
G04 #@! TA.AperFunction,SMDPad,CuDef*
G36*
G01*
X69704000Y-98482999D02*
X69704000Y-99383001D01*
G75*
G02*
X69454001Y-99633000I-249999J0D01*
G01*
X68928999Y-99633000D01*
G75*
G02*
X68679000Y-99383001I0J249999D01*
G01*
X68679000Y-98482999D01*
G75*
G02*
X68928999Y-98233000I249999J0D01*
G01*
X69454001Y-98233000D01*
G75*
G02*
X69704000Y-98482999I0J-249999D01*
G01*
G37*
G04 #@! TD.AperFunction*
G04 #@! TO.P,R6,1*
G04 #@! TO.N,Net-(R5-Pad2)*
G04 #@! TA.AperFunction,SMDPad,CuDef*
G36*
G01*
X71529000Y-98482999D02*
X71529000Y-99383001D01*
G75*
G02*
X71279001Y-99633000I-249999J0D01*
G01*
X70753999Y-99633000D01*
G75*
G02*
X70504000Y-99383001I0J249999D01*
G01*
X70504000Y-98482999D01*
G75*
G02*
X70753999Y-98233000I249999J0D01*
G01*
X71279001Y-98233000D01*
G75*
G02*
X71529000Y-98482999I0J-249999D01*
G01*
G37*
G04 #@! TD.AperFunction*
G04 #@! TD*
D10*
G04 #@! TO.P,R5,2*
G04 #@! TO.N,Net-(R5-Pad2)*
X64516000Y-97409000D03*
D11*
G04 #@! TO.P,R5,1*
G04 #@! TO.N,+3V3*
X64516000Y-94869000D03*
G04 #@! TD*
G04 #@! TO.P,R4,2*
G04 #@! TO.N,Net-(D1-Pad2)*
G04 #@! TA.AperFunction,SMDPad,CuDef*
G36*
G01*
X105198500Y-71824001D02*
X105198500Y-70923999D01*
G75*
G02*
X105448499Y-70674000I249999J0D01*
G01*
X105973501Y-70674000D01*
G75*
G02*
X106223500Y-70923999I0J-249999D01*
G01*
X106223500Y-71824001D01*
G75*
G02*
X105973501Y-72074000I-249999J0D01*
G01*
X105448499Y-72074000D01*
G75*
G02*
X105198500Y-71824001I0J249999D01*
G01*
G37*
G04 #@! TD.AperFunction*
G04 #@! TO.P,R4,1*
G04 #@! TO.N,RAIN*
G04 #@! TA.AperFunction,SMDPad,CuDef*
G36*
G01*
X103373500Y-71824001D02*
X103373500Y-70923999D01*
G75*
G02*
X103623499Y-70674000I249999J0D01*
G01*
X104148501Y-70674000D01*
G75*
G02*
X104398500Y-70923999I0J-249999D01*
G01*
X104398500Y-71824001D01*
G75*
G02*
X104148501Y-72074000I-249999J0D01*
G01*
X103623499Y-72074000D01*
G75*
G02*
X103373500Y-71824001I0J249999D01*
G01*
G37*
G04 #@! TD.AperFunction*
G04 #@! TD*
G04 #@! TO.P,R3,2*
G04 #@! TO.N,GND*
G04 #@! TA.AperFunction,SMDPad,CuDef*
G36*
G01*
X70504000Y-96970001D02*
X70504000Y-96069999D01*
G75*
G02*
X70753999Y-95820000I249999J0D01*
G01*
X71279001Y-95820000D01*
G75*
G02*
X71529000Y-96069999I0J-249999D01*
G01*
X71529000Y-96970001D01*
G75*
G02*
X71279001Y-97220000I-249999J0D01*
G01*
X70753999Y-97220000D01*
G75*
G02*
X70504000Y-96970001I0J249999D01*
G01*
G37*
G04 #@! TD.AperFunction*
G04 #@! TO.P,R3,1*
G04 #@! TO.N,Net-(R3-Pad1)*
G04 #@! TA.AperFunction,SMDPad,CuDef*
G36*
G01*
X68679000Y-96970001D02*
X68679000Y-96069999D01*
G75*
G02*
X68928999Y-95820000I249999J0D01*
G01*
X69454001Y-95820000D01*
G75*
G02*
X69704000Y-96069999I0J-249999D01*
G01*
X69704000Y-96970001D01*
G75*
G02*
X69454001Y-97220000I-249999J0D01*
G01*
X68928999Y-97220000D01*
G75*
G02*
X68679000Y-96970001I0J249999D01*
G01*
G37*
G04 #@! TD.AperFunction*
G04 #@! TD*
G04 #@! TO.P,R2,2*
G04 #@! TO.N,+5V*
G04 #@! TA.AperFunction,SMDPad,CuDef*
G36*
G01*
X93810500Y-73792665D02*
X93810500Y-74692667D01*
G75*
G02*
X93560501Y-74942666I-249999J0D01*
G01*
X93035499Y-74942666D01*
G75*
G02*
X92785500Y-74692667I0J249999D01*
G01*
X92785500Y-73792665D01*
G75*
G02*
X93035499Y-73542666I249999J0D01*
G01*
X93560501Y-73542666D01*
G75*
G02*
X93810500Y-73792665I0J-249999D01*
G01*
G37*
G04 #@! TD.AperFunction*
G04 #@! TO.P,R2,1*
G04 #@! TO.N,Net-(R2-Pad1)*
G04 #@! TA.AperFunction,SMDPad,CuDef*
G36*
G01*
X95635500Y-73792665D02*
X95635500Y-74692667D01*
G75*
G02*
X95385501Y-74942666I-249999J0D01*
G01*
X94860499Y-74942666D01*
G75*
G02*
X94610500Y-74692667I0J249999D01*
G01*
X94610500Y-73792665D01*
G75*
G02*
X94860499Y-73542666I249999J0D01*
G01*
X95385501Y-73542666D01*
G75*
G02*
X95635500Y-73792665I0J-249999D01*
G01*
G37*
G04 #@! TD.AperFunction*
G04 #@! TD*
G04 #@! TO.P,R1,2*
G04 #@! TO.N,Net-(R1-Pad2)*
G04 #@! TA.AperFunction,SMDPad,CuDef*
G36*
G01*
X94610500Y-78450333D02*
X94610500Y-77550331D01*
G75*
G02*
X94860499Y-77300332I249999J0D01*
G01*
X95385501Y-77300332D01*
G75*
G02*
X95635500Y-77550331I0J-249999D01*
G01*
X95635500Y-78450333D01*
G75*
G02*
X95385501Y-78700332I-249999J0D01*
G01*
X94860499Y-78700332D01*
G75*
G02*
X94610500Y-78450333I0J249999D01*
G01*
G37*
G04 #@! TD.AperFunction*
G04 #@! TO.P,R1,1*
G04 #@! TO.N,+5V*
G04 #@! TA.AperFunction,SMDPad,CuDef*
G36*
G01*
X92785500Y-78450333D02*
X92785500Y-77550331D01*
G75*
G02*
X93035499Y-77300332I249999J0D01*
G01*
X93560501Y-77300332D01*
G75*
G02*
X93810500Y-77550331I0J-249999D01*
G01*
X93810500Y-78450333D01*
G75*
G02*
X93560501Y-78700332I-249999J0D01*
G01*
X93035499Y-78700332D01*
G75*
G02*
X92785500Y-78450333I0J249999D01*
G01*
G37*
G04 #@! TD.AperFunction*
G04 #@! TD*
D10*
G04 #@! TO.P,PWR,2*
G04 #@! TO.N,GND*
X110236000Y-98552000D03*
D11*
G04 #@! TO.P,PWR,1*
G04 #@! TO.N,+5V*
X110236000Y-96012000D03*
G04 #@! TD*
D16*
G04 #@! TO.P,D1,2*
G04 #@! TO.N,Net-(D1-Pad2)*
X109982000Y-70104000D03*
D17*
G04 #@! TO.P,D1,1*
G04 #@! TO.N,GND*
X112522000Y-70104000D03*
G04 #@! TD*
G04 #@! TO.P,C2,2*
G04 #@! TO.N,GND*
G04 #@! TA.AperFunction,SMDPad,CuDef*
G36*
G01*
X89116500Y-89018000D02*
X89116500Y-91068000D01*
G75*
G02*
X88866500Y-91318000I-250000J0D01*
G01*
X87291500Y-91318000D01*
G75*
G02*
X87041500Y-91068000I0J250000D01*
G01*
X87041500Y-89018000D01*
G75*
G02*
X87291500Y-88768000I250000J0D01*
G01*
X88866500Y-88768000D01*
G75*
G02*
X89116500Y-89018000I0J-250000D01*
G01*
G37*
G04 #@! TD.AperFunction*
G04 #@! TO.P,C2,1*
G04 #@! TO.N,+5V*
G04 #@! TA.AperFunction,SMDPad,CuDef*
G36*
G01*
X95341500Y-89018000D02*
X95341500Y-91068000D01*
G75*
G02*
X95091500Y-91318000I-250000J0D01*
G01*
X93516500Y-91318000D01*
G75*
G02*
X93266500Y-91068000I0J250000D01*
G01*
X93266500Y-89018000D01*
G75*
G02*
X93516500Y-88768000I250000J0D01*
G01*
X95091500Y-88768000D01*
G75*
G02*
X95341500Y-89018000I0J-250000D01*
G01*
G37*
G04 #@! TD.AperFunction*
G04 #@! TD*
G04 #@! TO.P,C1,2*
G04 #@! TO.N,GND*
G04 #@! TA.AperFunction,SMDPad,CuDef*
G36*
G01*
X94640500Y-82263000D02*
X94640500Y-81313000D01*
G75*
G02*
X94890500Y-81063000I250000J0D01*
G01*
X95390500Y-81063000D01*
G75*
G02*
X95640500Y-81313000I0J-250000D01*
G01*
X95640500Y-82263000D01*
G75*
G02*
X95390500Y-82513000I-250000J0D01*
G01*
X94890500Y-82513000D01*
G75*
G02*
X94640500Y-82263000I0J250000D01*
G01*
G37*
G04 #@! TD.AperFunction*
G04 #@! TO.P,C1,1*
G04 #@! TO.N,+5V*
G04 #@! TA.AperFunction,SMDPad,CuDef*
G36*
G01*
X92740500Y-82263000D02*
X92740500Y-81313000D01*
G75*
G02*
X92990500Y-81063000I250000J0D01*
G01*
X93490500Y-81063000D01*
G75*
G02*
X93740500Y-81313000I0J-250000D01*
G01*
X93740500Y-82263000D01*
G75*
G02*
X93490500Y-82513000I-250000J0D01*
G01*
X92990500Y-82513000D01*
G75*
G02*
X92740500Y-82263000I0J250000D01*
G01*
G37*
G04 #@! TD.AperFunction*
G04 #@! TD*
D18*
G04 #@! TO.N,GND*
X67310000Y-95377000D03*
X67310000Y-96139000D03*
X70612000Y-94107000D03*
X71247000Y-94742000D03*
X72263000Y-95758000D03*
X92329000Y-70231000D03*
X93599000Y-70104000D03*
X82550000Y-73787000D03*
X85598000Y-73787000D03*
X83312000Y-73787000D03*
X86360000Y-74041000D03*
X82550000Y-66675000D03*
X83850000Y-66675000D03*
X85150000Y-66675000D03*
X86450000Y-66675000D03*
X82550000Y-67975000D03*
X83850000Y-67975000D03*
X85150000Y-67975000D03*
X86450000Y-67975000D03*
X81534000Y-74549000D03*
X78740000Y-74549000D03*
X102616000Y-67056000D03*
X103916000Y-67056000D03*
X105216000Y-67056000D03*
X106516000Y-67056000D03*
X107816000Y-67056000D03*
X102616000Y-68356000D03*
X103916000Y-68356000D03*
X105216000Y-68356000D03*
X106516000Y-68356000D03*
X107816000Y-68356000D03*
X56642000Y-77978000D03*
X56642000Y-78994000D03*
X56642000Y-80010000D03*
X57785000Y-80010000D03*
X57785000Y-78994000D03*
X57785000Y-77978000D03*
X71120000Y-91567000D03*
X70104000Y-91948000D03*
D19*
X94742000Y-86868000D03*
X91694000Y-87122000D03*
D18*
X106172000Y-77470000D03*
X106934000Y-77089000D03*
X107696000Y-77470000D03*
D19*
X96012000Y-86868000D03*
X97282000Y-86868000D03*
X103632000Y-90932000D03*
X103632000Y-92075000D03*
X103632000Y-93218000D03*
X78232000Y-75692000D03*
G04 #@! TO.N,+5V*
X109474000Y-84968006D03*
X109474000Y-86905000D03*
D18*
G04 #@! TO.N,Net-(R1-Pad2)*
X81915000Y-75946000D03*
X97155000Y-74803000D03*
X97282000Y-77470000D03*
X96022000Y-77851000D03*
G04 #@! TO.N,Net-(R2-Pad1)*
X81788000Y-76962000D03*
X94488000Y-75692000D03*
X96647000Y-79502000D03*
G04 #@! TO.N,RAIN*
X102616000Y-71374000D03*
X84328000Y-87122000D03*
X84836000Y-71374000D03*
G04 #@! TO.N,+3V3*
X76708000Y-70866000D03*
D19*
X70104000Y-90396990D03*
X67437199Y-89274566D03*
X71374000Y-74168000D03*
D18*
G04 #@! TO.N,NTC*
X71619001Y-79248000D03*
X71882000Y-76611000D03*
G04 #@! TO.N,G8*
X72644000Y-84953000D03*
X73152000Y-72527000D03*
X82550000Y-72253000D03*
G04 #@! TO.N,G7*
X88001000Y-72934524D03*
G04 #@! TO.N,G6*
X87122000Y-72390000D03*
G04 #@! TO.N,G5*
X87376000Y-78486000D03*
G04 #@! TO.N,G3*
X87630000Y-82550000D03*
G04 #@! TO.N,G2*
X92202000Y-80518000D03*
G04 #@! TO.N,G1*
X91186000Y-80264000D03*
G04 #@! TO.N,Seg8*
X87122000Y-85852000D03*
X100838000Y-86106000D03*
X91694000Y-84191000D03*
X97790000Y-85209010D03*
G04 #@! TO.N,Seg7*
X78232000Y-86477000D03*
X89154000Y-85852000D03*
X75184000Y-85090000D03*
G04 #@! TO.N,Seg6*
X73914000Y-77236000D03*
X94488000Y-79502000D03*
X94234000Y-83566000D03*
X81671000Y-84582000D03*
G04 #@! TO.N,Seg5*
X78566942Y-83231058D03*
X81534000Y-83566000D03*
X97536000Y-81534000D03*
G04 #@! TO.N,Seg4*
X79756000Y-88392000D03*
X103124000Y-87005000D03*
X97917000Y-89271000D03*
G04 #@! TO.N,Seg3*
X73914000Y-86106000D03*
X74168000Y-82550000D03*
X75231864Y-81442999D03*
X102870000Y-88900000D03*
X83312000Y-90932000D03*
X101600000Y-90287000D03*
G04 #@! TO.N,Seg2*
X73289000Y-80518000D03*
X78486000Y-79756000D03*
X73152000Y-75692000D03*
G04 #@! TO.N,Seg1*
X74676000Y-77861000D03*
X82550000Y-75184000D03*
G04 #@! TO.N,Net-(RV1-Pad2)*
X64516000Y-70358000D03*
X65786000Y-91694000D03*
X71374000Y-92964000D03*
G04 #@! TO.N,Net-(J2-Pad1)*
X104140000Y-88275000D03*
G04 #@! TO.N,LIGHT*
X74930000Y-90678000D03*
X74422000Y-89046990D03*
X72898000Y-82042000D03*
G04 #@! TD*
D20*
G04 #@! TO.N,GND*
X81661000Y-74549000D02*
X81915000Y-74295000D01*
X80186000Y-74549000D02*
X81534000Y-74549000D01*
X81915000Y-74295000D02*
X81915000Y-70993000D01*
X81915000Y-70993000D02*
X82232500Y-70675500D01*
X83185000Y-69723000D02*
X83185000Y-69723000D01*
X82740500Y-70167500D02*
X83185000Y-69723000D01*
X82232500Y-70675500D02*
X82740500Y-70167500D01*
X81534000Y-74549000D02*
X81661000Y-74549000D01*
D21*
X95140500Y-86469500D02*
X94742000Y-86868000D01*
X95140500Y-81788000D02*
X95140500Y-86469500D01*
G04 #@! TO.N,+5V*
X99545000Y-74549000D02*
X97640000Y-72644000D01*
X93298000Y-73542666D02*
X93298000Y-74242666D01*
X94196666Y-72644000D02*
X93298000Y-73542666D01*
X93298000Y-81730500D02*
X93240500Y-81788000D01*
X93298000Y-74242666D02*
X93298000Y-81730500D01*
X92859500Y-82169000D02*
X93240500Y-81788000D01*
X89486000Y-82169000D02*
X92859500Y-82169000D01*
X93240500Y-88979500D02*
X93240500Y-81788000D01*
X94304000Y-90043000D02*
X93240500Y-88979500D01*
D20*
X97640000Y-72644000D02*
X97536000Y-72644000D01*
D22*
X109474000Y-95250000D02*
X110236000Y-96012000D01*
D21*
X109474000Y-86905000D02*
X109474000Y-95250000D01*
X104394000Y-79888006D02*
X106486997Y-81981003D01*
X104394000Y-79398000D02*
X104394000Y-79888006D01*
X106486997Y-81981003D02*
X109474000Y-84968006D01*
X106039994Y-81534000D02*
X106486997Y-81981003D01*
X99545000Y-74549000D02*
X104394000Y-79398000D01*
X94196666Y-72644000D02*
X97640000Y-72644000D01*
D20*
G04 #@! TO.N,Net-(D1-Pad2)*
X106981000Y-70104000D02*
X105711000Y-71374000D01*
X109982000Y-70104000D02*
X106981000Y-70104000D01*
G04 #@! TO.N,Net-(R1-Pad2)*
X81788000Y-75819000D02*
X81915000Y-75946000D01*
X80186000Y-75819000D02*
X81788000Y-75819000D01*
X97155000Y-74803000D02*
X97536000Y-75184000D01*
X97536000Y-77216000D02*
X97282000Y-77470000D01*
X97536000Y-75184000D02*
X97536000Y-77216000D01*
X97282000Y-77470000D02*
X97282000Y-77470000D01*
X95272332Y-77851000D02*
X95123000Y-78000332D01*
X96022000Y-77851000D02*
X95272332Y-77851000D01*
X99545000Y-82169000D02*
X96901000Y-82169000D01*
X95965510Y-78842842D02*
X95123000Y-78000332D01*
X95965510Y-81233510D02*
X95965510Y-78842842D01*
X96901000Y-82169000D02*
X95965510Y-81233510D01*
G04 #@! TO.N,Net-(R2-Pad1)*
X81661000Y-77089000D02*
X81788000Y-76962000D01*
X80186000Y-77089000D02*
X81661000Y-77089000D01*
X94488000Y-75692000D02*
X94742000Y-75692000D01*
X95123000Y-75311000D02*
X95123000Y-74242666D01*
X94742000Y-75692000D02*
X95123000Y-75311000D01*
X96647000Y-75438000D02*
X95123000Y-74242666D01*
X96647000Y-79502000D02*
X96647000Y-75438000D01*
G04 #@! TO.N,Net-(R3-Pad1)*
X69112000Y-92837000D02*
X68137000Y-92837000D01*
X69437010Y-93162010D02*
X69112000Y-92837000D01*
X69437010Y-96274490D02*
X69437010Y-93162010D01*
X69191500Y-96520000D02*
X69437010Y-96274490D01*
X63246000Y-92837000D02*
X68137000Y-92837000D01*
X61087000Y-90678000D02*
X63246000Y-92837000D01*
G04 #@! TO.N,RAIN*
X103886000Y-71374000D02*
X102616000Y-71374000D01*
X84328000Y-87122000D02*
X84328000Y-71882000D01*
X84328000Y-71882000D02*
X84836000Y-71374000D01*
G04 #@! TO.N,Net-(R5-Pad2)*
X73087000Y-96862500D02*
X73087000Y-94107000D01*
X71016500Y-98933000D02*
X73087000Y-96862500D01*
X64516000Y-97409000D02*
X66929000Y-97409000D01*
X69991490Y-97907990D02*
X71016500Y-98933000D01*
X67427990Y-97907990D02*
X69991490Y-97907990D01*
X66929000Y-97409000D02*
X67427990Y-97907990D01*
G04 #@! TO.N,+3V3*
X76708000Y-74526000D02*
X76685000Y-74549000D01*
X76708000Y-70866000D02*
X76708000Y-74526000D01*
X70203990Y-90297000D02*
X70104000Y-90396990D01*
X73087000Y-90297000D02*
X70203990Y-90297000D01*
X70908238Y-74168000D02*
X71374000Y-74168000D01*
X69778999Y-75297239D02*
X70908238Y-74168000D01*
X69778999Y-86932766D02*
X69778999Y-75297239D01*
X67437199Y-89274566D02*
X69778999Y-86932766D01*
G04 #@! TO.N,NTC*
X71619001Y-76873999D02*
X71882000Y-76611000D01*
X71619001Y-79248000D02*
X71619001Y-76873999D01*
G04 #@! TO.N,G8*
X82550000Y-71374000D02*
X83312000Y-70612000D01*
X82550000Y-72253000D02*
X82550000Y-71374000D01*
X88890000Y-72009000D02*
X89486000Y-72009000D01*
X83312000Y-70612000D02*
X87493000Y-70612000D01*
X87493000Y-70612000D02*
X88069500Y-71188500D01*
X88069500Y-71188500D02*
X88890000Y-72009000D01*
X87630000Y-70749000D02*
X88069500Y-71188500D01*
X72526999Y-73152001D02*
X72526999Y-76500001D01*
X73152000Y-72527000D02*
X72526999Y-73152001D01*
X72526999Y-76500001D02*
X72644000Y-76617002D01*
X72644000Y-76774002D02*
X72202002Y-77216000D01*
X72644000Y-76617002D02*
X72644000Y-76774002D01*
X72244002Y-78947999D02*
X72244002Y-82949998D01*
X72202002Y-78905999D02*
X72244002Y-78947999D01*
X72202002Y-77216000D02*
X72202002Y-78905999D01*
X72644000Y-83349996D02*
X72644000Y-84953000D01*
X72244002Y-82949998D02*
X72644000Y-83349996D01*
G04 #@! TO.N,G7*
X88001000Y-72934524D02*
X88392000Y-73325524D01*
X89439476Y-73325524D02*
X89486000Y-73279000D01*
X88392000Y-73325524D02*
X89439476Y-73325524D01*
G04 #@! TO.N,G6*
X87122000Y-72390000D02*
X87376000Y-72390000D01*
X88461000Y-74549000D02*
X89486000Y-74549000D01*
X87376000Y-73464000D02*
X88461000Y-74549000D01*
X87376000Y-72390000D02*
X87376000Y-73464000D01*
G04 #@! TO.N,G5*
X88461000Y-75819000D02*
X89486000Y-75819000D01*
X87376000Y-76904000D02*
X88461000Y-75819000D01*
X87376000Y-78486000D02*
X87376000Y-76904000D01*
G04 #@! TO.N,G4*
X118364000Y-85979000D02*
X117276999Y-84891999D01*
X90836010Y-74979338D02*
X90836010Y-76763990D01*
X94187348Y-71628000D02*
X90836010Y-74979338D01*
X90511000Y-77089000D02*
X89486000Y-77089000D01*
X90836010Y-76763990D02*
X90511000Y-77089000D01*
X98806000Y-71628000D02*
X94187348Y-71628000D01*
X117276999Y-84891999D02*
X112069999Y-84891999D01*
X112069999Y-84891999D02*
X98806000Y-71628000D01*
G04 #@! TO.N,G3*
X88461000Y-78359000D02*
X89486000Y-78359000D01*
X87630000Y-79190000D02*
X88461000Y-78359000D01*
X87630000Y-82550000D02*
X87630000Y-79190000D01*
G04 #@! TO.N,G2*
X91737264Y-79629000D02*
X89486000Y-79629000D01*
X92202000Y-80093736D02*
X91737264Y-79629000D01*
X92202000Y-80518000D02*
X92202000Y-80093736D01*
G04 #@! TO.N,G1*
X91186000Y-80264000D02*
X90678000Y-80772000D01*
X89613000Y-80772000D02*
X89486000Y-80899000D01*
X90678000Y-80772000D02*
X89613000Y-80772000D01*
G04 #@! TO.N,Seg8*
X88461000Y-83439000D02*
X89486000Y-83439000D01*
X87122000Y-84778000D02*
X88461000Y-83439000D01*
X87122000Y-85852000D02*
X87122000Y-84778000D01*
X90942000Y-83439000D02*
X89486000Y-83439000D01*
X91694000Y-84191000D02*
X90942000Y-83439000D01*
X100820010Y-86123990D02*
X100838000Y-86106000D01*
X98704980Y-86123990D02*
X100820010Y-86123990D01*
X97790000Y-85209010D02*
X98704980Y-86123990D01*
G04 #@! TO.N,Seg7*
X89154000Y-85041000D02*
X89486000Y-84709000D01*
X89154000Y-85852000D02*
X89154000Y-85041000D01*
X77878990Y-86123990D02*
X78232000Y-86477000D01*
X76217990Y-86123990D02*
X77878990Y-86123990D01*
X75184000Y-85090000D02*
X76217990Y-86123990D01*
G04 #@! TO.N,Seg6*
X78035990Y-83583990D02*
X79161000Y-84709000D01*
X76308986Y-83583990D02*
X78035990Y-83583990D01*
X73914000Y-81189004D02*
X76308986Y-83583990D01*
X79161000Y-84709000D02*
X80186000Y-84709000D01*
X73914000Y-77236000D02*
X73914000Y-81189004D01*
X94234000Y-79756000D02*
X94234000Y-83566000D01*
X94488000Y-79502000D02*
X94234000Y-79756000D01*
X80313000Y-84582000D02*
X80186000Y-84709000D01*
X81671000Y-84582000D02*
X80313000Y-84582000D01*
G04 #@! TO.N,Seg5*
X79978058Y-83231058D02*
X80186000Y-83439000D01*
X78566942Y-83231058D02*
X79978058Y-83231058D01*
X81407000Y-83439000D02*
X81534000Y-83566000D01*
X80186000Y-83439000D02*
X81407000Y-83439000D01*
X98026010Y-81043990D02*
X102125990Y-81043990D01*
X97536000Y-81534000D02*
X98026010Y-81043990D01*
X105664000Y-84582000D02*
X105664000Y-85979000D01*
X102125990Y-81043990D02*
X105664000Y-84582000D01*
G04 #@! TO.N,Seg4*
X79756000Y-88392000D02*
X80518000Y-88392000D01*
X80518000Y-88392000D02*
X82296000Y-86614000D01*
X81211000Y-82169000D02*
X80186000Y-82169000D01*
X82296000Y-83254000D02*
X81211000Y-82169000D01*
X82296000Y-86614000D02*
X82296000Y-83254000D01*
X101737000Y-88392000D02*
X103124000Y-87005000D01*
X98679000Y-88392000D02*
X101737000Y-88392000D01*
X97917000Y-89271000D02*
X98679000Y-88392000D01*
G04 #@! TO.N,Seg3*
X73914000Y-82804000D02*
X74168000Y-82550000D01*
X73914000Y-86106000D02*
X73914000Y-82804000D01*
X76163996Y-80899000D02*
X80186000Y-80899000D01*
X75531863Y-81143000D02*
X75919996Y-81143000D01*
X75919996Y-81143000D02*
X76163996Y-80899000D01*
X75231864Y-81442999D02*
X75531863Y-81143000D01*
X83312000Y-83000000D02*
X81211000Y-80899000D01*
X83312000Y-90932000D02*
X83312000Y-83000000D01*
X81211000Y-80899000D02*
X80186000Y-80899000D01*
X101600000Y-90170000D02*
X102870000Y-88900000D01*
X101600000Y-90287000D02*
X101600000Y-90170000D01*
G04 #@! TO.N,Seg2*
X80059000Y-79756000D02*
X80186000Y-79629000D01*
X78486000Y-79756000D02*
X80059000Y-79756000D01*
X73152000Y-80381000D02*
X73289000Y-80518000D01*
X73152000Y-75692000D02*
X73152000Y-80381000D01*
G04 #@! TO.N,Seg1*
X75174000Y-78359000D02*
X80186000Y-78359000D01*
X74676000Y-77861000D02*
X75174000Y-78359000D01*
X81316002Y-78359000D02*
X80186000Y-78359000D01*
X82550000Y-77125002D02*
X81316002Y-78359000D01*
X82550000Y-75184000D02*
X82550000Y-77125002D01*
G04 #@! TO.N,TEMP*
X68137000Y-91567000D02*
X68137000Y-90297000D01*
X76567990Y-89671990D02*
X68762010Y-89671990D01*
X68762010Y-89671990D02*
X68137000Y-90297000D01*
X76685000Y-89789000D02*
X76567990Y-89671990D01*
G04 #@! TO.N,Net-(RV1-Pad2)*
X64516000Y-70358000D02*
X64516000Y-76157762D01*
X64516000Y-90424000D02*
X65786000Y-91694000D01*
X64516000Y-76157762D02*
X64516000Y-90424000D01*
X72960000Y-92964000D02*
X73087000Y-92837000D01*
X71374000Y-92964000D02*
X72960000Y-92964000D01*
G04 #@! TO.N,Net-(J2-Pad2)*
X99545000Y-84709000D02*
X102489000Y-84709000D01*
X102489000Y-84709000D02*
X106680000Y-88900000D01*
X106680000Y-97155000D02*
X105283000Y-98552000D01*
X106680000Y-88900000D02*
X106680000Y-97155000D01*
G04 #@! TO.N,Net-(J2-Pad1)*
X105283000Y-89418000D02*
X104140000Y-88275000D01*
X105283000Y-96012000D02*
X105283000Y-89418000D01*
G04 #@! TO.N,LIGHT*
X74041000Y-91567000D02*
X74930000Y-90678000D01*
X73087000Y-91567000D02*
X74041000Y-91567000D01*
X73288999Y-87913989D02*
X74422000Y-89046990D01*
X73288999Y-82297627D02*
X73288999Y-87913989D01*
X72898000Y-82042000D02*
X73288999Y-82297627D01*
G04 #@! TD*
D23*
G04 #@! TO.N,GND*
X120379545Y-66103909D02*
X120730208Y-66209780D01*
X121053625Y-66381744D01*
X121337484Y-66613254D01*
X121570965Y-66895486D01*
X121745183Y-67217695D01*
X121853502Y-67567614D01*
X121895001Y-67962452D01*
X121895000Y-98392721D01*
X121856091Y-98789545D01*
X121750220Y-99140206D01*
X121578257Y-99463623D01*
X121346748Y-99747482D01*
X121064514Y-99980965D01*
X120742304Y-100155184D01*
X120392385Y-100263502D01*
X119997557Y-100305000D01*
X101219000Y-100305000D01*
X101219000Y-93726000D01*
X101216560Y-93701224D01*
X101209333Y-93677399D01*
X101197597Y-93655443D01*
X101181803Y-93636197D01*
X101162557Y-93620403D01*
X101140601Y-93608667D01*
X101116776Y-93601440D01*
X101092000Y-93599000D01*
X100413142Y-93599000D01*
X100546101Y-93527932D01*
X100764608Y-93348608D01*
X100943932Y-93130101D01*
X101077182Y-92880808D01*
X101159236Y-92610309D01*
X101186943Y-92329000D01*
X101159236Y-92047691D01*
X101077182Y-91777192D01*
X100943932Y-91527899D01*
X100764608Y-91309392D01*
X100546101Y-91130068D01*
X100413142Y-91059000D01*
X100546101Y-90987932D01*
X100764608Y-90808608D01*
X100797352Y-90768709D01*
X100873738Y-90883028D01*
X101003972Y-91013262D01*
X101157111Y-91115586D01*
X101327271Y-91186068D01*
X101507911Y-91222000D01*
X101692089Y-91222000D01*
X101872729Y-91186068D01*
X102042889Y-91115586D01*
X102196028Y-91013262D01*
X102326262Y-90883028D01*
X102428586Y-90729889D01*
X102499068Y-90559729D01*
X102535000Y-90379089D01*
X102535000Y-90309801D01*
X103021649Y-89823153D01*
X103142729Y-89799068D01*
X103312889Y-89728586D01*
X103466028Y-89626262D01*
X103596262Y-89496028D01*
X103698586Y-89342889D01*
X103769068Y-89172729D01*
X103776297Y-89136386D01*
X103867271Y-89174068D01*
X103988351Y-89198153D01*
X104523001Y-89732803D01*
X104523000Y-94523928D01*
X104433000Y-94523928D01*
X104308518Y-94536188D01*
X104188820Y-94572498D01*
X104078506Y-94631463D01*
X103981815Y-94710815D01*
X103902463Y-94807506D01*
X103843498Y-94917820D01*
X103807188Y-95037518D01*
X103794928Y-95162000D01*
X103794928Y-96862000D01*
X103807188Y-96986482D01*
X103843498Y-97106180D01*
X103902463Y-97216494D01*
X103981815Y-97313185D01*
X104078506Y-97392537D01*
X104188820Y-97451502D01*
X104261380Y-97473513D01*
X104129525Y-97605368D01*
X103967010Y-97848589D01*
X103855068Y-98118842D01*
X103798000Y-98405740D01*
X103798000Y-98698260D01*
X103855068Y-98985158D01*
X103967010Y-99255411D01*
X104129525Y-99498632D01*
X104336368Y-99705475D01*
X104579589Y-99867990D01*
X104849842Y-99979932D01*
X105136740Y-100037000D01*
X105429260Y-100037000D01*
X105716158Y-99979932D01*
X105986411Y-99867990D01*
X106229632Y-99705475D01*
X106436475Y-99498632D01*
X106598990Y-99255411D01*
X106710932Y-98985158D01*
X106726102Y-98908890D01*
X108794524Y-98908890D01*
X108839175Y-99056099D01*
X108964359Y-99318920D01*
X109138412Y-99552269D01*
X109354645Y-99747178D01*
X109604748Y-99896157D01*
X109879109Y-99993481D01*
X110109000Y-99872814D01*
X110109000Y-98679000D01*
X110363000Y-98679000D01*
X110363000Y-99872814D01*
X110592891Y-99993481D01*
X110867252Y-99896157D01*
X111117355Y-99747178D01*
X111333588Y-99552269D01*
X111507641Y-99318920D01*
X111632825Y-99056099D01*
X111677476Y-98908890D01*
X111556155Y-98679000D01*
X110363000Y-98679000D01*
X110109000Y-98679000D01*
X108915845Y-98679000D01*
X108794524Y-98908890D01*
X106726102Y-98908890D01*
X106768000Y-98698260D01*
X106768000Y-98405740D01*
X106724210Y-98185592D01*
X107191003Y-97718799D01*
X107220001Y-97695001D01*
X107314974Y-97579276D01*
X107385546Y-97447247D01*
X107429003Y-97303986D01*
X107440000Y-97192333D01*
X107440000Y-97192324D01*
X107443676Y-97155001D01*
X107440000Y-97117678D01*
X107440000Y-88937322D01*
X107443676Y-88899999D01*
X107440000Y-88862676D01*
X107440000Y-88862667D01*
X107429003Y-88751014D01*
X107385546Y-88607753D01*
X107353462Y-88547729D01*
X107314974Y-88475723D01*
X107243799Y-88388997D01*
X107220001Y-88359999D01*
X107191003Y-88336201D01*
X106146179Y-87291377D01*
X106325727Y-87217005D01*
X106554535Y-87064120D01*
X106749120Y-86869535D01*
X106902005Y-86640727D01*
X106934000Y-86563485D01*
X106965995Y-86640727D01*
X107118880Y-86869535D01*
X107313465Y-87064120D01*
X107542273Y-87217005D01*
X107796510Y-87322314D01*
X108066408Y-87376000D01*
X108341592Y-87376000D01*
X108439000Y-87356624D01*
X108439001Y-95300838D01*
X108453977Y-95452895D01*
X108513160Y-95647993D01*
X108609267Y-95827797D01*
X108738605Y-95985396D01*
X108747928Y-95993047D01*
X108747928Y-96862000D01*
X108760188Y-96986482D01*
X108796498Y-97106180D01*
X108855463Y-97216494D01*
X108934815Y-97313185D01*
X109031506Y-97392537D01*
X109141820Y-97451502D01*
X109222466Y-97475966D01*
X109138412Y-97551731D01*
X108964359Y-97785080D01*
X108839175Y-98047901D01*
X108794524Y-98195110D01*
X108915845Y-98425000D01*
X110109000Y-98425000D01*
X110109000Y-98405000D01*
X110363000Y-98405000D01*
X110363000Y-98425000D01*
X111556155Y-98425000D01*
X111677476Y-98195110D01*
X111632825Y-98047901D01*
X111507641Y-97785080D01*
X111333588Y-97551731D01*
X111249534Y-97475966D01*
X111330180Y-97451502D01*
X111440494Y-97392537D01*
X111537185Y-97313185D01*
X111616537Y-97216494D01*
X111675502Y-97106180D01*
X111711812Y-96986482D01*
X111724072Y-96862000D01*
X111724072Y-96807872D01*
X116256000Y-96807872D01*
X116256000Y-97248128D01*
X116341890Y-97679925D01*
X116510369Y-98086669D01*
X116754962Y-98452729D01*
X117066271Y-98764038D01*
X117432331Y-99008631D01*
X117839075Y-99177110D01*
X118270872Y-99263000D01*
X118711128Y-99263000D01*
X119142925Y-99177110D01*
X119549669Y-99008631D01*
X119915729Y-98764038D01*
X120227038Y-98452729D01*
X120471631Y-98086669D01*
X120640110Y-97679925D01*
X120726000Y-97248128D01*
X120726000Y-96807872D01*
X120640110Y-96376075D01*
X120471631Y-95969331D01*
X120227038Y-95603271D01*
X119915729Y-95291962D01*
X119549669Y-95047369D01*
X119142925Y-94878890D01*
X118711128Y-94793000D01*
X118270872Y-94793000D01*
X117839075Y-94878890D01*
X117432331Y-95047369D01*
X117066271Y-95291962D01*
X116754962Y-95603271D01*
X116510369Y-95969331D01*
X116341890Y-96376075D01*
X116256000Y-96807872D01*
X111724072Y-96807872D01*
X111724072Y-95162000D01*
X111711812Y-95037518D01*
X111675502Y-94917820D01*
X111616537Y-94807506D01*
X111537185Y-94710815D01*
X111440494Y-94631463D01*
X111330180Y-94572498D01*
X111210482Y-94536188D01*
X111086000Y-94523928D01*
X110509000Y-94523928D01*
X110509000Y-87356624D01*
X110606408Y-87376000D01*
X110881592Y-87376000D01*
X111151490Y-87322314D01*
X111405727Y-87217005D01*
X111634535Y-87064120D01*
X111829120Y-86869535D01*
X111982005Y-86640727D01*
X112014000Y-86563485D01*
X112045995Y-86640727D01*
X112198880Y-86869535D01*
X112393465Y-87064120D01*
X112622273Y-87217005D01*
X112876510Y-87322314D01*
X113146408Y-87376000D01*
X113421592Y-87376000D01*
X113691490Y-87322314D01*
X113945727Y-87217005D01*
X114174535Y-87064120D01*
X114369120Y-86869535D01*
X114522005Y-86640727D01*
X114554000Y-86563485D01*
X114585995Y-86640727D01*
X114738880Y-86869535D01*
X114933465Y-87064120D01*
X115162273Y-87217005D01*
X115416510Y-87322314D01*
X115686408Y-87376000D01*
X115961592Y-87376000D01*
X116231490Y-87322314D01*
X116485727Y-87217005D01*
X116714535Y-87064120D01*
X116909120Y-86869535D01*
X117062005Y-86640727D01*
X117094000Y-86563485D01*
X117125995Y-86640727D01*
X117278880Y-86869535D01*
X117473465Y-87064120D01*
X117702273Y-87217005D01*
X117956510Y-87322314D01*
X118226408Y-87376000D01*
X118501592Y-87376000D01*
X118771490Y-87322314D01*
X119025727Y-87217005D01*
X119254535Y-87064120D01*
X119449120Y-86869535D01*
X119602005Y-86640727D01*
X119707314Y-86386490D01*
X119761000Y-86116592D01*
X119761000Y-85841408D01*
X119707314Y-85571510D01*
X119602005Y-85317273D01*
X119449120Y-85088465D01*
X119254535Y-84893880D01*
X119025727Y-84740995D01*
X118771490Y-84635686D01*
X118501592Y-84582000D01*
X118226408Y-84582000D01*
X118072429Y-84612628D01*
X117840803Y-84381001D01*
X117817000Y-84351998D01*
X117701275Y-84257025D01*
X117569246Y-84186453D01*
X117425985Y-84142996D01*
X117314332Y-84131999D01*
X117314321Y-84131999D01*
X117276999Y-84128323D01*
X117239677Y-84131999D01*
X112384801Y-84131999D01*
X105454498Y-77201696D01*
X105526408Y-77216000D01*
X105801592Y-77216000D01*
X106071490Y-77162314D01*
X106325727Y-77057005D01*
X106554535Y-76904120D01*
X106749120Y-76709535D01*
X106902005Y-76480727D01*
X106934000Y-76403485D01*
X106965995Y-76480727D01*
X107118880Y-76709535D01*
X107313465Y-76904120D01*
X107542273Y-77057005D01*
X107796510Y-77162314D01*
X108066408Y-77216000D01*
X108341592Y-77216000D01*
X108611490Y-77162314D01*
X108865727Y-77057005D01*
X109094535Y-76904120D01*
X109289120Y-76709535D01*
X109442005Y-76480727D01*
X109474000Y-76403485D01*
X109505995Y-76480727D01*
X109658880Y-76709535D01*
X109853465Y-76904120D01*
X110082273Y-77057005D01*
X110336510Y-77162314D01*
X110606408Y-77216000D01*
X110881592Y-77216000D01*
X111151490Y-77162314D01*
X111405727Y-77057005D01*
X111634535Y-76904120D01*
X111829120Y-76709535D01*
X111982005Y-76480727D01*
X112014000Y-76403485D01*
X112045995Y-76480727D01*
X112198880Y-76709535D01*
X112393465Y-76904120D01*
X112622273Y-77057005D01*
X112876510Y-77162314D01*
X113146408Y-77216000D01*
X113421592Y-77216000D01*
X113691490Y-77162314D01*
X113945727Y-77057005D01*
X114174535Y-76904120D01*
X114369120Y-76709535D01*
X114522005Y-76480727D01*
X114554000Y-76403485D01*
X114585995Y-76480727D01*
X114738880Y-76709535D01*
X114933465Y-76904120D01*
X115162273Y-77057005D01*
X115416510Y-77162314D01*
X115686408Y-77216000D01*
X115961592Y-77216000D01*
X116231490Y-77162314D01*
X116485727Y-77057005D01*
X116714535Y-76904120D01*
X116909120Y-76709535D01*
X117062005Y-76480727D01*
X117094000Y-76403485D01*
X117125995Y-76480727D01*
X117278880Y-76709535D01*
X117473465Y-76904120D01*
X117702273Y-77057005D01*
X117956510Y-77162314D01*
X118226408Y-77216000D01*
X118501592Y-77216000D01*
X118771490Y-77162314D01*
X119025727Y-77057005D01*
X119254535Y-76904120D01*
X119449120Y-76709535D01*
X119602005Y-76480727D01*
X119707314Y-76226490D01*
X119761000Y-75956592D01*
X119761000Y-75681408D01*
X119707314Y-75411510D01*
X119602005Y-75157273D01*
X119449120Y-74928465D01*
X119254535Y-74733880D01*
X119025727Y-74580995D01*
X118771490Y-74475686D01*
X118501592Y-74422000D01*
X118226408Y-74422000D01*
X117956510Y-74475686D01*
X117702273Y-74580995D01*
X117473465Y-74733880D01*
X117278880Y-74928465D01*
X117125995Y-75157273D01*
X117094000Y-75234515D01*
X117062005Y-75157273D01*
X116909120Y-74928465D01*
X116714535Y-74733880D01*
X116485727Y-74580995D01*
X116231490Y-74475686D01*
X115961592Y-74422000D01*
X115686408Y-74422000D01*
X115416510Y-74475686D01*
X115162273Y-74580995D01*
X114933465Y-74733880D01*
X114738880Y-74928465D01*
X114585995Y-75157273D01*
X114554000Y-75234515D01*
X114522005Y-75157273D01*
X114369120Y-74928465D01*
X114174535Y-74733880D01*
X113945727Y-74580995D01*
X113691490Y-74475686D01*
X113421592Y-74422000D01*
X113146408Y-74422000D01*
X112876510Y-74475686D01*
X112622273Y-74580995D01*
X112393465Y-74733880D01*
X112198880Y-74928465D01*
X112045995Y-75157273D01*
X112014000Y-75234515D01*
X111982005Y-75157273D01*
X111829120Y-74928465D01*
X111634535Y-74733880D01*
X111405727Y-74580995D01*
X111151490Y-74475686D01*
X110881592Y-74422000D01*
X110606408Y-74422000D01*
X110336510Y-74475686D01*
X110082273Y-74580995D01*
X109853465Y-74733880D01*
X109658880Y-74928465D01*
X109505995Y-75157273D01*
X109474000Y-75234515D01*
X109442005Y-75157273D01*
X109289120Y-74928465D01*
X109094535Y-74733880D01*
X108865727Y-74580995D01*
X108611490Y-74475686D01*
X108341592Y-74422000D01*
X108066408Y-74422000D01*
X107796510Y-74475686D01*
X107542273Y-74580995D01*
X107313465Y-74733880D01*
X107118880Y-74928465D01*
X106965995Y-75157273D01*
X106934000Y-75234515D01*
X106902005Y-75157273D01*
X106749120Y-74928465D01*
X106554535Y-74733880D01*
X106325727Y-74580995D01*
X106071490Y-74475686D01*
X105801592Y-74422000D01*
X105526408Y-74422000D01*
X105256510Y-74475686D01*
X105002273Y-74580995D01*
X104773465Y-74733880D01*
X104578880Y-74928465D01*
X104425995Y-75157273D01*
X104320686Y-75411510D01*
X104267000Y-75681408D01*
X104267000Y-75956592D01*
X104281304Y-76028503D01*
X99534712Y-71281911D01*
X101681000Y-71281911D01*
X101681000Y-71466089D01*
X101716932Y-71646729D01*
X101787414Y-71816889D01*
X101889738Y-71970028D01*
X102019972Y-72100262D01*
X102173111Y-72202586D01*
X102343271Y-72273068D01*
X102523911Y-72309000D01*
X102708089Y-72309000D01*
X102864032Y-72277981D01*
X102885095Y-72317387D01*
X102995538Y-72451962D01*
X103130113Y-72562405D01*
X103283649Y-72644472D01*
X103450245Y-72695008D01*
X103623499Y-72712072D01*
X104148501Y-72712072D01*
X104321755Y-72695008D01*
X104488351Y-72644472D01*
X104641887Y-72562405D01*
X104776462Y-72451962D01*
X104798500Y-72425109D01*
X104820538Y-72451962D01*
X104955113Y-72562405D01*
X105108649Y-72644472D01*
X105275245Y-72695008D01*
X105448499Y-72712072D01*
X105973501Y-72712072D01*
X106146755Y-72695008D01*
X106313351Y-72644472D01*
X106466887Y-72562405D01*
X106601462Y-72451962D01*
X106711905Y-72317387D01*
X106793972Y-72163851D01*
X106844508Y-71997255D01*
X106861572Y-71824001D01*
X106861572Y-71298229D01*
X107295802Y-70864000D01*
X108643687Y-70864000D01*
X108789688Y-71082505D01*
X109003495Y-71296312D01*
X109254905Y-71464299D01*
X109534257Y-71580011D01*
X109830816Y-71639000D01*
X110133184Y-71639000D01*
X110429743Y-71580011D01*
X110709095Y-71464299D01*
X110960505Y-71296312D01*
X111026944Y-71229873D01*
X111032498Y-71248180D01*
X111091463Y-71358494D01*
X111170815Y-71455185D01*
X111267506Y-71534537D01*
X111377820Y-71593502D01*
X111497518Y-71629812D01*
X111622000Y-71642072D01*
X112236250Y-71639000D01*
X112395000Y-71480250D01*
X112395000Y-70231000D01*
X112649000Y-70231000D01*
X112649000Y-71480250D01*
X112807750Y-71639000D01*
X113422000Y-71642072D01*
X113546482Y-71629812D01*
X113666180Y-71593502D01*
X113776494Y-71534537D01*
X113873185Y-71455185D01*
X113952537Y-71358494D01*
X114011502Y-71248180D01*
X114047812Y-71128482D01*
X114060072Y-71004000D01*
X114057000Y-70389750D01*
X113898250Y-70231000D01*
X112649000Y-70231000D01*
X112395000Y-70231000D01*
X112375000Y-70231000D01*
X112375000Y-69977000D01*
X112395000Y-69977000D01*
X112395000Y-68727750D01*
X112649000Y-68727750D01*
X112649000Y-69977000D01*
X113898250Y-69977000D01*
X114057000Y-69818250D01*
X114059847Y-69248872D01*
X116256000Y-69248872D01*
X116256000Y-69689128D01*
X116341890Y-70120925D01*
X116510369Y-70527669D01*
X116754962Y-70893729D01*
X117066271Y-71205038D01*
X117432331Y-71449631D01*
X117839075Y-71618110D01*
X118270872Y-71704000D01*
X118711128Y-71704000D01*
X119142925Y-71618110D01*
X119549669Y-71449631D01*
X119915729Y-71205038D01*
X120227038Y-70893729D01*
X120471631Y-70527669D01*
X120640110Y-70120925D01*
X120726000Y-69689128D01*
X120726000Y-69248872D01*
X120640110Y-68817075D01*
X120471631Y-68410331D01*
X120227038Y-68044271D01*
X119915729Y-67732962D01*
X119549669Y-67488369D01*
X119142925Y-67319890D01*
X118711128Y-67234000D01*
X118270872Y-67234000D01*
X117839075Y-67319890D01*
X117432331Y-67488369D01*
X117066271Y-67732962D01*
X116754962Y-68044271D01*
X116510369Y-68410331D01*
X116341890Y-68817075D01*
X116256000Y-69248872D01*
X114059847Y-69248872D01*
X114060072Y-69204000D01*
X114047812Y-69079518D01*
X114011502Y-68959820D01*
X113952537Y-68849506D01*
X113873185Y-68752815D01*
X113776494Y-68673463D01*
X113666180Y-68614498D01*
X113546482Y-68578188D01*
X113422000Y-68565928D01*
X112807750Y-68569000D01*
X112649000Y-68727750D01*
X112395000Y-68727750D01*
X112236250Y-68569000D01*
X111622000Y-68565928D01*
X111497518Y-68578188D01*
X111377820Y-68614498D01*
X111267506Y-68673463D01*
X111170815Y-68752815D01*
X111091463Y-68849506D01*
X111032498Y-68959820D01*
X111026944Y-68978127D01*
X110960505Y-68911688D01*
X110709095Y-68743701D01*
X110429743Y-68627989D01*
X110133184Y-68569000D01*
X109830816Y-68569000D01*
X109534257Y-68627989D01*
X109254905Y-68743701D01*
X109003495Y-68911688D01*
X108789688Y-69125495D01*
X108643687Y-69344000D01*
X107018322Y-69344000D01*
X106980999Y-69340324D01*
X106943676Y-69344000D01*
X106943667Y-69344000D01*
X106832014Y-69354997D01*
X106688753Y-69398454D01*
X106556724Y-69469026D01*
X106440999Y-69563999D01*
X106417201Y-69592997D01*
X105974201Y-70035997D01*
X105973501Y-70035928D01*
X105448499Y-70035928D01*
X105275245Y-70052992D01*
X105108649Y-70103528D01*
X104955113Y-70185595D01*
X104820538Y-70296038D01*
X104798500Y-70322891D01*
X104776462Y-70296038D01*
X104641887Y-70185595D01*
X104488351Y-70103528D01*
X104321755Y-70052992D01*
X104148501Y-70035928D01*
X103623499Y-70035928D01*
X103450245Y-70052992D01*
X103283649Y-70103528D01*
X103130113Y-70185595D01*
X102995538Y-70296038D01*
X102885095Y-70430613D01*
X102864032Y-70470019D01*
X102708089Y-70439000D01*
X102523911Y-70439000D01*
X102343271Y-70474932D01*
X102173111Y-70545414D01*
X102019972Y-70647738D01*
X101889738Y-70777972D01*
X101787414Y-70931111D01*
X101716932Y-71101271D01*
X101681000Y-71281911D01*
X99534712Y-71281911D01*
X99369804Y-71117003D01*
X99346001Y-71087999D01*
X99230276Y-70993026D01*
X99098247Y-70922454D01*
X98954986Y-70878997D01*
X98843333Y-70868000D01*
X98843322Y-70868000D01*
X98806000Y-70864324D01*
X98768678Y-70868000D01*
X94224673Y-70868000D01*
X94187348Y-70864324D01*
X94150023Y-70868000D01*
X94150015Y-70868000D01*
X94038362Y-70878997D01*
X93895101Y-70922454D01*
X93763072Y-70993026D01*
X93647347Y-71087999D01*
X93623549Y-71116997D01*
X91123534Y-73617012D01*
X91133929Y-73582745D01*
X91149072Y-73429000D01*
X91149072Y-73129000D01*
X91133929Y-72975255D01*
X91089084Y-72827418D01*
X91016258Y-72691171D01*
X90977546Y-72644000D01*
X91016258Y-72596829D01*
X91089084Y-72460582D01*
X91133929Y-72312745D01*
X91149072Y-72159000D01*
X91149072Y-71859000D01*
X91133929Y-71705255D01*
X91089084Y-71557418D01*
X91016258Y-71421171D01*
X90977546Y-71374000D01*
X91016258Y-71326829D01*
X91089084Y-71190582D01*
X91133929Y-71042745D01*
X91149072Y-70889000D01*
X91149072Y-70589000D01*
X91133929Y-70435255D01*
X91089084Y-70287418D01*
X91016258Y-70151171D01*
X90977546Y-70104000D01*
X91016258Y-70056829D01*
X91089084Y-69920582D01*
X91133929Y-69772745D01*
X91149072Y-69619000D01*
X91149072Y-69319000D01*
X91133929Y-69165255D01*
X91089084Y-69017418D01*
X91016258Y-68881171D01*
X90977546Y-68834000D01*
X91016258Y-68786829D01*
X91089084Y-68650582D01*
X91133929Y-68502745D01*
X91149072Y-68349000D01*
X91149072Y-68049000D01*
X91133929Y-67895255D01*
X91089084Y-67747418D01*
X91016258Y-67611171D01*
X90918251Y-67491749D01*
X90798829Y-67393742D01*
X90662582Y-67320916D01*
X90514745Y-67276071D01*
X90361000Y-67260928D01*
X88611000Y-67260928D01*
X88457255Y-67276071D01*
X88309418Y-67320916D01*
X88173171Y-67393742D01*
X88053749Y-67491749D01*
X87955742Y-67611171D01*
X87882916Y-67747418D01*
X87838071Y-67895255D01*
X87822928Y-68049000D01*
X87822928Y-68349000D01*
X87838071Y-68502745D01*
X87882916Y-68650582D01*
X87955742Y-68786829D01*
X87994454Y-68834000D01*
X87955742Y-68881171D01*
X87882916Y-69017418D01*
X87838071Y-69165255D01*
X87822928Y-69319000D01*
X87822928Y-69619000D01*
X87838071Y-69772745D01*
X87882916Y-69920582D01*
X87911410Y-69973891D01*
X87785247Y-69906454D01*
X87641986Y-69862997D01*
X87530333Y-69852000D01*
X87530322Y-69852000D01*
X87493000Y-69848324D01*
X87455678Y-69852000D01*
X83349325Y-69852000D01*
X83312000Y-69848324D01*
X83274675Y-69852000D01*
X83274667Y-69852000D01*
X83163014Y-69862997D01*
X83019753Y-69906454D01*
X82887724Y-69977026D01*
X82771999Y-70071999D01*
X82748201Y-70100998D01*
X82038998Y-70810201D01*
X82010000Y-70833999D01*
X81986202Y-70862997D01*
X81986201Y-70862998D01*
X81915026Y-70949724D01*
X81844454Y-71081754D01*
X81828021Y-71135928D01*
X81800998Y-71225014D01*
X81790000Y-71336667D01*
X81790000Y-71336678D01*
X81786324Y-71374000D01*
X81790000Y-71411322D01*
X81790000Y-71560438D01*
X81789084Y-71557418D01*
X81716258Y-71421171D01*
X81677546Y-71374000D01*
X81716258Y-71326829D01*
X81789084Y-71190582D01*
X81833929Y-71042745D01*
X81849072Y-70889000D01*
X81849072Y-70589000D01*
X81833929Y-70435255D01*
X81789084Y-70287418D01*
X81716258Y-70151171D01*
X81677546Y-70104000D01*
X81716258Y-70056829D01*
X81789084Y-69920582D01*
X81833929Y-69772745D01*
X81849072Y-69619000D01*
X81849072Y-69319000D01*
X81833929Y-69165255D01*
X81789084Y-69017418D01*
X81716258Y-68881171D01*
X81677546Y-68834000D01*
X81716258Y-68786829D01*
X81789084Y-68650582D01*
X81833929Y-68502745D01*
X81849072Y-68349000D01*
X81849072Y-68049000D01*
X81833929Y-67895255D01*
X81789084Y-67747418D01*
X81716258Y-67611171D01*
X81618251Y-67491749D01*
X81498829Y-67393742D01*
X81362582Y-67320916D01*
X81214745Y-67276071D01*
X81061000Y-67260928D01*
X79311000Y-67260928D01*
X79157255Y-67276071D01*
X79009418Y-67320916D01*
X78873171Y-67393742D01*
X78753749Y-67491749D01*
X78655742Y-67611171D01*
X78582916Y-67747418D01*
X78538071Y-67895255D01*
X78522928Y-68049000D01*
X78522928Y-68349000D01*
X78538071Y-68502745D01*
X78582916Y-68650582D01*
X78655742Y-68786829D01*
X78694454Y-68834000D01*
X78655742Y-68881171D01*
X78582916Y-69017418D01*
X78538071Y-69165255D01*
X78522928Y-69319000D01*
X78522928Y-69619000D01*
X78538071Y-69772745D01*
X78582916Y-69920582D01*
X78655742Y-70056829D01*
X78694454Y-70104000D01*
X78655742Y-70151171D01*
X78582916Y-70287418D01*
X78538071Y-70435255D01*
X78522928Y-70589000D01*
X78522928Y-70889000D01*
X78538071Y-71042745D01*
X78582916Y-71190582D01*
X78655742Y-71326829D01*
X78694454Y-71374000D01*
X78655742Y-71421171D01*
X78582916Y-71557418D01*
X78538071Y-71705255D01*
X78522928Y-71859000D01*
X78522928Y-72159000D01*
X78538071Y-72312745D01*
X78582916Y-72460582D01*
X78655742Y-72596829D01*
X78694454Y-72644000D01*
X78655742Y-72691171D01*
X78582916Y-72827418D01*
X78538071Y-72975255D01*
X78522928Y-73129000D01*
X78522928Y-73429000D01*
X78538071Y-73582745D01*
X78582916Y-73730582D01*
X78654730Y-73864936D01*
X78630463Y-73894506D01*
X78571498Y-74004820D01*
X78535188Y-74124518D01*
X78522928Y-74249000D01*
X78526000Y-74263250D01*
X78684750Y-74422000D01*
X80059000Y-74422000D01*
X80059000Y-74402000D01*
X80313000Y-74402000D01*
X80313000Y-74422000D01*
X81687250Y-74422000D01*
X81846000Y-74263250D01*
X81849072Y-74249000D01*
X81836812Y-74124518D01*
X81800502Y-74004820D01*
X81741537Y-73894506D01*
X81717270Y-73864936D01*
X81789084Y-73730582D01*
X81833929Y-73582745D01*
X81849072Y-73429000D01*
X81849072Y-73129000D01*
X81833929Y-72975255D01*
X81789084Y-72827418D01*
X81716258Y-72691171D01*
X81677546Y-72644000D01*
X81692416Y-72625881D01*
X81721414Y-72695889D01*
X81823738Y-72849028D01*
X81953972Y-72979262D01*
X82107111Y-73081586D01*
X82277271Y-73152068D01*
X82457911Y-73188000D01*
X82642089Y-73188000D01*
X82822729Y-73152068D01*
X82992889Y-73081586D01*
X83146028Y-72979262D01*
X83276262Y-72849028D01*
X83378586Y-72695889D01*
X83449068Y-72525729D01*
X83485000Y-72345089D01*
X83485000Y-72160911D01*
X83449068Y-71980271D01*
X83378586Y-71810111D01*
X83310000Y-71707465D01*
X83310000Y-71688801D01*
X83626802Y-71372000D01*
X83763379Y-71372000D01*
X83693026Y-71457724D01*
X83622454Y-71589754D01*
X83594121Y-71683159D01*
X83578998Y-71733014D01*
X83568001Y-71844667D01*
X83564324Y-71882000D01*
X83568001Y-71919333D01*
X83568000Y-82181198D01*
X81774804Y-80388003D01*
X81751001Y-80358999D01*
X81734650Y-80345580D01*
X81716258Y-80311171D01*
X81677546Y-80264000D01*
X81716258Y-80216829D01*
X81789084Y-80080582D01*
X81833929Y-79932745D01*
X81849072Y-79779000D01*
X81849072Y-79479000D01*
X81833929Y-79325255D01*
X81789084Y-79177418D01*
X81716258Y-79041171D01*
X81696659Y-79017289D01*
X81740278Y-78993974D01*
X81856003Y-78899001D01*
X81879806Y-78869997D01*
X83061003Y-77688801D01*
X83090001Y-77665003D01*
X83184974Y-77549278D01*
X83255546Y-77417249D01*
X83299003Y-77273988D01*
X83310000Y-77162335D01*
X83310000Y-77162327D01*
X83313676Y-77125002D01*
X83310000Y-77087677D01*
X83310000Y-75729535D01*
X83378586Y-75626889D01*
X83449068Y-75456729D01*
X83485000Y-75276089D01*
X83485000Y-75091911D01*
X83449068Y-74911271D01*
X83378586Y-74741111D01*
X83276262Y-74587972D01*
X83146028Y-74457738D01*
X82992889Y-74355414D01*
X82822729Y-74284932D01*
X82642089Y-74249000D01*
X82457911Y-74249000D01*
X82277271Y-74284932D01*
X82107111Y-74355414D01*
X81953972Y-74457738D01*
X81823738Y-74587972D01*
X81733810Y-74722560D01*
X81687250Y-74676000D01*
X80313000Y-74676000D01*
X80313000Y-74696000D01*
X80059000Y-74696000D01*
X80059000Y-74676000D01*
X78684750Y-74676000D01*
X78526000Y-74834750D01*
X78522928Y-74849000D01*
X78535188Y-74973482D01*
X78571498Y-75093180D01*
X78630463Y-75203494D01*
X78654730Y-75233064D01*
X78582916Y-75367418D01*
X78538071Y-75515255D01*
X78522928Y-75669000D01*
X78522928Y-75969000D01*
X78538071Y-76122745D01*
X78582916Y-76270582D01*
X78655742Y-76406829D01*
X78694454Y-76454000D01*
X78655742Y-76501171D01*
X78582916Y-76637418D01*
X78538071Y-76785255D01*
X78522928Y-76939000D01*
X78522928Y-77239000D01*
X78538071Y-77392745D01*
X78582916Y-77540582D01*
X78614141Y-77599000D01*
X78229864Y-77599000D01*
X78299236Y-77370309D01*
X78326943Y-77089000D01*
X78299236Y-76807691D01*
X78217182Y-76537192D01*
X78083932Y-76287899D01*
X77904608Y-76069392D01*
X77686101Y-75890068D01*
X77553142Y-75819000D01*
X77686101Y-75747932D01*
X77904608Y-75568608D01*
X78083932Y-75350101D01*
X78217182Y-75100808D01*
X78299236Y-74830309D01*
X78326943Y-74549000D01*
X78299236Y-74267691D01*
X78217182Y-73997192D01*
X78083932Y-73747899D01*
X77904608Y-73529392D01*
X77686101Y-73350068D01*
X77468000Y-73233490D01*
X77468000Y-71411535D01*
X77536586Y-71308889D01*
X77607068Y-71138729D01*
X77643000Y-70958089D01*
X77643000Y-70773911D01*
X77607068Y-70593271D01*
X77536586Y-70423111D01*
X77434262Y-70269972D01*
X77304028Y-70139738D01*
X77150889Y-70037414D01*
X76980729Y-69966932D01*
X76800089Y-69931000D01*
X76615911Y-69931000D01*
X76435271Y-69966932D01*
X76265111Y-70037414D01*
X76111972Y-70139738D01*
X75981738Y-70269972D01*
X75879414Y-70423111D01*
X75808932Y-70593271D01*
X75773000Y-70773911D01*
X75773000Y-70958089D01*
X75808932Y-71138729D01*
X75879414Y-71308889D01*
X75948000Y-71411536D01*
X75948001Y-73212326D01*
X75933192Y-73216818D01*
X75683899Y-73350068D01*
X75465392Y-73529392D01*
X75286068Y-73747899D01*
X75152818Y-73997192D01*
X75070764Y-74267691D01*
X75043057Y-74549000D01*
X75070764Y-74830309D01*
X75152818Y-75100808D01*
X75286068Y-75350101D01*
X75465392Y-75568608D01*
X75683899Y-75747932D01*
X75816858Y-75819000D01*
X75683899Y-75890068D01*
X75465392Y-76069392D01*
X75286068Y-76287899D01*
X75152818Y-76537192D01*
X75070764Y-76807691D01*
X75051384Y-77004453D01*
X74948729Y-76961932D01*
X74800282Y-76932404D01*
X74742586Y-76793111D01*
X74640262Y-76639972D01*
X74510028Y-76509738D01*
X74356889Y-76407414D01*
X74186729Y-76336932D01*
X74006089Y-76301000D01*
X73912000Y-76301000D01*
X73912000Y-76237535D01*
X73980586Y-76134889D01*
X74051068Y-75964729D01*
X74087000Y-75784089D01*
X74087000Y-75599911D01*
X74051068Y-75419271D01*
X73980586Y-75249111D01*
X73878262Y-75095972D01*
X73748028Y-74965738D01*
X73594889Y-74863414D01*
X73424729Y-74792932D01*
X73286999Y-74765535D01*
X73286999Y-73466802D01*
X73303649Y-73450153D01*
X73424729Y-73426068D01*
X73594889Y-73355586D01*
X73748028Y-73253262D01*
X73878262Y-73123028D01*
X73980586Y-72969889D01*
X74051068Y-72799729D01*
X74087000Y-72619089D01*
X74087000Y-72434911D01*
X74051068Y-72254271D01*
X73980586Y-72084111D01*
X73878262Y-71930972D01*
X73748028Y-71800738D01*
X73594889Y-71698414D01*
X73424729Y-71627932D01*
X73244089Y-71592000D01*
X73059911Y-71592000D01*
X72879271Y-71627932D01*
X72709111Y-71698414D01*
X72555972Y-71800738D01*
X72425738Y-71930972D01*
X72323414Y-72084111D01*
X72252932Y-72254271D01*
X72228847Y-72375351D01*
X72016001Y-72588198D01*
X71986998Y-72612000D01*
X71946133Y-72661795D01*
X71892025Y-72727725D01*
X71875841Y-72758003D01*
X71821453Y-72859755D01*
X71777996Y-73003016D01*
X71766999Y-73114669D01*
X71766999Y-73114679D01*
X71763323Y-73152001D01*
X71766999Y-73189324D01*
X71766999Y-73210510D01*
X71675898Y-73172774D01*
X71475939Y-73133000D01*
X71272061Y-73133000D01*
X71072102Y-73172774D01*
X70883744Y-73250795D01*
X70714226Y-73364063D01*
X70615656Y-73462633D01*
X70483961Y-73533026D01*
X70431260Y-73576277D01*
X70368237Y-73627999D01*
X70344439Y-73656997D01*
X69267997Y-74733440D01*
X69239490Y-74756835D01*
X69216535Y-74733880D01*
X68987727Y-74580995D01*
X68733490Y-74475686D01*
X68463592Y-74422000D01*
X68188408Y-74422000D01*
X67918510Y-74475686D01*
X67664273Y-74580995D01*
X67435465Y-74733880D01*
X67240880Y-74928465D01*
X67087995Y-75157273D01*
X67056000Y-75234515D01*
X67024005Y-75157273D01*
X66871120Y-74928465D01*
X66676535Y-74733880D01*
X66447727Y-74580995D01*
X66193490Y-74475686D01*
X65923592Y-74422000D01*
X65648408Y-74422000D01*
X65378510Y-74475686D01*
X65276000Y-74518147D01*
X65276000Y-70903535D01*
X65344586Y-70800889D01*
X65357977Y-70768560D01*
X66046045Y-70768560D01*
X66107932Y-71004368D01*
X66349790Y-71117266D01*
X66609027Y-71180811D01*
X66875680Y-71192561D01*
X67139501Y-71152063D01*
X67390353Y-71060875D01*
X67496068Y-71004368D01*
X67557955Y-70768560D01*
X66802000Y-70012605D01*
X66046045Y-70768560D01*
X65357977Y-70768560D01*
X65415068Y-70630729D01*
X65451000Y-70450089D01*
X65451000Y-70265911D01*
X65415068Y-70085271D01*
X65344586Y-69915111D01*
X65338953Y-69906680D01*
X65442439Y-69906680D01*
X65482937Y-70170501D01*
X65574125Y-70421353D01*
X65630632Y-70527068D01*
X65866440Y-70588955D01*
X66622395Y-69833000D01*
X66981605Y-69833000D01*
X67737560Y-70588955D01*
X67973368Y-70527068D01*
X68073764Y-70311993D01*
X68141215Y-70474833D01*
X68289503Y-70696762D01*
X68478238Y-70885497D01*
X68700167Y-71033785D01*
X68946761Y-71135928D01*
X69208544Y-71188000D01*
X69475456Y-71188000D01*
X69737239Y-71135928D01*
X69983833Y-71033785D01*
X70205762Y-70885497D01*
X70394497Y-70696762D01*
X70542785Y-70474833D01*
X70612000Y-70307734D01*
X70681215Y-70474833D01*
X70829503Y-70696762D01*
X71018238Y-70885497D01*
X71240167Y-71033785D01*
X71486761Y-71135928D01*
X71748544Y-71188000D01*
X72015456Y-71188000D01*
X72277239Y-71135928D01*
X72523833Y-71033785D01*
X72745762Y-70885497D01*
X72934497Y-70696762D01*
X73082785Y-70474833D01*
X73184928Y-70228239D01*
X73237000Y-69966456D01*
X73237000Y-69699544D01*
X73184928Y-69437761D01*
X73082785Y-69191167D01*
X72934497Y-68969238D01*
X72745762Y-68780503D01*
X72523833Y-68632215D01*
X72277239Y-68530072D01*
X72015456Y-68478000D01*
X71748544Y-68478000D01*
X71486761Y-68530072D01*
X71240167Y-68632215D01*
X71018238Y-68780503D01*
X70829503Y-68969238D01*
X70681215Y-69191167D01*
X70612000Y-69358266D01*
X70542785Y-69191167D01*
X70394497Y-68969238D01*
X70205762Y-68780503D01*
X69983833Y-68632215D01*
X69737239Y-68530072D01*
X69475456Y-68478000D01*
X69208544Y-68478000D01*
X68946761Y-68530072D01*
X68700167Y-68632215D01*
X68478238Y-68780503D01*
X68289503Y-68969238D01*
X68141215Y-69191167D01*
X68071562Y-69359324D01*
X68029875Y-69244647D01*
X67973368Y-69138932D01*
X67737560Y-69077045D01*
X66981605Y-69833000D01*
X66622395Y-69833000D01*
X65866440Y-69077045D01*
X65630632Y-69138932D01*
X65517734Y-69380790D01*
X65454189Y-69640027D01*
X65442439Y-69906680D01*
X65338953Y-69906680D01*
X65242262Y-69761972D01*
X65112028Y-69631738D01*
X64958889Y-69529414D01*
X64788729Y-69458932D01*
X64608089Y-69423000D01*
X64423911Y-69423000D01*
X64243271Y-69458932D01*
X64073111Y-69529414D01*
X63919972Y-69631738D01*
X63789738Y-69761972D01*
X63687414Y-69915111D01*
X63616932Y-70085271D01*
X63581000Y-70265911D01*
X63581000Y-70450089D01*
X63616932Y-70630729D01*
X63687414Y-70800889D01*
X63756000Y-70903536D01*
X63756001Y-74518148D01*
X63653490Y-74475686D01*
X63383592Y-74422000D01*
X63108408Y-74422000D01*
X62838510Y-74475686D01*
X62584273Y-74580995D01*
X62355465Y-74733880D01*
X62160880Y-74928465D01*
X62007995Y-75157273D01*
X61976000Y-75234515D01*
X61944005Y-75157273D01*
X61791120Y-74928465D01*
X61596535Y-74733880D01*
X61367727Y-74580995D01*
X61113490Y-74475686D01*
X60843592Y-74422000D01*
X60568408Y-74422000D01*
X60298510Y-74475686D01*
X60044273Y-74580995D01*
X59815465Y-74733880D01*
X59620880Y-74928465D01*
X59467995Y-75157273D01*
X59436000Y-75234515D01*
X59404005Y-75157273D01*
X59251120Y-74928465D01*
X59056535Y-74733880D01*
X58827727Y-74580995D01*
X58573490Y-74475686D01*
X58303592Y-74422000D01*
X58028408Y-74422000D01*
X57758510Y-74475686D01*
X57504273Y-74580995D01*
X57275465Y-74733880D01*
X57080880Y-74928465D01*
X56927995Y-75157273D01*
X56822686Y-75411510D01*
X56769000Y-75681408D01*
X56769000Y-75956592D01*
X56822686Y-76226490D01*
X56927995Y-76480727D01*
X57080880Y-76709535D01*
X57275465Y-76904120D01*
X57504273Y-77057005D01*
X57758510Y-77162314D01*
X58028408Y-77216000D01*
X58303592Y-77216000D01*
X58573490Y-77162314D01*
X58827727Y-77057005D01*
X59056535Y-76904120D01*
X59251120Y-76709535D01*
X59404005Y-76480727D01*
X59436000Y-76403485D01*
X59467995Y-76480727D01*
X59620880Y-76709535D01*
X59815465Y-76904120D01*
X60044273Y-77057005D01*
X60298510Y-77162314D01*
X60568408Y-77216000D01*
X60843592Y-77216000D01*
X61113490Y-77162314D01*
X61367727Y-77057005D01*
X61596535Y-76904120D01*
X61791120Y-76709535D01*
X61944005Y-76480727D01*
X61976000Y-76403485D01*
X62007995Y-76480727D01*
X62160880Y-76709535D01*
X62355465Y-76904120D01*
X62584273Y-77057005D01*
X62838510Y-77162314D01*
X63108408Y-77216000D01*
X63383592Y-77216000D01*
X63653490Y-77162314D01*
X63756000Y-77119853D01*
X63756001Y-84678148D01*
X63653490Y-84635686D01*
X63383592Y-84582000D01*
X63108408Y-84582000D01*
X62838510Y-84635686D01*
X62584273Y-84740995D01*
X62355465Y-84893880D01*
X62160880Y-85088465D01*
X62007995Y-85317273D01*
X61976000Y-85394515D01*
X61944005Y-85317273D01*
X61791120Y-85088465D01*
X61596535Y-84893880D01*
X61367727Y-84740995D01*
X61113490Y-84635686D01*
X60843592Y-84582000D01*
X60568408Y-84582000D01*
X60298510Y-84635686D01*
X60044273Y-84740995D01*
X59815465Y-84893880D01*
X59620880Y-85088465D01*
X59467995Y-85317273D01*
X59436000Y-85394515D01*
X59404005Y-85317273D01*
X59251120Y-85088465D01*
X59056535Y-84893880D01*
X58827727Y-84740995D01*
X58573490Y-84635686D01*
X58303592Y-84582000D01*
X58028408Y-84582000D01*
X57758510Y-84635686D01*
X57504273Y-84740995D01*
X57275465Y-84893880D01*
X57080880Y-85088465D01*
X56927995Y-85317273D01*
X56822686Y-85571510D01*
X56769000Y-85841408D01*
X56769000Y-86116592D01*
X56822686Y-86386490D01*
X56927995Y-86640727D01*
X57080880Y-86869535D01*
X57275465Y-87064120D01*
X57504273Y-87217005D01*
X57758510Y-87322314D01*
X58028408Y-87376000D01*
X58303592Y-87376000D01*
X58573490Y-87322314D01*
X58827727Y-87217005D01*
X59056535Y-87064120D01*
X59251120Y-86869535D01*
X59404005Y-86640727D01*
X59436000Y-86563485D01*
X59467995Y-86640727D01*
X59620880Y-86869535D01*
X59815465Y-87064120D01*
X60044273Y-87217005D01*
X60298510Y-87322314D01*
X60568408Y-87376000D01*
X60843592Y-87376000D01*
X61113490Y-87322314D01*
X61367727Y-87217005D01*
X61596535Y-87064120D01*
X61791120Y-86869535D01*
X61944005Y-86640727D01*
X61976000Y-86563485D01*
X62007995Y-86640727D01*
X62160880Y-86869535D01*
X62355465Y-87064120D01*
X62584273Y-87217005D01*
X62838510Y-87322314D01*
X63108408Y-87376000D01*
X63383592Y-87376000D01*
X63653490Y-87322314D01*
X63756001Y-87279852D01*
X63756001Y-90386668D01*
X63752324Y-90424000D01*
X63756001Y-90461333D01*
X63766998Y-90572986D01*
X63780180Y-90616442D01*
X63810454Y-90716246D01*
X63881026Y-90848276D01*
X63935592Y-90914764D01*
X63976000Y-90964001D01*
X64004998Y-90987799D01*
X64862847Y-91845649D01*
X64886932Y-91966729D01*
X64932607Y-92077000D01*
X63560802Y-92077000D01*
X62528209Y-91044408D01*
X62572000Y-90824260D01*
X62572000Y-90531740D01*
X62514932Y-90244842D01*
X62402990Y-89974589D01*
X62240475Y-89731368D01*
X62033632Y-89524525D01*
X61790411Y-89362010D01*
X61520158Y-89250068D01*
X61233260Y-89193000D01*
X60940740Y-89193000D01*
X60653842Y-89250068D01*
X60383589Y-89362010D01*
X60140368Y-89524525D01*
X60008513Y-89656380D01*
X59986502Y-89583820D01*
X59927537Y-89473506D01*
X59848185Y-89376815D01*
X59751494Y-89297463D01*
X59641180Y-89238498D01*
X59521482Y-89202188D01*
X59397000Y-89189928D01*
X57697000Y-89189928D01*
X57572518Y-89202188D01*
X57452820Y-89238498D01*
X57342506Y-89297463D01*
X57245815Y-89376815D01*
X57166463Y-89473506D01*
X57107498Y-89583820D01*
X57071188Y-89703518D01*
X57058928Y-89828000D01*
X57058928Y-91528000D01*
X57071188Y-91652482D01*
X57107498Y-91772180D01*
X57166463Y-91882494D01*
X57245815Y-91979185D01*
X57342506Y-92058537D01*
X57452820Y-92117502D01*
X57572518Y-92153812D01*
X57697000Y-92166072D01*
X59397000Y-92166072D01*
X59521482Y-92153812D01*
X59641180Y-92117502D01*
X59751494Y-92058537D01*
X59848185Y-91979185D01*
X59927537Y-91882494D01*
X59986502Y-91772180D01*
X60008513Y-91699620D01*
X60140368Y-91831475D01*
X60383589Y-91993990D01*
X60653842Y-92105932D01*
X60940740Y-92163000D01*
X61233260Y-92163000D01*
X61453408Y-92119209D01*
X62682200Y-93348002D01*
X62705999Y-93377001D01*
X62734997Y-93400799D01*
X62821723Y-93471974D01*
X62953753Y-93542546D01*
X63097014Y-93586003D01*
X63192195Y-93595378D01*
X63135463Y-93664506D01*
X63076498Y-93774820D01*
X63040188Y-93894518D01*
X63027928Y-94019000D01*
X63027928Y-95719000D01*
X63040188Y-95843482D01*
X63076498Y-95963180D01*
X63135463Y-96073494D01*
X63214815Y-96170185D01*
X63311506Y-96249537D01*
X63421820Y-96308502D01*
X63494380Y-96330513D01*
X63362525Y-96462368D01*
X63200010Y-96705589D01*
X63088068Y-96975842D01*
X63031000Y-97262740D01*
X63031000Y-97555260D01*
X63088068Y-97842158D01*
X63200010Y-98112411D01*
X63362525Y-98355632D01*
X63569368Y-98562475D01*
X63812589Y-98724990D01*
X64082842Y-98836932D01*
X64369740Y-98894000D01*
X64662260Y-98894000D01*
X64949158Y-98836932D01*
X65219411Y-98724990D01*
X65462632Y-98562475D01*
X65669475Y-98355632D01*
X65794178Y-98169000D01*
X66614199Y-98169000D01*
X66864190Y-98418992D01*
X66887989Y-98447991D01*
X67003714Y-98542964D01*
X67135743Y-98613536D01*
X67279004Y-98656993D01*
X67390657Y-98667990D01*
X67390666Y-98667990D01*
X67427989Y-98671666D01*
X67465312Y-98667990D01*
X68064740Y-98667990D01*
X68202750Y-98806000D01*
X69064500Y-98806000D01*
X69064500Y-98786000D01*
X69318500Y-98786000D01*
X69318500Y-98806000D01*
X69338500Y-98806000D01*
X69338500Y-99060000D01*
X69318500Y-99060000D01*
X69318500Y-100109250D01*
X69477250Y-100268000D01*
X69704000Y-100271072D01*
X69828482Y-100258812D01*
X69948180Y-100222502D01*
X70058494Y-100163537D01*
X70155185Y-100084185D01*
X70179363Y-100054724D01*
X70260613Y-100121405D01*
X70414149Y-100203472D01*
X70580745Y-100254008D01*
X70753999Y-100271072D01*
X71279001Y-100271072D01*
X71452255Y-100254008D01*
X71618851Y-100203472D01*
X71772387Y-100121405D01*
X71906962Y-100010962D01*
X72017405Y-99876387D01*
X72099472Y-99722851D01*
X72150008Y-99556255D01*
X72167072Y-99383001D01*
X72167072Y-98857229D01*
X73598004Y-97426298D01*
X73627001Y-97402501D01*
X73721974Y-97286776D01*
X73792546Y-97154747D01*
X73836003Y-97011486D01*
X73847000Y-96899833D01*
X73847000Y-96899824D01*
X73850676Y-96862501D01*
X73847000Y-96825178D01*
X73847000Y-95045072D01*
X73912000Y-95045072D01*
X74065745Y-95029929D01*
X74213582Y-94985084D01*
X74349829Y-94912258D01*
X74469251Y-94814251D01*
X74567258Y-94694829D01*
X74640084Y-94558582D01*
X74684929Y-94410745D01*
X74700072Y-94257000D01*
X74700072Y-93957000D01*
X74684929Y-93803255D01*
X74640084Y-93655418D01*
X74567258Y-93519171D01*
X74528546Y-93472000D01*
X74567258Y-93424829D01*
X74640084Y-93288582D01*
X74684929Y-93140745D01*
X74700072Y-92987000D01*
X74700072Y-92687000D01*
X74684929Y-92533255D01*
X74640084Y-92385418D01*
X74567258Y-92249171D01*
X74528546Y-92202000D01*
X74567258Y-92154829D01*
X74612370Y-92070431D01*
X75046928Y-91635874D01*
X75046928Y-93329000D01*
X75059188Y-93453482D01*
X75095498Y-93573180D01*
X75119118Y-93617369D01*
X75113443Y-93620403D01*
X75094197Y-93636197D01*
X75078403Y-93655443D01*
X75066667Y-93677399D01*
X75059440Y-93701224D01*
X75057000Y-93726000D01*
X75057000Y-100305000D01*
X57182279Y-100305000D01*
X56785455Y-100266091D01*
X56434794Y-100160220D01*
X56111377Y-99988257D01*
X55827518Y-99756748D01*
X55725146Y-99633000D01*
X68040928Y-99633000D01*
X68053188Y-99757482D01*
X68089498Y-99877180D01*
X68148463Y-99987494D01*
X68227815Y-100084185D01*
X68324506Y-100163537D01*
X68434820Y-100222502D01*
X68554518Y-100258812D01*
X68679000Y-100271072D01*
X68905750Y-100268000D01*
X69064500Y-100109250D01*
X69064500Y-99060000D01*
X68202750Y-99060000D01*
X68044000Y-99218750D01*
X68040928Y-99633000D01*
X55725146Y-99633000D01*
X55594035Y-99474514D01*
X55419816Y-99152304D01*
X55311498Y-98802385D01*
X55270000Y-98407557D01*
X55270000Y-96807872D01*
X56566000Y-96807872D01*
X56566000Y-97248128D01*
X56651890Y-97679925D01*
X56820369Y-98086669D01*
X57064962Y-98452729D01*
X57376271Y-98764038D01*
X57742331Y-99008631D01*
X58149075Y-99177110D01*
X58580872Y-99263000D01*
X59021128Y-99263000D01*
X59452925Y-99177110D01*
X59859669Y-99008631D01*
X60225729Y-98764038D01*
X60537038Y-98452729D01*
X60781631Y-98086669D01*
X60950110Y-97679925D01*
X61036000Y-97248128D01*
X61036000Y-96807872D01*
X60950110Y-96376075D01*
X60781631Y-95969331D01*
X60537038Y-95603271D01*
X60225729Y-95291962D01*
X59859669Y-95047369D01*
X59452925Y-94878890D01*
X59021128Y-94793000D01*
X58580872Y-94793000D01*
X58149075Y-94878890D01*
X57742331Y-95047369D01*
X57376271Y-95291962D01*
X57064962Y-95603271D01*
X56820369Y-95969331D01*
X56651890Y-96376075D01*
X56566000Y-96807872D01*
X55270000Y-96807872D01*
X55270000Y-69248872D01*
X56566000Y-69248872D01*
X56566000Y-69689128D01*
X56651890Y-70120925D01*
X56820369Y-70527669D01*
X57064962Y-70893729D01*
X57376271Y-71205038D01*
X57742331Y-71449631D01*
X58149075Y-71618110D01*
X58580872Y-71704000D01*
X59021128Y-71704000D01*
X59452925Y-71618110D01*
X59859669Y-71449631D01*
X60225729Y-71205038D01*
X60537038Y-70893729D01*
X60781631Y-70527669D01*
X60950110Y-70120925D01*
X61036000Y-69689128D01*
X61036000Y-69248872D01*
X60966096Y-68897440D01*
X66046045Y-68897440D01*
X66802000Y-69653395D01*
X67557955Y-68897440D01*
X67496068Y-68661632D01*
X67254210Y-68548734D01*
X66994973Y-68485189D01*
X66728320Y-68473439D01*
X66464499Y-68513937D01*
X66213647Y-68605125D01*
X66107932Y-68661632D01*
X66046045Y-68897440D01*
X60966096Y-68897440D01*
X60950110Y-68817075D01*
X60781631Y-68410331D01*
X60537038Y-68044271D01*
X60225729Y-67732962D01*
X59859669Y-67488369D01*
X59452925Y-67319890D01*
X59021128Y-67234000D01*
X58580872Y-67234000D01*
X58149075Y-67319890D01*
X57742331Y-67488369D01*
X57376271Y-67732962D01*
X57064962Y-68044271D01*
X56820369Y-68410331D01*
X56651890Y-68817075D01*
X56566000Y-69248872D01*
X55270000Y-69248872D01*
X55270000Y-67977279D01*
X55308909Y-67580455D01*
X55414780Y-67229792D01*
X55586744Y-66906375D01*
X55818254Y-66622516D01*
X56100486Y-66389035D01*
X56422695Y-66214817D01*
X56772614Y-66106498D01*
X57167443Y-66065000D01*
X119982721Y-66065000D01*
X120379545Y-66103909D01*
G04 #@! TA.AperFunction,Conductor*
D24*
G36*
X120379545Y-66103909D02*
G01*
X120730208Y-66209780D01*
X121053625Y-66381744D01*
X121337484Y-66613254D01*
X121570965Y-66895486D01*
X121745183Y-67217695D01*
X121853502Y-67567614D01*
X121895001Y-67962452D01*
X121895000Y-98392721D01*
X121856091Y-98789545D01*
X121750220Y-99140206D01*
X121578257Y-99463623D01*
X121346748Y-99747482D01*
X121064514Y-99980965D01*
X120742304Y-100155184D01*
X120392385Y-100263502D01*
X119997557Y-100305000D01*
X101219000Y-100305000D01*
X101219000Y-93726000D01*
X101216560Y-93701224D01*
X101209333Y-93677399D01*
X101197597Y-93655443D01*
X101181803Y-93636197D01*
X101162557Y-93620403D01*
X101140601Y-93608667D01*
X101116776Y-93601440D01*
X101092000Y-93599000D01*
X100413142Y-93599000D01*
X100546101Y-93527932D01*
X100764608Y-93348608D01*
X100943932Y-93130101D01*
X101077182Y-92880808D01*
X101159236Y-92610309D01*
X101186943Y-92329000D01*
X101159236Y-92047691D01*
X101077182Y-91777192D01*
X100943932Y-91527899D01*
X100764608Y-91309392D01*
X100546101Y-91130068D01*
X100413142Y-91059000D01*
X100546101Y-90987932D01*
X100764608Y-90808608D01*
X100797352Y-90768709D01*
X100873738Y-90883028D01*
X101003972Y-91013262D01*
X101157111Y-91115586D01*
X101327271Y-91186068D01*
X101507911Y-91222000D01*
X101692089Y-91222000D01*
X101872729Y-91186068D01*
X102042889Y-91115586D01*
X102196028Y-91013262D01*
X102326262Y-90883028D01*
X102428586Y-90729889D01*
X102499068Y-90559729D01*
X102535000Y-90379089D01*
X102535000Y-90309801D01*
X103021649Y-89823153D01*
X103142729Y-89799068D01*
X103312889Y-89728586D01*
X103466028Y-89626262D01*
X103596262Y-89496028D01*
X103698586Y-89342889D01*
X103769068Y-89172729D01*
X103776297Y-89136386D01*
X103867271Y-89174068D01*
X103988351Y-89198153D01*
X104523001Y-89732803D01*
X104523000Y-94523928D01*
X104433000Y-94523928D01*
X104308518Y-94536188D01*
X104188820Y-94572498D01*
X104078506Y-94631463D01*
X103981815Y-94710815D01*
X103902463Y-94807506D01*
X103843498Y-94917820D01*
X103807188Y-95037518D01*
X103794928Y-95162000D01*
X103794928Y-96862000D01*
X103807188Y-96986482D01*
X103843498Y-97106180D01*
X103902463Y-97216494D01*
X103981815Y-97313185D01*
X104078506Y-97392537D01*
X104188820Y-97451502D01*
X104261380Y-97473513D01*
X104129525Y-97605368D01*
X103967010Y-97848589D01*
X103855068Y-98118842D01*
X103798000Y-98405740D01*
X103798000Y-98698260D01*
X103855068Y-98985158D01*
X103967010Y-99255411D01*
X104129525Y-99498632D01*
X104336368Y-99705475D01*
X104579589Y-99867990D01*
X104849842Y-99979932D01*
X105136740Y-100037000D01*
X105429260Y-100037000D01*
X105716158Y-99979932D01*
X105986411Y-99867990D01*
X106229632Y-99705475D01*
X106436475Y-99498632D01*
X106598990Y-99255411D01*
X106710932Y-98985158D01*
X106726102Y-98908890D01*
X108794524Y-98908890D01*
X108839175Y-99056099D01*
X108964359Y-99318920D01*
X109138412Y-99552269D01*
X109354645Y-99747178D01*
X109604748Y-99896157D01*
X109879109Y-99993481D01*
X110109000Y-99872814D01*
X110109000Y-98679000D01*
X110363000Y-98679000D01*
X110363000Y-99872814D01*
X110592891Y-99993481D01*
X110867252Y-99896157D01*
X111117355Y-99747178D01*
X111333588Y-99552269D01*
X111507641Y-99318920D01*
X111632825Y-99056099D01*
X111677476Y-98908890D01*
X111556155Y-98679000D01*
X110363000Y-98679000D01*
X110109000Y-98679000D01*
X108915845Y-98679000D01*
X108794524Y-98908890D01*
X106726102Y-98908890D01*
X106768000Y-98698260D01*
X106768000Y-98405740D01*
X106724210Y-98185592D01*
X107191003Y-97718799D01*
X107220001Y-97695001D01*
X107314974Y-97579276D01*
X107385546Y-97447247D01*
X107429003Y-97303986D01*
X107440000Y-97192333D01*
X107440000Y-97192324D01*
X107443676Y-97155001D01*
X107440000Y-97117678D01*
X107440000Y-88937322D01*
X107443676Y-88899999D01*
X107440000Y-88862676D01*
X107440000Y-88862667D01*
X107429003Y-88751014D01*
X107385546Y-88607753D01*
X107353462Y-88547729D01*
X107314974Y-88475723D01*
X107243799Y-88388997D01*
X107220001Y-88359999D01*
X107191003Y-88336201D01*
X106146179Y-87291377D01*
X106325727Y-87217005D01*
X106554535Y-87064120D01*
X106749120Y-86869535D01*
X106902005Y-86640727D01*
X106934000Y-86563485D01*
X106965995Y-86640727D01*
X107118880Y-86869535D01*
X107313465Y-87064120D01*
X107542273Y-87217005D01*
X107796510Y-87322314D01*
X108066408Y-87376000D01*
X108341592Y-87376000D01*
X108439000Y-87356624D01*
X108439001Y-95300838D01*
X108453977Y-95452895D01*
X108513160Y-95647993D01*
X108609267Y-95827797D01*
X108738605Y-95985396D01*
X108747928Y-95993047D01*
X108747928Y-96862000D01*
X108760188Y-96986482D01*
X108796498Y-97106180D01*
X108855463Y-97216494D01*
X108934815Y-97313185D01*
X109031506Y-97392537D01*
X109141820Y-97451502D01*
X109222466Y-97475966D01*
X109138412Y-97551731D01*
X108964359Y-97785080D01*
X108839175Y-98047901D01*
X108794524Y-98195110D01*
X108915845Y-98425000D01*
X110109000Y-98425000D01*
X110109000Y-98405000D01*
X110363000Y-98405000D01*
X110363000Y-98425000D01*
X111556155Y-98425000D01*
X111677476Y-98195110D01*
X111632825Y-98047901D01*
X111507641Y-97785080D01*
X111333588Y-97551731D01*
X111249534Y-97475966D01*
X111330180Y-97451502D01*
X111440494Y-97392537D01*
X111537185Y-97313185D01*
X111616537Y-97216494D01*
X111675502Y-97106180D01*
X111711812Y-96986482D01*
X111724072Y-96862000D01*
X111724072Y-96807872D01*
X116256000Y-96807872D01*
X116256000Y-97248128D01*
X116341890Y-97679925D01*
X116510369Y-98086669D01*
X116754962Y-98452729D01*
X117066271Y-98764038D01*
X117432331Y-99008631D01*
X117839075Y-99177110D01*
X118270872Y-99263000D01*
X118711128Y-99263000D01*
X119142925Y-99177110D01*
X119549669Y-99008631D01*
X119915729Y-98764038D01*
X120227038Y-98452729D01*
X120471631Y-98086669D01*
X120640110Y-97679925D01*
X120726000Y-97248128D01*
X120726000Y-96807872D01*
X120640110Y-96376075D01*
X120471631Y-95969331D01*
X120227038Y-95603271D01*
X119915729Y-95291962D01*
X119549669Y-95047369D01*
X119142925Y-94878890D01*
X118711128Y-94793000D01*
X118270872Y-94793000D01*
X117839075Y-94878890D01*
X117432331Y-95047369D01*
X117066271Y-95291962D01*
X116754962Y-95603271D01*
X116510369Y-95969331D01*
X116341890Y-96376075D01*
X116256000Y-96807872D01*
X111724072Y-96807872D01*
X111724072Y-95162000D01*
X111711812Y-95037518D01*
X111675502Y-94917820D01*
X111616537Y-94807506D01*
X111537185Y-94710815D01*
X111440494Y-94631463D01*
X111330180Y-94572498D01*
X111210482Y-94536188D01*
X111086000Y-94523928D01*
X110509000Y-94523928D01*
X110509000Y-87356624D01*
X110606408Y-87376000D01*
X110881592Y-87376000D01*
X111151490Y-87322314D01*
X111405727Y-87217005D01*
X111634535Y-87064120D01*
X111829120Y-86869535D01*
X111982005Y-86640727D01*
X112014000Y-86563485D01*
X112045995Y-86640727D01*
X112198880Y-86869535D01*
X112393465Y-87064120D01*
X112622273Y-87217005D01*
X112876510Y-87322314D01*
X113146408Y-87376000D01*
X113421592Y-87376000D01*
X113691490Y-87322314D01*
X113945727Y-87217005D01*
X114174535Y-87064120D01*
X114369120Y-86869535D01*
X114522005Y-86640727D01*
X114554000Y-86563485D01*
X114585995Y-86640727D01*
X114738880Y-86869535D01*
X114933465Y-87064120D01*
X115162273Y-87217005D01*
X115416510Y-87322314D01*
X115686408Y-87376000D01*
X115961592Y-87376000D01*
X116231490Y-87322314D01*
X116485727Y-87217005D01*
X116714535Y-87064120D01*
X116909120Y-86869535D01*
X117062005Y-86640727D01*
X117094000Y-86563485D01*
X117125995Y-86640727D01*
X117278880Y-86869535D01*
X117473465Y-87064120D01*
X117702273Y-87217005D01*
X117956510Y-87322314D01*
X118226408Y-87376000D01*
X118501592Y-87376000D01*
X118771490Y-87322314D01*
X119025727Y-87217005D01*
X119254535Y-87064120D01*
X119449120Y-86869535D01*
X119602005Y-86640727D01*
X119707314Y-86386490D01*
X119761000Y-86116592D01*
X119761000Y-85841408D01*
X119707314Y-85571510D01*
X119602005Y-85317273D01*
X119449120Y-85088465D01*
X119254535Y-84893880D01*
X119025727Y-84740995D01*
X118771490Y-84635686D01*
X118501592Y-84582000D01*
X118226408Y-84582000D01*
X118072429Y-84612628D01*
X117840803Y-84381001D01*
X117817000Y-84351998D01*
X117701275Y-84257025D01*
X117569246Y-84186453D01*
X117425985Y-84142996D01*
X117314332Y-84131999D01*
X117314321Y-84131999D01*
X117276999Y-84128323D01*
X117239677Y-84131999D01*
X112384801Y-84131999D01*
X105454498Y-77201696D01*
X105526408Y-77216000D01*
X105801592Y-77216000D01*
X106071490Y-77162314D01*
X106325727Y-77057005D01*
X106554535Y-76904120D01*
X106749120Y-76709535D01*
X106902005Y-76480727D01*
X106934000Y-76403485D01*
X106965995Y-76480727D01*
X107118880Y-76709535D01*
X107313465Y-76904120D01*
X107542273Y-77057005D01*
X107796510Y-77162314D01*
X108066408Y-77216000D01*
X108341592Y-77216000D01*
X108611490Y-77162314D01*
X108865727Y-77057005D01*
X109094535Y-76904120D01*
X109289120Y-76709535D01*
X109442005Y-76480727D01*
X109474000Y-76403485D01*
X109505995Y-76480727D01*
X109658880Y-76709535D01*
X109853465Y-76904120D01*
X110082273Y-77057005D01*
X110336510Y-77162314D01*
X110606408Y-77216000D01*
X110881592Y-77216000D01*
X111151490Y-77162314D01*
X111405727Y-77057005D01*
X111634535Y-76904120D01*
X111829120Y-76709535D01*
X111982005Y-76480727D01*
X112014000Y-76403485D01*
X112045995Y-76480727D01*
X112198880Y-76709535D01*
X112393465Y-76904120D01*
X112622273Y-77057005D01*
X112876510Y-77162314D01*
X113146408Y-77216000D01*
X113421592Y-77216000D01*
X113691490Y-77162314D01*
X113945727Y-77057005D01*
X114174535Y-76904120D01*
X114369120Y-76709535D01*
X114522005Y-76480727D01*
X114554000Y-76403485D01*
X114585995Y-76480727D01*
X114738880Y-76709535D01*
X114933465Y-76904120D01*
X115162273Y-77057005D01*
X115416510Y-77162314D01*
X115686408Y-77216000D01*
X115961592Y-77216000D01*
X116231490Y-77162314D01*
X116485727Y-77057005D01*
X116714535Y-76904120D01*
X116909120Y-76709535D01*
X117062005Y-76480727D01*
X117094000Y-76403485D01*
X117125995Y-76480727D01*
X117278880Y-76709535D01*
X117473465Y-76904120D01*
X117702273Y-77057005D01*
X117956510Y-77162314D01*
X118226408Y-77216000D01*
X118501592Y-77216000D01*
X118771490Y-77162314D01*
X119025727Y-77057005D01*
X119254535Y-76904120D01*
X119449120Y-76709535D01*
X119602005Y-76480727D01*
X119707314Y-76226490D01*
X119761000Y-75956592D01*
X119761000Y-75681408D01*
X119707314Y-75411510D01*
X119602005Y-75157273D01*
X119449120Y-74928465D01*
X119254535Y-74733880D01*
X119025727Y-74580995D01*
X118771490Y-74475686D01*
X118501592Y-74422000D01*
X118226408Y-74422000D01*
X117956510Y-74475686D01*
X117702273Y-74580995D01*
X117473465Y-74733880D01*
X117278880Y-74928465D01*
X117125995Y-75157273D01*
X117094000Y-75234515D01*
X117062005Y-75157273D01*
X116909120Y-74928465D01*
X116714535Y-74733880D01*
X116485727Y-74580995D01*
X116231490Y-74475686D01*
X115961592Y-74422000D01*
X115686408Y-74422000D01*
X115416510Y-74475686D01*
X115162273Y-74580995D01*
X114933465Y-74733880D01*
X114738880Y-74928465D01*
X114585995Y-75157273D01*
X114554000Y-75234515D01*
X114522005Y-75157273D01*
X114369120Y-74928465D01*
X114174535Y-74733880D01*
X113945727Y-74580995D01*
X113691490Y-74475686D01*
X113421592Y-74422000D01*
X113146408Y-74422000D01*
X112876510Y-74475686D01*
X112622273Y-74580995D01*
X112393465Y-74733880D01*
X112198880Y-74928465D01*
X112045995Y-75157273D01*
X112014000Y-75234515D01*
X111982005Y-75157273D01*
X111829120Y-74928465D01*
X111634535Y-74733880D01*
X111405727Y-74580995D01*
X111151490Y-74475686D01*
X110881592Y-74422000D01*
X110606408Y-74422000D01*
X110336510Y-74475686D01*
X110082273Y-74580995D01*
X109853465Y-74733880D01*
X109658880Y-74928465D01*
X109505995Y-75157273D01*
X109474000Y-75234515D01*
X109442005Y-75157273D01*
X109289120Y-74928465D01*
X109094535Y-74733880D01*
X108865727Y-74580995D01*
X108611490Y-74475686D01*
X108341592Y-74422000D01*
X108066408Y-74422000D01*
X107796510Y-74475686D01*
X107542273Y-74580995D01*
X107313465Y-74733880D01*
X107118880Y-74928465D01*
X106965995Y-75157273D01*
X106934000Y-75234515D01*
X106902005Y-75157273D01*
X106749120Y-74928465D01*
X106554535Y-74733880D01*
X106325727Y-74580995D01*
X106071490Y-74475686D01*
X105801592Y-74422000D01*
X105526408Y-74422000D01*
X105256510Y-74475686D01*
X105002273Y-74580995D01*
X104773465Y-74733880D01*
X104578880Y-74928465D01*
X104425995Y-75157273D01*
X104320686Y-75411510D01*
X104267000Y-75681408D01*
X104267000Y-75956592D01*
X104281304Y-76028503D01*
X99534712Y-71281911D01*
X101681000Y-71281911D01*
X101681000Y-71466089D01*
X101716932Y-71646729D01*
X101787414Y-71816889D01*
X101889738Y-71970028D01*
X102019972Y-72100262D01*
X102173111Y-72202586D01*
X102343271Y-72273068D01*
X102523911Y-72309000D01*
X102708089Y-72309000D01*
X102864032Y-72277981D01*
X102885095Y-72317387D01*
X102995538Y-72451962D01*
X103130113Y-72562405D01*
X103283649Y-72644472D01*
X103450245Y-72695008D01*
X103623499Y-72712072D01*
X104148501Y-72712072D01*
X104321755Y-72695008D01*
X104488351Y-72644472D01*
X104641887Y-72562405D01*
X104776462Y-72451962D01*
X104798500Y-72425109D01*
X104820538Y-72451962D01*
X104955113Y-72562405D01*
X105108649Y-72644472D01*
X105275245Y-72695008D01*
X105448499Y-72712072D01*
X105973501Y-72712072D01*
X106146755Y-72695008D01*
X106313351Y-72644472D01*
X106466887Y-72562405D01*
X106601462Y-72451962D01*
X106711905Y-72317387D01*
X106793972Y-72163851D01*
X106844508Y-71997255D01*
X106861572Y-71824001D01*
X106861572Y-71298229D01*
X107295802Y-70864000D01*
X108643687Y-70864000D01*
X108789688Y-71082505D01*
X109003495Y-71296312D01*
X109254905Y-71464299D01*
X109534257Y-71580011D01*
X109830816Y-71639000D01*
X110133184Y-71639000D01*
X110429743Y-71580011D01*
X110709095Y-71464299D01*
X110960505Y-71296312D01*
X111026944Y-71229873D01*
X111032498Y-71248180D01*
X111091463Y-71358494D01*
X111170815Y-71455185D01*
X111267506Y-71534537D01*
X111377820Y-71593502D01*
X111497518Y-71629812D01*
X111622000Y-71642072D01*
X112236250Y-71639000D01*
X112395000Y-71480250D01*
X112395000Y-70231000D01*
X112649000Y-70231000D01*
X112649000Y-71480250D01*
X112807750Y-71639000D01*
X113422000Y-71642072D01*
X113546482Y-71629812D01*
X113666180Y-71593502D01*
X113776494Y-71534537D01*
X113873185Y-71455185D01*
X113952537Y-71358494D01*
X114011502Y-71248180D01*
X114047812Y-71128482D01*
X114060072Y-71004000D01*
X114057000Y-70389750D01*
X113898250Y-70231000D01*
X112649000Y-70231000D01*
X112395000Y-70231000D01*
X112375000Y-70231000D01*
X112375000Y-69977000D01*
X112395000Y-69977000D01*
X112395000Y-68727750D01*
X112649000Y-68727750D01*
X112649000Y-69977000D01*
X113898250Y-69977000D01*
X114057000Y-69818250D01*
X114059847Y-69248872D01*
X116256000Y-69248872D01*
X116256000Y-69689128D01*
X116341890Y-70120925D01*
X116510369Y-70527669D01*
X116754962Y-70893729D01*
X117066271Y-71205038D01*
X117432331Y-71449631D01*
X117839075Y-71618110D01*
X118270872Y-71704000D01*
X118711128Y-71704000D01*
X119142925Y-71618110D01*
X119549669Y-71449631D01*
X119915729Y-71205038D01*
X120227038Y-70893729D01*
X120471631Y-70527669D01*
X120640110Y-70120925D01*
X120726000Y-69689128D01*
X120726000Y-69248872D01*
X120640110Y-68817075D01*
X120471631Y-68410331D01*
X120227038Y-68044271D01*
X119915729Y-67732962D01*
X119549669Y-67488369D01*
X119142925Y-67319890D01*
X118711128Y-67234000D01*
X118270872Y-67234000D01*
X117839075Y-67319890D01*
X117432331Y-67488369D01*
X117066271Y-67732962D01*
X116754962Y-68044271D01*
X116510369Y-68410331D01*
X116341890Y-68817075D01*
X116256000Y-69248872D01*
X114059847Y-69248872D01*
X114060072Y-69204000D01*
X114047812Y-69079518D01*
X114011502Y-68959820D01*
X113952537Y-68849506D01*
X113873185Y-68752815D01*
X113776494Y-68673463D01*
X113666180Y-68614498D01*
X113546482Y-68578188D01*
X113422000Y-68565928D01*
X112807750Y-68569000D01*
X112649000Y-68727750D01*
X112395000Y-68727750D01*
X112236250Y-68569000D01*
X111622000Y-68565928D01*
X111497518Y-68578188D01*
X111377820Y-68614498D01*
X111267506Y-68673463D01*
X111170815Y-68752815D01*
X111091463Y-68849506D01*
X111032498Y-68959820D01*
X111026944Y-68978127D01*
X110960505Y-68911688D01*
X110709095Y-68743701D01*
X110429743Y-68627989D01*
X110133184Y-68569000D01*
X109830816Y-68569000D01*
X109534257Y-68627989D01*
X109254905Y-68743701D01*
X109003495Y-68911688D01*
X108789688Y-69125495D01*
X108643687Y-69344000D01*
X107018322Y-69344000D01*
X106980999Y-69340324D01*
X106943676Y-69344000D01*
X106943667Y-69344000D01*
X106832014Y-69354997D01*
X106688753Y-69398454D01*
X106556724Y-69469026D01*
X106440999Y-69563999D01*
X106417201Y-69592997D01*
X105974201Y-70035997D01*
X105973501Y-70035928D01*
X105448499Y-70035928D01*
X105275245Y-70052992D01*
X105108649Y-70103528D01*
X104955113Y-70185595D01*
X104820538Y-70296038D01*
X104798500Y-70322891D01*
X104776462Y-70296038D01*
X104641887Y-70185595D01*
X104488351Y-70103528D01*
X104321755Y-70052992D01*
X104148501Y-70035928D01*
X103623499Y-70035928D01*
X103450245Y-70052992D01*
X103283649Y-70103528D01*
X103130113Y-70185595D01*
X102995538Y-70296038D01*
X102885095Y-70430613D01*
X102864032Y-70470019D01*
X102708089Y-70439000D01*
X102523911Y-70439000D01*
X102343271Y-70474932D01*
X102173111Y-70545414D01*
X102019972Y-70647738D01*
X101889738Y-70777972D01*
X101787414Y-70931111D01*
X101716932Y-71101271D01*
X101681000Y-71281911D01*
X99534712Y-71281911D01*
X99369804Y-71117003D01*
X99346001Y-71087999D01*
X99230276Y-70993026D01*
X99098247Y-70922454D01*
X98954986Y-70878997D01*
X98843333Y-70868000D01*
X98843322Y-70868000D01*
X98806000Y-70864324D01*
X98768678Y-70868000D01*
X94224673Y-70868000D01*
X94187348Y-70864324D01*
X94150023Y-70868000D01*
X94150015Y-70868000D01*
X94038362Y-70878997D01*
X93895101Y-70922454D01*
X93763072Y-70993026D01*
X93647347Y-71087999D01*
X93623549Y-71116997D01*
X91123534Y-73617012D01*
X91133929Y-73582745D01*
X91149072Y-73429000D01*
X91149072Y-73129000D01*
X91133929Y-72975255D01*
X91089084Y-72827418D01*
X91016258Y-72691171D01*
X90977546Y-72644000D01*
X91016258Y-72596829D01*
X91089084Y-72460582D01*
X91133929Y-72312745D01*
X91149072Y-72159000D01*
X91149072Y-71859000D01*
X91133929Y-71705255D01*
X91089084Y-71557418D01*
X91016258Y-71421171D01*
X90977546Y-71374000D01*
X91016258Y-71326829D01*
X91089084Y-71190582D01*
X91133929Y-71042745D01*
X91149072Y-70889000D01*
X91149072Y-70589000D01*
X91133929Y-70435255D01*
X91089084Y-70287418D01*
X91016258Y-70151171D01*
X90977546Y-70104000D01*
X91016258Y-70056829D01*
X91089084Y-69920582D01*
X91133929Y-69772745D01*
X91149072Y-69619000D01*
X91149072Y-69319000D01*
X91133929Y-69165255D01*
X91089084Y-69017418D01*
X91016258Y-68881171D01*
X90977546Y-68834000D01*
X91016258Y-68786829D01*
X91089084Y-68650582D01*
X91133929Y-68502745D01*
X91149072Y-68349000D01*
X91149072Y-68049000D01*
X91133929Y-67895255D01*
X91089084Y-67747418D01*
X91016258Y-67611171D01*
X90918251Y-67491749D01*
X90798829Y-67393742D01*
X90662582Y-67320916D01*
X90514745Y-67276071D01*
X90361000Y-67260928D01*
X88611000Y-67260928D01*
X88457255Y-67276071D01*
X88309418Y-67320916D01*
X88173171Y-67393742D01*
X88053749Y-67491749D01*
X87955742Y-67611171D01*
X87882916Y-67747418D01*
X87838071Y-67895255D01*
X87822928Y-68049000D01*
X87822928Y-68349000D01*
X87838071Y-68502745D01*
X87882916Y-68650582D01*
X87955742Y-68786829D01*
X87994454Y-68834000D01*
X87955742Y-68881171D01*
X87882916Y-69017418D01*
X87838071Y-69165255D01*
X87822928Y-69319000D01*
X87822928Y-69619000D01*
X87838071Y-69772745D01*
X87882916Y-69920582D01*
X87911410Y-69973891D01*
X87785247Y-69906454D01*
X87641986Y-69862997D01*
X87530333Y-69852000D01*
X87530322Y-69852000D01*
X87493000Y-69848324D01*
X87455678Y-69852000D01*
X83349325Y-69852000D01*
X83312000Y-69848324D01*
X83274675Y-69852000D01*
X83274667Y-69852000D01*
X83163014Y-69862997D01*
X83019753Y-69906454D01*
X82887724Y-69977026D01*
X82771999Y-70071999D01*
X82748201Y-70100998D01*
X82038998Y-70810201D01*
X82010000Y-70833999D01*
X81986202Y-70862997D01*
X81986201Y-70862998D01*
X81915026Y-70949724D01*
X81844454Y-71081754D01*
X81828021Y-71135928D01*
X81800998Y-71225014D01*
X81790000Y-71336667D01*
X81790000Y-71336678D01*
X81786324Y-71374000D01*
X81790000Y-71411322D01*
X81790000Y-71560438D01*
X81789084Y-71557418D01*
X81716258Y-71421171D01*
X81677546Y-71374000D01*
X81716258Y-71326829D01*
X81789084Y-71190582D01*
X81833929Y-71042745D01*
X81849072Y-70889000D01*
X81849072Y-70589000D01*
X81833929Y-70435255D01*
X81789084Y-70287418D01*
X81716258Y-70151171D01*
X81677546Y-70104000D01*
X81716258Y-70056829D01*
X81789084Y-69920582D01*
X81833929Y-69772745D01*
X81849072Y-69619000D01*
X81849072Y-69319000D01*
X81833929Y-69165255D01*
X81789084Y-69017418D01*
X81716258Y-68881171D01*
X81677546Y-68834000D01*
X81716258Y-68786829D01*
X81789084Y-68650582D01*
X81833929Y-68502745D01*
X81849072Y-68349000D01*
X81849072Y-68049000D01*
X81833929Y-67895255D01*
X81789084Y-67747418D01*
X81716258Y-67611171D01*
X81618251Y-67491749D01*
X81498829Y-67393742D01*
X81362582Y-67320916D01*
X81214745Y-67276071D01*
X81061000Y-67260928D01*
X79311000Y-67260928D01*
X79157255Y-67276071D01*
X79009418Y-67320916D01*
X78873171Y-67393742D01*
X78753749Y-67491749D01*
X78655742Y-67611171D01*
X78582916Y-67747418D01*
X78538071Y-67895255D01*
X78522928Y-68049000D01*
X78522928Y-68349000D01*
X78538071Y-68502745D01*
X78582916Y-68650582D01*
X78655742Y-68786829D01*
X78694454Y-68834000D01*
X78655742Y-68881171D01*
X78582916Y-69017418D01*
X78538071Y-69165255D01*
X78522928Y-69319000D01*
X78522928Y-69619000D01*
X78538071Y-69772745D01*
X78582916Y-69920582D01*
X78655742Y-70056829D01*
X78694454Y-70104000D01*
X78655742Y-70151171D01*
X78582916Y-70287418D01*
X78538071Y-70435255D01*
X78522928Y-70589000D01*
X78522928Y-70889000D01*
X78538071Y-71042745D01*
X78582916Y-71190582D01*
X78655742Y-71326829D01*
X78694454Y-71374000D01*
X78655742Y-71421171D01*
X78582916Y-71557418D01*
X78538071Y-71705255D01*
X78522928Y-71859000D01*
X78522928Y-72159000D01*
X78538071Y-72312745D01*
X78582916Y-72460582D01*
X78655742Y-72596829D01*
X78694454Y-72644000D01*
X78655742Y-72691171D01*
X78582916Y-72827418D01*
X78538071Y-72975255D01*
X78522928Y-73129000D01*
X78522928Y-73429000D01*
X78538071Y-73582745D01*
X78582916Y-73730582D01*
X78654730Y-73864936D01*
X78630463Y-73894506D01*
X78571498Y-74004820D01*
X78535188Y-74124518D01*
X78522928Y-74249000D01*
X78526000Y-74263250D01*
X78684750Y-74422000D01*
X80059000Y-74422000D01*
X80059000Y-74402000D01*
X80313000Y-74402000D01*
X80313000Y-74422000D01*
X81687250Y-74422000D01*
X81846000Y-74263250D01*
X81849072Y-74249000D01*
X81836812Y-74124518D01*
X81800502Y-74004820D01*
X81741537Y-73894506D01*
X81717270Y-73864936D01*
X81789084Y-73730582D01*
X81833929Y-73582745D01*
X81849072Y-73429000D01*
X81849072Y-73129000D01*
X81833929Y-72975255D01*
X81789084Y-72827418D01*
X81716258Y-72691171D01*
X81677546Y-72644000D01*
X81692416Y-72625881D01*
X81721414Y-72695889D01*
X81823738Y-72849028D01*
X81953972Y-72979262D01*
X82107111Y-73081586D01*
X82277271Y-73152068D01*
X82457911Y-73188000D01*
X82642089Y-73188000D01*
X82822729Y-73152068D01*
X82992889Y-73081586D01*
X83146028Y-72979262D01*
X83276262Y-72849028D01*
X83378586Y-72695889D01*
X83449068Y-72525729D01*
X83485000Y-72345089D01*
X83485000Y-72160911D01*
X83449068Y-71980271D01*
X83378586Y-71810111D01*
X83310000Y-71707465D01*
X83310000Y-71688801D01*
X83626802Y-71372000D01*
X83763379Y-71372000D01*
X83693026Y-71457724D01*
X83622454Y-71589754D01*
X83594121Y-71683159D01*
X83578998Y-71733014D01*
X83568001Y-71844667D01*
X83564324Y-71882000D01*
X83568001Y-71919333D01*
X83568000Y-82181198D01*
X81774804Y-80388003D01*
X81751001Y-80358999D01*
X81734650Y-80345580D01*
X81716258Y-80311171D01*
X81677546Y-80264000D01*
X81716258Y-80216829D01*
X81789084Y-80080582D01*
X81833929Y-79932745D01*
X81849072Y-79779000D01*
X81849072Y-79479000D01*
X81833929Y-79325255D01*
X81789084Y-79177418D01*
X81716258Y-79041171D01*
X81696659Y-79017289D01*
X81740278Y-78993974D01*
X81856003Y-78899001D01*
X81879806Y-78869997D01*
X83061003Y-77688801D01*
X83090001Y-77665003D01*
X83184974Y-77549278D01*
X83255546Y-77417249D01*
X83299003Y-77273988D01*
X83310000Y-77162335D01*
X83310000Y-77162327D01*
X83313676Y-77125002D01*
X83310000Y-77087677D01*
X83310000Y-75729535D01*
X83378586Y-75626889D01*
X83449068Y-75456729D01*
X83485000Y-75276089D01*
X83485000Y-75091911D01*
X83449068Y-74911271D01*
X83378586Y-74741111D01*
X83276262Y-74587972D01*
X83146028Y-74457738D01*
X82992889Y-74355414D01*
X82822729Y-74284932D01*
X82642089Y-74249000D01*
X82457911Y-74249000D01*
X82277271Y-74284932D01*
X82107111Y-74355414D01*
X81953972Y-74457738D01*
X81823738Y-74587972D01*
X81733810Y-74722560D01*
X81687250Y-74676000D01*
X80313000Y-74676000D01*
X80313000Y-74696000D01*
X80059000Y-74696000D01*
X80059000Y-74676000D01*
X78684750Y-74676000D01*
X78526000Y-74834750D01*
X78522928Y-74849000D01*
X78535188Y-74973482D01*
X78571498Y-75093180D01*
X78630463Y-75203494D01*
X78654730Y-75233064D01*
X78582916Y-75367418D01*
X78538071Y-75515255D01*
X78522928Y-75669000D01*
X78522928Y-75969000D01*
X78538071Y-76122745D01*
X78582916Y-76270582D01*
X78655742Y-76406829D01*
X78694454Y-76454000D01*
X78655742Y-76501171D01*
X78582916Y-76637418D01*
X78538071Y-76785255D01*
X78522928Y-76939000D01*
X78522928Y-77239000D01*
X78538071Y-77392745D01*
X78582916Y-77540582D01*
X78614141Y-77599000D01*
X78229864Y-77599000D01*
X78299236Y-77370309D01*
X78326943Y-77089000D01*
X78299236Y-76807691D01*
X78217182Y-76537192D01*
X78083932Y-76287899D01*
X77904608Y-76069392D01*
X77686101Y-75890068D01*
X77553142Y-75819000D01*
X77686101Y-75747932D01*
X77904608Y-75568608D01*
X78083932Y-75350101D01*
X78217182Y-75100808D01*
X78299236Y-74830309D01*
X78326943Y-74549000D01*
X78299236Y-74267691D01*
X78217182Y-73997192D01*
X78083932Y-73747899D01*
X77904608Y-73529392D01*
X77686101Y-73350068D01*
X77468000Y-73233490D01*
X77468000Y-71411535D01*
X77536586Y-71308889D01*
X77607068Y-71138729D01*
X77643000Y-70958089D01*
X77643000Y-70773911D01*
X77607068Y-70593271D01*
X77536586Y-70423111D01*
X77434262Y-70269972D01*
X77304028Y-70139738D01*
X77150889Y-70037414D01*
X76980729Y-69966932D01*
X76800089Y-69931000D01*
X76615911Y-69931000D01*
X76435271Y-69966932D01*
X76265111Y-70037414D01*
X76111972Y-70139738D01*
X75981738Y-70269972D01*
X75879414Y-70423111D01*
X75808932Y-70593271D01*
X75773000Y-70773911D01*
X75773000Y-70958089D01*
X75808932Y-71138729D01*
X75879414Y-71308889D01*
X75948000Y-71411536D01*
X75948001Y-73212326D01*
X75933192Y-73216818D01*
X75683899Y-73350068D01*
X75465392Y-73529392D01*
X75286068Y-73747899D01*
X75152818Y-73997192D01*
X75070764Y-74267691D01*
X75043057Y-74549000D01*
X75070764Y-74830309D01*
X75152818Y-75100808D01*
X75286068Y-75350101D01*
X75465392Y-75568608D01*
X75683899Y-75747932D01*
X75816858Y-75819000D01*
X75683899Y-75890068D01*
X75465392Y-76069392D01*
X75286068Y-76287899D01*
X75152818Y-76537192D01*
X75070764Y-76807691D01*
X75051384Y-77004453D01*
X74948729Y-76961932D01*
X74800282Y-76932404D01*
X74742586Y-76793111D01*
X74640262Y-76639972D01*
X74510028Y-76509738D01*
X74356889Y-76407414D01*
X74186729Y-76336932D01*
X74006089Y-76301000D01*
X73912000Y-76301000D01*
X73912000Y-76237535D01*
X73980586Y-76134889D01*
X74051068Y-75964729D01*
X74087000Y-75784089D01*
X74087000Y-75599911D01*
X74051068Y-75419271D01*
X73980586Y-75249111D01*
X73878262Y-75095972D01*
X73748028Y-74965738D01*
X73594889Y-74863414D01*
X73424729Y-74792932D01*
X73286999Y-74765535D01*
X73286999Y-73466802D01*
X73303649Y-73450153D01*
X73424729Y-73426068D01*
X73594889Y-73355586D01*
X73748028Y-73253262D01*
X73878262Y-73123028D01*
X73980586Y-72969889D01*
X74051068Y-72799729D01*
X74087000Y-72619089D01*
X74087000Y-72434911D01*
X74051068Y-72254271D01*
X73980586Y-72084111D01*
X73878262Y-71930972D01*
X73748028Y-71800738D01*
X73594889Y-71698414D01*
X73424729Y-71627932D01*
X73244089Y-71592000D01*
X73059911Y-71592000D01*
X72879271Y-71627932D01*
X72709111Y-71698414D01*
X72555972Y-71800738D01*
X72425738Y-71930972D01*
X72323414Y-72084111D01*
X72252932Y-72254271D01*
X72228847Y-72375351D01*
X72016001Y-72588198D01*
X71986998Y-72612000D01*
X71946133Y-72661795D01*
X71892025Y-72727725D01*
X71875841Y-72758003D01*
X71821453Y-72859755D01*
X71777996Y-73003016D01*
X71766999Y-73114669D01*
X71766999Y-73114679D01*
X71763323Y-73152001D01*
X71766999Y-73189324D01*
X71766999Y-73210510D01*
X71675898Y-73172774D01*
X71475939Y-73133000D01*
X71272061Y-73133000D01*
X71072102Y-73172774D01*
X70883744Y-73250795D01*
X70714226Y-73364063D01*
X70615656Y-73462633D01*
X70483961Y-73533026D01*
X70431260Y-73576277D01*
X70368237Y-73627999D01*
X70344439Y-73656997D01*
X69267997Y-74733440D01*
X69239490Y-74756835D01*
X69216535Y-74733880D01*
X68987727Y-74580995D01*
X68733490Y-74475686D01*
X68463592Y-74422000D01*
X68188408Y-74422000D01*
X67918510Y-74475686D01*
X67664273Y-74580995D01*
X67435465Y-74733880D01*
X67240880Y-74928465D01*
X67087995Y-75157273D01*
X67056000Y-75234515D01*
X67024005Y-75157273D01*
X66871120Y-74928465D01*
X66676535Y-74733880D01*
X66447727Y-74580995D01*
X66193490Y-74475686D01*
X65923592Y-74422000D01*
X65648408Y-74422000D01*
X65378510Y-74475686D01*
X65276000Y-74518147D01*
X65276000Y-70903535D01*
X65344586Y-70800889D01*
X65357977Y-70768560D01*
X66046045Y-70768560D01*
X66107932Y-71004368D01*
X66349790Y-71117266D01*
X66609027Y-71180811D01*
X66875680Y-71192561D01*
X67139501Y-71152063D01*
X67390353Y-71060875D01*
X67496068Y-71004368D01*
X67557955Y-70768560D01*
X66802000Y-70012605D01*
X66046045Y-70768560D01*
X65357977Y-70768560D01*
X65415068Y-70630729D01*
X65451000Y-70450089D01*
X65451000Y-70265911D01*
X65415068Y-70085271D01*
X65344586Y-69915111D01*
X65338953Y-69906680D01*
X65442439Y-69906680D01*
X65482937Y-70170501D01*
X65574125Y-70421353D01*
X65630632Y-70527068D01*
X65866440Y-70588955D01*
X66622395Y-69833000D01*
X66981605Y-69833000D01*
X67737560Y-70588955D01*
X67973368Y-70527068D01*
X68073764Y-70311993D01*
X68141215Y-70474833D01*
X68289503Y-70696762D01*
X68478238Y-70885497D01*
X68700167Y-71033785D01*
X68946761Y-71135928D01*
X69208544Y-71188000D01*
X69475456Y-71188000D01*
X69737239Y-71135928D01*
X69983833Y-71033785D01*
X70205762Y-70885497D01*
X70394497Y-70696762D01*
X70542785Y-70474833D01*
X70612000Y-70307734D01*
X70681215Y-70474833D01*
X70829503Y-70696762D01*
X71018238Y-70885497D01*
X71240167Y-71033785D01*
X71486761Y-71135928D01*
X71748544Y-71188000D01*
X72015456Y-71188000D01*
X72277239Y-71135928D01*
X72523833Y-71033785D01*
X72745762Y-70885497D01*
X72934497Y-70696762D01*
X73082785Y-70474833D01*
X73184928Y-70228239D01*
X73237000Y-69966456D01*
X73237000Y-69699544D01*
X73184928Y-69437761D01*
X73082785Y-69191167D01*
X72934497Y-68969238D01*
X72745762Y-68780503D01*
X72523833Y-68632215D01*
X72277239Y-68530072D01*
X72015456Y-68478000D01*
X71748544Y-68478000D01*
X71486761Y-68530072D01*
X71240167Y-68632215D01*
X71018238Y-68780503D01*
X70829503Y-68969238D01*
X70681215Y-69191167D01*
X70612000Y-69358266D01*
X70542785Y-69191167D01*
X70394497Y-68969238D01*
X70205762Y-68780503D01*
X69983833Y-68632215D01*
X69737239Y-68530072D01*
X69475456Y-68478000D01*
X69208544Y-68478000D01*
X68946761Y-68530072D01*
X68700167Y-68632215D01*
X68478238Y-68780503D01*
X68289503Y-68969238D01*
X68141215Y-69191167D01*
X68071562Y-69359324D01*
X68029875Y-69244647D01*
X67973368Y-69138932D01*
X67737560Y-69077045D01*
X66981605Y-69833000D01*
X66622395Y-69833000D01*
X65866440Y-69077045D01*
X65630632Y-69138932D01*
X65517734Y-69380790D01*
X65454189Y-69640027D01*
X65442439Y-69906680D01*
X65338953Y-69906680D01*
X65242262Y-69761972D01*
X65112028Y-69631738D01*
X64958889Y-69529414D01*
X64788729Y-69458932D01*
X64608089Y-69423000D01*
X64423911Y-69423000D01*
X64243271Y-69458932D01*
X64073111Y-69529414D01*
X63919972Y-69631738D01*
X63789738Y-69761972D01*
X63687414Y-69915111D01*
X63616932Y-70085271D01*
X63581000Y-70265911D01*
X63581000Y-70450089D01*
X63616932Y-70630729D01*
X63687414Y-70800889D01*
X63756000Y-70903536D01*
X63756001Y-74518148D01*
X63653490Y-74475686D01*
X63383592Y-74422000D01*
X63108408Y-74422000D01*
X62838510Y-74475686D01*
X62584273Y-74580995D01*
X62355465Y-74733880D01*
X62160880Y-74928465D01*
X62007995Y-75157273D01*
X61976000Y-75234515D01*
X61944005Y-75157273D01*
X61791120Y-74928465D01*
X61596535Y-74733880D01*
X61367727Y-74580995D01*
X61113490Y-74475686D01*
X60843592Y-74422000D01*
X60568408Y-74422000D01*
X60298510Y-74475686D01*
X60044273Y-74580995D01*
X59815465Y-74733880D01*
X59620880Y-74928465D01*
X59467995Y-75157273D01*
X59436000Y-75234515D01*
X59404005Y-75157273D01*
X59251120Y-74928465D01*
X59056535Y-74733880D01*
X58827727Y-74580995D01*
X58573490Y-74475686D01*
X58303592Y-74422000D01*
X58028408Y-74422000D01*
X57758510Y-74475686D01*
X57504273Y-74580995D01*
X57275465Y-74733880D01*
X57080880Y-74928465D01*
X56927995Y-75157273D01*
X56822686Y-75411510D01*
X56769000Y-75681408D01*
X56769000Y-75956592D01*
X56822686Y-76226490D01*
X56927995Y-76480727D01*
X57080880Y-76709535D01*
X57275465Y-76904120D01*
X57504273Y-77057005D01*
X57758510Y-77162314D01*
X58028408Y-77216000D01*
X58303592Y-77216000D01*
X58573490Y-77162314D01*
X58827727Y-77057005D01*
X59056535Y-76904120D01*
X59251120Y-76709535D01*
X59404005Y-76480727D01*
X59436000Y-76403485D01*
X59467995Y-76480727D01*
X59620880Y-76709535D01*
X59815465Y-76904120D01*
X60044273Y-77057005D01*
X60298510Y-77162314D01*
X60568408Y-77216000D01*
X60843592Y-77216000D01*
X61113490Y-77162314D01*
X61367727Y-77057005D01*
X61596535Y-76904120D01*
X61791120Y-76709535D01*
X61944005Y-76480727D01*
X61976000Y-76403485D01*
X62007995Y-76480727D01*
X62160880Y-76709535D01*
X62355465Y-76904120D01*
X62584273Y-77057005D01*
X62838510Y-77162314D01*
X63108408Y-77216000D01*
X63383592Y-77216000D01*
X63653490Y-77162314D01*
X63756000Y-77119853D01*
X63756001Y-84678148D01*
X63653490Y-84635686D01*
X63383592Y-84582000D01*
X63108408Y-84582000D01*
X62838510Y-84635686D01*
X62584273Y-84740995D01*
X62355465Y-84893880D01*
X62160880Y-85088465D01*
X62007995Y-85317273D01*
X61976000Y-85394515D01*
X61944005Y-85317273D01*
X61791120Y-85088465D01*
X61596535Y-84893880D01*
X61367727Y-84740995D01*
X61113490Y-84635686D01*
X60843592Y-84582000D01*
X60568408Y-84582000D01*
X60298510Y-84635686D01*
X60044273Y-84740995D01*
X59815465Y-84893880D01*
X59620880Y-85088465D01*
X59467995Y-85317273D01*
X59436000Y-85394515D01*
X59404005Y-85317273D01*
X59251120Y-85088465D01*
X59056535Y-84893880D01*
X58827727Y-84740995D01*
X58573490Y-84635686D01*
X58303592Y-84582000D01*
X58028408Y-84582000D01*
X57758510Y-84635686D01*
X57504273Y-84740995D01*
X57275465Y-84893880D01*
X57080880Y-85088465D01*
X56927995Y-85317273D01*
X56822686Y-85571510D01*
X56769000Y-85841408D01*
X56769000Y-86116592D01*
X56822686Y-86386490D01*
X56927995Y-86640727D01*
X57080880Y-86869535D01*
X57275465Y-87064120D01*
X57504273Y-87217005D01*
X57758510Y-87322314D01*
X58028408Y-87376000D01*
X58303592Y-87376000D01*
X58573490Y-87322314D01*
X58827727Y-87217005D01*
X59056535Y-87064120D01*
X59251120Y-86869535D01*
X59404005Y-86640727D01*
X59436000Y-86563485D01*
X59467995Y-86640727D01*
X59620880Y-86869535D01*
X59815465Y-87064120D01*
X60044273Y-87217005D01*
X60298510Y-87322314D01*
X60568408Y-87376000D01*
X60843592Y-87376000D01*
X61113490Y-87322314D01*
X61367727Y-87217005D01*
X61596535Y-87064120D01*
X61791120Y-86869535D01*
X61944005Y-86640727D01*
X61976000Y-86563485D01*
X62007995Y-86640727D01*
X62160880Y-86869535D01*
X62355465Y-87064120D01*
X62584273Y-87217005D01*
X62838510Y-87322314D01*
X63108408Y-87376000D01*
X63383592Y-87376000D01*
X63653490Y-87322314D01*
X63756001Y-87279852D01*
X63756001Y-90386668D01*
X63752324Y-90424000D01*
X63756001Y-90461333D01*
X63766998Y-90572986D01*
X63780180Y-90616442D01*
X63810454Y-90716246D01*
X63881026Y-90848276D01*
X63935592Y-90914764D01*
X63976000Y-90964001D01*
X64004998Y-90987799D01*
X64862847Y-91845649D01*
X64886932Y-91966729D01*
X64932607Y-92077000D01*
X63560802Y-92077000D01*
X62528209Y-91044408D01*
X62572000Y-90824260D01*
X62572000Y-90531740D01*
X62514932Y-90244842D01*
X62402990Y-89974589D01*
X62240475Y-89731368D01*
X62033632Y-89524525D01*
X61790411Y-89362010D01*
X61520158Y-89250068D01*
X61233260Y-89193000D01*
X60940740Y-89193000D01*
X60653842Y-89250068D01*
X60383589Y-89362010D01*
X60140368Y-89524525D01*
X60008513Y-89656380D01*
X59986502Y-89583820D01*
X59927537Y-89473506D01*
X59848185Y-89376815D01*
X59751494Y-89297463D01*
X59641180Y-89238498D01*
X59521482Y-89202188D01*
X59397000Y-89189928D01*
X57697000Y-89189928D01*
X57572518Y-89202188D01*
X57452820Y-89238498D01*
X57342506Y-89297463D01*
X57245815Y-89376815D01*
X57166463Y-89473506D01*
X57107498Y-89583820D01*
X57071188Y-89703518D01*
X57058928Y-89828000D01*
X57058928Y-91528000D01*
X57071188Y-91652482D01*
X57107498Y-91772180D01*
X57166463Y-91882494D01*
X57245815Y-91979185D01*
X57342506Y-92058537D01*
X57452820Y-92117502D01*
X57572518Y-92153812D01*
X57697000Y-92166072D01*
X59397000Y-92166072D01*
X59521482Y-92153812D01*
X59641180Y-92117502D01*
X59751494Y-92058537D01*
X59848185Y-91979185D01*
X59927537Y-91882494D01*
X59986502Y-91772180D01*
X60008513Y-91699620D01*
X60140368Y-91831475D01*
X60383589Y-91993990D01*
X60653842Y-92105932D01*
X60940740Y-92163000D01*
X61233260Y-92163000D01*
X61453408Y-92119209D01*
X62682200Y-93348002D01*
X62705999Y-93377001D01*
X62734997Y-93400799D01*
X62821723Y-93471974D01*
X62953753Y-93542546D01*
X63097014Y-93586003D01*
X63192195Y-93595378D01*
X63135463Y-93664506D01*
X63076498Y-93774820D01*
X63040188Y-93894518D01*
X63027928Y-94019000D01*
X63027928Y-95719000D01*
X63040188Y-95843482D01*
X63076498Y-95963180D01*
X63135463Y-96073494D01*
X63214815Y-96170185D01*
X63311506Y-96249537D01*
X63421820Y-96308502D01*
X63494380Y-96330513D01*
X63362525Y-96462368D01*
X63200010Y-96705589D01*
X63088068Y-96975842D01*
X63031000Y-97262740D01*
X63031000Y-97555260D01*
X63088068Y-97842158D01*
X63200010Y-98112411D01*
X63362525Y-98355632D01*
X63569368Y-98562475D01*
X63812589Y-98724990D01*
X64082842Y-98836932D01*
X64369740Y-98894000D01*
X64662260Y-98894000D01*
X64949158Y-98836932D01*
X65219411Y-98724990D01*
X65462632Y-98562475D01*
X65669475Y-98355632D01*
X65794178Y-98169000D01*
X66614199Y-98169000D01*
X66864190Y-98418992D01*
X66887989Y-98447991D01*
X67003714Y-98542964D01*
X67135743Y-98613536D01*
X67279004Y-98656993D01*
X67390657Y-98667990D01*
X67390666Y-98667990D01*
X67427989Y-98671666D01*
X67465312Y-98667990D01*
X68064740Y-98667990D01*
X68202750Y-98806000D01*
X69064500Y-98806000D01*
X69064500Y-98786000D01*
X69318500Y-98786000D01*
X69318500Y-98806000D01*
X69338500Y-98806000D01*
X69338500Y-99060000D01*
X69318500Y-99060000D01*
X69318500Y-100109250D01*
X69477250Y-100268000D01*
X69704000Y-100271072D01*
X69828482Y-100258812D01*
X69948180Y-100222502D01*
X70058494Y-100163537D01*
X70155185Y-100084185D01*
X70179363Y-100054724D01*
X70260613Y-100121405D01*
X70414149Y-100203472D01*
X70580745Y-100254008D01*
X70753999Y-100271072D01*
X71279001Y-100271072D01*
X71452255Y-100254008D01*
X71618851Y-100203472D01*
X71772387Y-100121405D01*
X71906962Y-100010962D01*
X72017405Y-99876387D01*
X72099472Y-99722851D01*
X72150008Y-99556255D01*
X72167072Y-99383001D01*
X72167072Y-98857229D01*
X73598004Y-97426298D01*
X73627001Y-97402501D01*
X73721974Y-97286776D01*
X73792546Y-97154747D01*
X73836003Y-97011486D01*
X73847000Y-96899833D01*
X73847000Y-96899824D01*
X73850676Y-96862501D01*
X73847000Y-96825178D01*
X73847000Y-95045072D01*
X73912000Y-95045072D01*
X74065745Y-95029929D01*
X74213582Y-94985084D01*
X74349829Y-94912258D01*
X74469251Y-94814251D01*
X74567258Y-94694829D01*
X74640084Y-94558582D01*
X74684929Y-94410745D01*
X74700072Y-94257000D01*
X74700072Y-93957000D01*
X74684929Y-93803255D01*
X74640084Y-93655418D01*
X74567258Y-93519171D01*
X74528546Y-93472000D01*
X74567258Y-93424829D01*
X74640084Y-93288582D01*
X74684929Y-93140745D01*
X74700072Y-92987000D01*
X74700072Y-92687000D01*
X74684929Y-92533255D01*
X74640084Y-92385418D01*
X74567258Y-92249171D01*
X74528546Y-92202000D01*
X74567258Y-92154829D01*
X74612370Y-92070431D01*
X75046928Y-91635874D01*
X75046928Y-93329000D01*
X75059188Y-93453482D01*
X75095498Y-93573180D01*
X75119118Y-93617369D01*
X75113443Y-93620403D01*
X75094197Y-93636197D01*
X75078403Y-93655443D01*
X75066667Y-93677399D01*
X75059440Y-93701224D01*
X75057000Y-93726000D01*
X75057000Y-100305000D01*
X57182279Y-100305000D01*
X56785455Y-100266091D01*
X56434794Y-100160220D01*
X56111377Y-99988257D01*
X55827518Y-99756748D01*
X55725146Y-99633000D01*
X68040928Y-99633000D01*
X68053188Y-99757482D01*
X68089498Y-99877180D01*
X68148463Y-99987494D01*
X68227815Y-100084185D01*
X68324506Y-100163537D01*
X68434820Y-100222502D01*
X68554518Y-100258812D01*
X68679000Y-100271072D01*
X68905750Y-100268000D01*
X69064500Y-100109250D01*
X69064500Y-99060000D01*
X68202750Y-99060000D01*
X68044000Y-99218750D01*
X68040928Y-99633000D01*
X55725146Y-99633000D01*
X55594035Y-99474514D01*
X55419816Y-99152304D01*
X55311498Y-98802385D01*
X55270000Y-98407557D01*
X55270000Y-96807872D01*
X56566000Y-96807872D01*
X56566000Y-97248128D01*
X56651890Y-97679925D01*
X56820369Y-98086669D01*
X57064962Y-98452729D01*
X57376271Y-98764038D01*
X57742331Y-99008631D01*
X58149075Y-99177110D01*
X58580872Y-99263000D01*
X59021128Y-99263000D01*
X59452925Y-99177110D01*
X59859669Y-99008631D01*
X60225729Y-98764038D01*
X60537038Y-98452729D01*
X60781631Y-98086669D01*
X60950110Y-97679925D01*
X61036000Y-97248128D01*
X61036000Y-96807872D01*
X60950110Y-96376075D01*
X60781631Y-95969331D01*
X60537038Y-95603271D01*
X60225729Y-95291962D01*
X59859669Y-95047369D01*
X59452925Y-94878890D01*
X59021128Y-94793000D01*
X58580872Y-94793000D01*
X58149075Y-94878890D01*
X57742331Y-95047369D01*
X57376271Y-95291962D01*
X57064962Y-95603271D01*
X56820369Y-95969331D01*
X56651890Y-96376075D01*
X56566000Y-96807872D01*
X55270000Y-96807872D01*
X55270000Y-69248872D01*
X56566000Y-69248872D01*
X56566000Y-69689128D01*
X56651890Y-70120925D01*
X56820369Y-70527669D01*
X57064962Y-70893729D01*
X57376271Y-71205038D01*
X57742331Y-71449631D01*
X58149075Y-71618110D01*
X58580872Y-71704000D01*
X59021128Y-71704000D01*
X59452925Y-71618110D01*
X59859669Y-71449631D01*
X60225729Y-71205038D01*
X60537038Y-70893729D01*
X60781631Y-70527669D01*
X60950110Y-70120925D01*
X61036000Y-69689128D01*
X61036000Y-69248872D01*
X60966096Y-68897440D01*
X66046045Y-68897440D01*
X66802000Y-69653395D01*
X67557955Y-68897440D01*
X67496068Y-68661632D01*
X67254210Y-68548734D01*
X66994973Y-68485189D01*
X66728320Y-68473439D01*
X66464499Y-68513937D01*
X66213647Y-68605125D01*
X66107932Y-68661632D01*
X66046045Y-68897440D01*
X60966096Y-68897440D01*
X60950110Y-68817075D01*
X60781631Y-68410331D01*
X60537038Y-68044271D01*
X60225729Y-67732962D01*
X59859669Y-67488369D01*
X59452925Y-67319890D01*
X59021128Y-67234000D01*
X58580872Y-67234000D01*
X58149075Y-67319890D01*
X57742331Y-67488369D01*
X57376271Y-67732962D01*
X57064962Y-68044271D01*
X56820369Y-68410331D01*
X56651890Y-68817075D01*
X56566000Y-69248872D01*
X55270000Y-69248872D01*
X55270000Y-67977279D01*
X55308909Y-67580455D01*
X55414780Y-67229792D01*
X55586744Y-66906375D01*
X55818254Y-66622516D01*
X56100486Y-66389035D01*
X56422695Y-66214817D01*
X56772614Y-66106498D01*
X57167443Y-66065000D01*
X119982721Y-66065000D01*
X120379545Y-66103909D01*
G37*
G04 #@! TD.AperFunction*
D23*
X66536188Y-93682518D02*
X66523928Y-93807000D01*
X66527000Y-93821250D01*
X66685750Y-93980000D01*
X68010000Y-93980000D01*
X68010000Y-93960000D01*
X68264000Y-93960000D01*
X68264000Y-93980000D01*
X68284000Y-93980000D01*
X68284000Y-94234000D01*
X68264000Y-94234000D01*
X68264000Y-94883250D01*
X68422750Y-95042000D01*
X68677010Y-95043133D01*
X68677010Y-95222876D01*
X68589149Y-95249528D01*
X68435613Y-95331595D01*
X68301038Y-95442038D01*
X68190595Y-95576613D01*
X68108528Y-95730149D01*
X68057992Y-95896745D01*
X68040928Y-96069999D01*
X68040928Y-96970001D01*
X68057992Y-97143255D01*
X68059428Y-97147990D01*
X67742792Y-97147990D01*
X67492803Y-96898002D01*
X67469001Y-96868999D01*
X67353276Y-96774026D01*
X67221247Y-96703454D01*
X67077986Y-96659997D01*
X66966333Y-96649000D01*
X66966322Y-96649000D01*
X66929000Y-96645324D01*
X66891678Y-96649000D01*
X65794178Y-96649000D01*
X65669475Y-96462368D01*
X65537620Y-96330513D01*
X65610180Y-96308502D01*
X65720494Y-96249537D01*
X65817185Y-96170185D01*
X65896537Y-96073494D01*
X65955502Y-95963180D01*
X65991812Y-95843482D01*
X66004072Y-95719000D01*
X66004072Y-94407000D01*
X66523928Y-94407000D01*
X66536188Y-94531482D01*
X66572498Y-94651180D01*
X66631463Y-94761494D01*
X66710815Y-94858185D01*
X66807506Y-94937537D01*
X66917820Y-94996502D01*
X67037518Y-95032812D01*
X67162000Y-95045072D01*
X67851250Y-95042000D01*
X68010000Y-94883250D01*
X68010000Y-94234000D01*
X66685750Y-94234000D01*
X66527000Y-94392750D01*
X66523928Y-94407000D01*
X66004072Y-94407000D01*
X66004072Y-94019000D01*
X65991812Y-93894518D01*
X65955502Y-93774820D01*
X65896537Y-93664506D01*
X65841136Y-93597000D01*
X66562130Y-93597000D01*
X66536188Y-93682518D01*
G04 #@! TA.AperFunction,Conductor*
D24*
G36*
X66536188Y-93682518D02*
G01*
X66523928Y-93807000D01*
X66527000Y-93821250D01*
X66685750Y-93980000D01*
X68010000Y-93980000D01*
X68010000Y-93960000D01*
X68264000Y-93960000D01*
X68264000Y-93980000D01*
X68284000Y-93980000D01*
X68284000Y-94234000D01*
X68264000Y-94234000D01*
X68264000Y-94883250D01*
X68422750Y-95042000D01*
X68677010Y-95043133D01*
X68677010Y-95222876D01*
X68589149Y-95249528D01*
X68435613Y-95331595D01*
X68301038Y-95442038D01*
X68190595Y-95576613D01*
X68108528Y-95730149D01*
X68057992Y-95896745D01*
X68040928Y-96069999D01*
X68040928Y-96970001D01*
X68057992Y-97143255D01*
X68059428Y-97147990D01*
X67742792Y-97147990D01*
X67492803Y-96898002D01*
X67469001Y-96868999D01*
X67353276Y-96774026D01*
X67221247Y-96703454D01*
X67077986Y-96659997D01*
X66966333Y-96649000D01*
X66966322Y-96649000D01*
X66929000Y-96645324D01*
X66891678Y-96649000D01*
X65794178Y-96649000D01*
X65669475Y-96462368D01*
X65537620Y-96330513D01*
X65610180Y-96308502D01*
X65720494Y-96249537D01*
X65817185Y-96170185D01*
X65896537Y-96073494D01*
X65955502Y-95963180D01*
X65991812Y-95843482D01*
X66004072Y-95719000D01*
X66004072Y-94407000D01*
X66523928Y-94407000D01*
X66536188Y-94531482D01*
X66572498Y-94651180D01*
X66631463Y-94761494D01*
X66710815Y-94858185D01*
X66807506Y-94937537D01*
X66917820Y-94996502D01*
X67037518Y-95032812D01*
X67162000Y-95045072D01*
X67851250Y-95042000D01*
X68010000Y-94883250D01*
X68010000Y-94234000D01*
X66685750Y-94234000D01*
X66527000Y-94392750D01*
X66523928Y-94407000D01*
X66004072Y-94407000D01*
X66004072Y-94019000D01*
X65991812Y-93894518D01*
X65955502Y-93774820D01*
X65896537Y-93664506D01*
X65841136Y-93597000D01*
X66562130Y-93597000D01*
X66536188Y-93682518D01*
G37*
G04 #@! TD.AperFunction*
D23*
X71533916Y-91115418D02*
X71489071Y-91263255D01*
X71473928Y-91417000D01*
X71473928Y-91717000D01*
X71489071Y-91870745D01*
X71533916Y-92018582D01*
X71548217Y-92045336D01*
X71466089Y-92029000D01*
X71281911Y-92029000D01*
X71101271Y-92064932D01*
X70931111Y-92135414D01*
X70777972Y-92237738D01*
X70647738Y-92367972D01*
X70545414Y-92521111D01*
X70474932Y-92691271D01*
X70439000Y-92871911D01*
X70439000Y-93056089D01*
X70474932Y-93236729D01*
X70545414Y-93406889D01*
X70647738Y-93560028D01*
X70777972Y-93690262D01*
X70931111Y-93792586D01*
X71101271Y-93863068D01*
X71281911Y-93899000D01*
X71466089Y-93899000D01*
X71479911Y-93896251D01*
X71473928Y-93957000D01*
X71473928Y-94257000D01*
X71489071Y-94410745D01*
X71533916Y-94558582D01*
X71606742Y-94694829D01*
X71704749Y-94814251D01*
X71824171Y-94912258D01*
X71960418Y-94985084D01*
X72108255Y-95029929D01*
X72262000Y-95045072D01*
X72327001Y-95045072D01*
X72327000Y-96547698D01*
X72116474Y-96758224D01*
X72005250Y-96647000D01*
X71143500Y-96647000D01*
X71143500Y-96667000D01*
X70889500Y-96667000D01*
X70889500Y-96647000D01*
X70869500Y-96647000D01*
X70869500Y-96393000D01*
X70889500Y-96393000D01*
X70889500Y-95343750D01*
X71143500Y-95343750D01*
X71143500Y-96393000D01*
X72005250Y-96393000D01*
X72164000Y-96234250D01*
X72167072Y-95820000D01*
X72154812Y-95695518D01*
X72118502Y-95575820D01*
X72059537Y-95465506D01*
X71980185Y-95368815D01*
X71883494Y-95289463D01*
X71773180Y-95230498D01*
X71653482Y-95194188D01*
X71529000Y-95181928D01*
X71302250Y-95185000D01*
X71143500Y-95343750D01*
X70889500Y-95343750D01*
X70730750Y-95185000D01*
X70504000Y-95181928D01*
X70379518Y-95194188D01*
X70259820Y-95230498D01*
X70197010Y-95264071D01*
X70197010Y-93199343D01*
X70200687Y-93162010D01*
X70186013Y-93013024D01*
X70142556Y-92869763D01*
X70125044Y-92837001D01*
X70071984Y-92737734D01*
X69977011Y-92622009D01*
X69948007Y-92598206D01*
X69675804Y-92326003D01*
X69652001Y-92296999D01*
X69635650Y-92283580D01*
X69617258Y-92249171D01*
X69578546Y-92202000D01*
X69617258Y-92154829D01*
X69690084Y-92018582D01*
X69734929Y-91870745D01*
X69750072Y-91717000D01*
X69750072Y-91417000D01*
X69745314Y-91368694D01*
X69802102Y-91392216D01*
X70002061Y-91431990D01*
X70205939Y-91431990D01*
X70405898Y-91392216D01*
X70594256Y-91314195D01*
X70763774Y-91200927D01*
X70907701Y-91057000D01*
X71565141Y-91057000D01*
X71533916Y-91115418D01*
G04 #@! TA.AperFunction,Conductor*
D24*
G36*
X71533916Y-91115418D02*
G01*
X71489071Y-91263255D01*
X71473928Y-91417000D01*
X71473928Y-91717000D01*
X71489071Y-91870745D01*
X71533916Y-92018582D01*
X71548217Y-92045336D01*
X71466089Y-92029000D01*
X71281911Y-92029000D01*
X71101271Y-92064932D01*
X70931111Y-92135414D01*
X70777972Y-92237738D01*
X70647738Y-92367972D01*
X70545414Y-92521111D01*
X70474932Y-92691271D01*
X70439000Y-92871911D01*
X70439000Y-93056089D01*
X70474932Y-93236729D01*
X70545414Y-93406889D01*
X70647738Y-93560028D01*
X70777972Y-93690262D01*
X70931111Y-93792586D01*
X71101271Y-93863068D01*
X71281911Y-93899000D01*
X71466089Y-93899000D01*
X71479911Y-93896251D01*
X71473928Y-93957000D01*
X71473928Y-94257000D01*
X71489071Y-94410745D01*
X71533916Y-94558582D01*
X71606742Y-94694829D01*
X71704749Y-94814251D01*
X71824171Y-94912258D01*
X71960418Y-94985084D01*
X72108255Y-95029929D01*
X72262000Y-95045072D01*
X72327001Y-95045072D01*
X72327000Y-96547698D01*
X72116474Y-96758224D01*
X72005250Y-96647000D01*
X71143500Y-96647000D01*
X71143500Y-96667000D01*
X70889500Y-96667000D01*
X70889500Y-96647000D01*
X70869500Y-96647000D01*
X70869500Y-96393000D01*
X70889500Y-96393000D01*
X70889500Y-95343750D01*
X71143500Y-95343750D01*
X71143500Y-96393000D01*
X72005250Y-96393000D01*
X72164000Y-96234250D01*
X72167072Y-95820000D01*
X72154812Y-95695518D01*
X72118502Y-95575820D01*
X72059537Y-95465506D01*
X71980185Y-95368815D01*
X71883494Y-95289463D01*
X71773180Y-95230498D01*
X71653482Y-95194188D01*
X71529000Y-95181928D01*
X71302250Y-95185000D01*
X71143500Y-95343750D01*
X70889500Y-95343750D01*
X70730750Y-95185000D01*
X70504000Y-95181928D01*
X70379518Y-95194188D01*
X70259820Y-95230498D01*
X70197010Y-95264071D01*
X70197010Y-93199343D01*
X70200687Y-93162010D01*
X70186013Y-93013024D01*
X70142556Y-92869763D01*
X70125044Y-92837001D01*
X70071984Y-92737734D01*
X69977011Y-92622009D01*
X69948007Y-92598206D01*
X69675804Y-92326003D01*
X69652001Y-92296999D01*
X69635650Y-92283580D01*
X69617258Y-92249171D01*
X69578546Y-92202000D01*
X69617258Y-92154829D01*
X69690084Y-92018582D01*
X69734929Y-91870745D01*
X69750072Y-91717000D01*
X69750072Y-91417000D01*
X69745314Y-91368694D01*
X69802102Y-91392216D01*
X70002061Y-91431990D01*
X70205939Y-91431990D01*
X70405898Y-91392216D01*
X70594256Y-91314195D01*
X70763774Y-91200927D01*
X70907701Y-91057000D01*
X71565141Y-91057000D01*
X71533916Y-91115418D01*
G37*
G04 #@! TD.AperFunction*
D23*
X87272896Y-71466698D02*
X87214089Y-71455000D01*
X87029911Y-71455000D01*
X86849271Y-71490932D01*
X86679111Y-71561414D01*
X86525972Y-71663738D01*
X86395738Y-71793972D01*
X86293414Y-71947111D01*
X86222932Y-72117271D01*
X86187000Y-72297911D01*
X86187000Y-72482089D01*
X86222932Y-72662729D01*
X86293414Y-72832889D01*
X86395738Y-72986028D01*
X86525972Y-73116262D01*
X86616001Y-73176417D01*
X86616001Y-73426668D01*
X86612324Y-73464000D01*
X86616001Y-73501333D01*
X86626998Y-73612986D01*
X86628947Y-73619411D01*
X86670454Y-73756246D01*
X86741026Y-73888276D01*
X86812201Y-73975002D01*
X86836000Y-74004001D01*
X86864998Y-74027799D01*
X87897201Y-75060003D01*
X87920999Y-75089001D01*
X87937350Y-75102420D01*
X87955742Y-75136829D01*
X87994454Y-75184000D01*
X87955742Y-75231171D01*
X87937350Y-75265580D01*
X87920999Y-75278999D01*
X87897201Y-75307997D01*
X86864998Y-76340201D01*
X86836000Y-76363999D01*
X86812202Y-76392997D01*
X86812201Y-76392998D01*
X86741026Y-76479724D01*
X86670454Y-76611754D01*
X86644365Y-76697763D01*
X86626998Y-76755014D01*
X86621285Y-76813015D01*
X86612324Y-76904000D01*
X86616001Y-76941332D01*
X86616000Y-77940464D01*
X86547414Y-78043111D01*
X86476932Y-78213271D01*
X86441000Y-78393911D01*
X86441000Y-78578089D01*
X86476932Y-78758729D01*
X86547414Y-78928889D01*
X86649738Y-79082028D01*
X86779972Y-79212262D01*
X86870001Y-79272417D01*
X86870000Y-82004464D01*
X86801414Y-82107111D01*
X86730932Y-82277271D01*
X86695000Y-82457911D01*
X86695000Y-82642089D01*
X86730932Y-82822729D01*
X86801414Y-82992889D01*
X86903738Y-83146028D01*
X87033972Y-83276262D01*
X87187111Y-83378586D01*
X87357271Y-83449068D01*
X87373001Y-83452197D01*
X86610998Y-84214201D01*
X86582000Y-84237999D01*
X86558202Y-84266997D01*
X86558201Y-84266998D01*
X86487026Y-84353724D01*
X86416454Y-84485754D01*
X86393928Y-84560015D01*
X86372998Y-84629014D01*
X86367950Y-84680271D01*
X86358324Y-84778000D01*
X86362001Y-84815332D01*
X86362001Y-85306464D01*
X86293414Y-85409111D01*
X86222932Y-85579271D01*
X86187000Y-85759911D01*
X86187000Y-85944089D01*
X86222932Y-86124729D01*
X86293414Y-86294889D01*
X86395738Y-86448028D01*
X86525972Y-86578262D01*
X86679111Y-86680586D01*
X86849271Y-86751068D01*
X87029911Y-86787000D01*
X87214089Y-86787000D01*
X87394729Y-86751068D01*
X87564889Y-86680586D01*
X87718028Y-86578262D01*
X87848262Y-86448028D01*
X87950586Y-86294889D01*
X88021068Y-86124729D01*
X88057000Y-85944089D01*
X88057000Y-85759911D01*
X88021068Y-85579271D01*
X87950586Y-85409111D01*
X87882000Y-85306465D01*
X87882000Y-85157562D01*
X87882916Y-85160582D01*
X87955742Y-85296829D01*
X88053749Y-85416251D01*
X88173171Y-85514258D01*
X88262159Y-85561823D01*
X88254932Y-85579271D01*
X88219000Y-85759911D01*
X88219000Y-85944089D01*
X88254932Y-86124729D01*
X88325414Y-86294889D01*
X88427738Y-86448028D01*
X88557972Y-86578262D01*
X88711111Y-86680586D01*
X88881271Y-86751068D01*
X89061911Y-86787000D01*
X89246089Y-86787000D01*
X89426729Y-86751068D01*
X89596889Y-86680586D01*
X89750028Y-86578262D01*
X89880262Y-86448028D01*
X89982586Y-86294889D01*
X90053068Y-86124729D01*
X90089000Y-85944089D01*
X90089000Y-85759911D01*
X90066555Y-85647072D01*
X90361000Y-85647072D01*
X90514745Y-85631929D01*
X90662582Y-85587084D01*
X90798829Y-85514258D01*
X90918251Y-85416251D01*
X91016258Y-85296829D01*
X91089084Y-85160582D01*
X91133929Y-85012745D01*
X91140533Y-84945700D01*
X91251111Y-85019586D01*
X91421271Y-85090068D01*
X91601911Y-85126000D01*
X91786089Y-85126000D01*
X91966729Y-85090068D01*
X92136889Y-85019586D01*
X92205501Y-84973741D01*
X92205500Y-88928672D01*
X92200494Y-88979500D01*
X92205500Y-89030328D01*
X92205500Y-89030337D01*
X92220476Y-89182394D01*
X92279659Y-89377492D01*
X92375766Y-89557297D01*
X92505104Y-89714896D01*
X92544597Y-89747307D01*
X92628428Y-89831138D01*
X92628428Y-91068000D01*
X92645492Y-91241254D01*
X92696028Y-91407850D01*
X92778095Y-91561386D01*
X92888538Y-91695962D01*
X93023114Y-91806405D01*
X93176650Y-91888472D01*
X93343246Y-91939008D01*
X93516500Y-91956072D01*
X95091500Y-91956072D01*
X95264754Y-91939008D01*
X95431350Y-91888472D01*
X95584886Y-91806405D01*
X95719462Y-91695962D01*
X95829905Y-91561386D01*
X95911972Y-91407850D01*
X95962508Y-91241254D01*
X95979572Y-91068000D01*
X95979572Y-89018000D01*
X95962508Y-88844746D01*
X95911972Y-88678150D01*
X95829905Y-88524614D01*
X95719462Y-88390038D01*
X95584886Y-88279595D01*
X95431350Y-88197528D01*
X95264754Y-88146992D01*
X95091500Y-88129928D01*
X94275500Y-88129928D01*
X94275500Y-84501000D01*
X94326089Y-84501000D01*
X94506729Y-84465068D01*
X94676889Y-84394586D01*
X94830028Y-84292262D01*
X94960262Y-84162028D01*
X95062586Y-84008889D01*
X95133068Y-83838729D01*
X95169000Y-83658089D01*
X95169000Y-83473911D01*
X95133068Y-83293271D01*
X95062586Y-83123111D01*
X94994000Y-83020465D01*
X94994000Y-83008750D01*
X95013500Y-82989250D01*
X95013500Y-81915000D01*
X94994000Y-81915000D01*
X94994000Y-81661000D01*
X95013500Y-81661000D01*
X95013500Y-80586750D01*
X94994000Y-80567250D01*
X94994000Y-80288417D01*
X95084028Y-80228262D01*
X95205510Y-80106780D01*
X95205510Y-81196187D01*
X95201834Y-81233510D01*
X95205510Y-81270832D01*
X95205510Y-81270842D01*
X95216507Y-81382495D01*
X95258522Y-81521002D01*
X95259964Y-81525756D01*
X95267500Y-81539855D01*
X95267500Y-81661000D01*
X95287500Y-81661000D01*
X95287500Y-81915000D01*
X95267500Y-81915000D01*
X95267500Y-82989250D01*
X95426250Y-83148000D01*
X95640500Y-83151072D01*
X95764982Y-83138812D01*
X95884680Y-83102502D01*
X95994994Y-83043537D01*
X96091685Y-82964185D01*
X96171037Y-82867494D01*
X96230002Y-82757180D01*
X96266312Y-82637482D01*
X96268855Y-82611657D01*
X96337200Y-82680002D01*
X96360999Y-82709001D01*
X96476724Y-82803974D01*
X96608753Y-82874546D01*
X96752014Y-82918003D01*
X96863667Y-82929000D01*
X96863675Y-82929000D01*
X96901000Y-82932676D01*
X96938325Y-82929000D01*
X98124099Y-82929000D01*
X98146068Y-82970101D01*
X98325392Y-83188608D01*
X98543899Y-83367932D01*
X98676858Y-83439000D01*
X98543899Y-83510068D01*
X98325392Y-83689392D01*
X98146068Y-83907899D01*
X98012818Y-84157192D01*
X97971959Y-84291887D01*
X97882089Y-84274010D01*
X97697911Y-84274010D01*
X97517271Y-84309942D01*
X97347111Y-84380424D01*
X97193972Y-84482748D01*
X97063738Y-84612982D01*
X96961414Y-84766121D01*
X96890932Y-84936281D01*
X96855000Y-85116921D01*
X96855000Y-85301099D01*
X96890932Y-85481739D01*
X96961414Y-85651899D01*
X97063738Y-85805038D01*
X97193972Y-85935272D01*
X97347111Y-86037596D01*
X97517271Y-86108078D01*
X97638351Y-86132163D01*
X98079196Y-86573008D01*
X98012818Y-86697192D01*
X97930764Y-86967691D01*
X97903057Y-87249000D01*
X97930764Y-87530309D01*
X98012818Y-87800808D01*
X98078751Y-87924160D01*
X97700229Y-88360801D01*
X97644271Y-88371932D01*
X97474111Y-88442414D01*
X97320972Y-88544738D01*
X97190738Y-88674972D01*
X97088414Y-88828111D01*
X97017932Y-88998271D01*
X96982000Y-89178911D01*
X96982000Y-89363089D01*
X97017932Y-89543729D01*
X97088414Y-89713889D01*
X97190738Y-89867028D01*
X97320972Y-89997262D01*
X97474111Y-90099586D01*
X97644271Y-90170068D01*
X97824911Y-90206000D01*
X97971925Y-90206000D01*
X98012818Y-90340808D01*
X98146068Y-90590101D01*
X98325392Y-90808608D01*
X98543899Y-90987932D01*
X98676858Y-91059000D01*
X98543899Y-91130068D01*
X98325392Y-91309392D01*
X98146068Y-91527899D01*
X98012818Y-91777192D01*
X97930764Y-92047691D01*
X97903057Y-92329000D01*
X97930764Y-92610309D01*
X98012818Y-92880808D01*
X98146068Y-93130101D01*
X98325392Y-93348608D01*
X98543899Y-93527932D01*
X98676858Y-93599000D01*
X78260701Y-93599000D01*
X78274502Y-93573180D01*
X78310812Y-93453482D01*
X78323072Y-93329000D01*
X78323072Y-91329000D01*
X78310812Y-91204518D01*
X78274502Y-91084820D01*
X78215537Y-90974506D01*
X78136185Y-90877815D01*
X78039494Y-90798463D01*
X77951524Y-90751441D01*
X78083932Y-90590101D01*
X78217182Y-90340808D01*
X78299236Y-90070309D01*
X78326943Y-89789000D01*
X78299236Y-89507691D01*
X78217182Y-89237192D01*
X78083932Y-88987899D01*
X77904608Y-88769392D01*
X77686101Y-88590068D01*
X77553142Y-88519000D01*
X77686101Y-88447932D01*
X77904608Y-88268608D01*
X78083932Y-88050101D01*
X78217182Y-87800808D01*
X78299236Y-87530309D01*
X78310889Y-87412000D01*
X78324089Y-87412000D01*
X78504729Y-87376068D01*
X78674889Y-87305586D01*
X78828028Y-87203262D01*
X78958262Y-87073028D01*
X79060586Y-86919889D01*
X79131068Y-86749729D01*
X79167000Y-86569089D01*
X79167000Y-86384911D01*
X79131068Y-86204271D01*
X79060586Y-86034111D01*
X78958262Y-85880972D01*
X78828028Y-85750738D01*
X78674889Y-85648414D01*
X78504729Y-85577932D01*
X78381820Y-85553484D01*
X78303266Y-85489016D01*
X78171237Y-85418444D01*
X78138269Y-85408443D01*
X78217182Y-85260808D01*
X78299236Y-84990309D01*
X78305357Y-84928160D01*
X78597205Y-85220008D01*
X78620999Y-85249001D01*
X78637350Y-85262420D01*
X78655742Y-85296829D01*
X78753749Y-85416251D01*
X78873171Y-85514258D01*
X79009418Y-85587084D01*
X79157255Y-85631929D01*
X79311000Y-85647072D01*
X81061000Y-85647072D01*
X81214745Y-85631929D01*
X81362582Y-85587084D01*
X81498829Y-85514258D01*
X81511763Y-85503643D01*
X81536000Y-85508464D01*
X81536000Y-86299198D01*
X80242587Y-87592612D01*
X80198889Y-87563414D01*
X80028729Y-87492932D01*
X79848089Y-87457000D01*
X79663911Y-87457000D01*
X79483271Y-87492932D01*
X79313111Y-87563414D01*
X79159972Y-87665738D01*
X79029738Y-87795972D01*
X78927414Y-87949111D01*
X78856932Y-88119271D01*
X78821000Y-88299911D01*
X78821000Y-88484089D01*
X78856932Y-88664729D01*
X78927414Y-88834889D01*
X79029738Y-88988028D01*
X79159972Y-89118262D01*
X79313111Y-89220586D01*
X79483271Y-89291068D01*
X79663911Y-89327000D01*
X79848089Y-89327000D01*
X80028729Y-89291068D01*
X80198889Y-89220586D01*
X80301535Y-89152000D01*
X80480678Y-89152000D01*
X80518000Y-89155676D01*
X80555322Y-89152000D01*
X80555333Y-89152000D01*
X80666986Y-89141003D01*
X80810247Y-89097546D01*
X80942276Y-89026974D01*
X81058001Y-88932001D01*
X81081804Y-88902997D01*
X82552000Y-87432801D01*
X82552000Y-90386464D01*
X82483414Y-90489111D01*
X82412932Y-90659271D01*
X82377000Y-90839911D01*
X82377000Y-91024089D01*
X82412932Y-91204729D01*
X82483414Y-91374889D01*
X82585738Y-91528028D01*
X82715972Y-91658262D01*
X82869111Y-91760586D01*
X83039271Y-91831068D01*
X83219911Y-91867000D01*
X83404089Y-91867000D01*
X83584729Y-91831068D01*
X83754889Y-91760586D01*
X83908028Y-91658262D01*
X84038262Y-91528028D01*
X84140586Y-91374889D01*
X84164150Y-91318000D01*
X86403428Y-91318000D01*
X86415688Y-91442482D01*
X86451998Y-91562180D01*
X86510963Y-91672494D01*
X86590315Y-91769185D01*
X86687006Y-91848537D01*
X86797320Y-91907502D01*
X86917018Y-91943812D01*
X87041500Y-91956072D01*
X87793250Y-91953000D01*
X87952000Y-91794250D01*
X87952000Y-90170000D01*
X88206000Y-90170000D01*
X88206000Y-91794250D01*
X88364750Y-91953000D01*
X89116500Y-91956072D01*
X89240982Y-91943812D01*
X89360680Y-91907502D01*
X89470994Y-91848537D01*
X89567685Y-91769185D01*
X89647037Y-91672494D01*
X89706002Y-91562180D01*
X89742312Y-91442482D01*
X89754572Y-91318000D01*
X89751500Y-90328750D01*
X89592750Y-90170000D01*
X88206000Y-90170000D01*
X87952000Y-90170000D01*
X86565250Y-90170000D01*
X86406500Y-90328750D01*
X86403428Y-91318000D01*
X84164150Y-91318000D01*
X84211068Y-91204729D01*
X84247000Y-91024089D01*
X84247000Y-90839911D01*
X84211068Y-90659271D01*
X84140586Y-90489111D01*
X84072000Y-90386465D01*
X84072000Y-88768000D01*
X86403428Y-88768000D01*
X86406500Y-89757250D01*
X86565250Y-89916000D01*
X87952000Y-89916000D01*
X87952000Y-88291750D01*
X88206000Y-88291750D01*
X88206000Y-89916000D01*
X89592750Y-89916000D01*
X89751500Y-89757250D01*
X89754572Y-88768000D01*
X89742312Y-88643518D01*
X89706002Y-88523820D01*
X89647037Y-88413506D01*
X89567685Y-88316815D01*
X89470994Y-88237463D01*
X89360680Y-88178498D01*
X89240982Y-88142188D01*
X89116500Y-88129928D01*
X88364750Y-88133000D01*
X88206000Y-88291750D01*
X87952000Y-88291750D01*
X87793250Y-88133000D01*
X87041500Y-88129928D01*
X86917018Y-88142188D01*
X86797320Y-88178498D01*
X86687006Y-88237463D01*
X86590315Y-88316815D01*
X86510963Y-88413506D01*
X86451998Y-88523820D01*
X86415688Y-88643518D01*
X86403428Y-88768000D01*
X84072000Y-88768000D01*
X84072000Y-88024396D01*
X84235911Y-88057000D01*
X84420089Y-88057000D01*
X84600729Y-88021068D01*
X84770889Y-87950586D01*
X84924028Y-87848262D01*
X85054262Y-87718028D01*
X85156586Y-87564889D01*
X85227068Y-87394729D01*
X85263000Y-87214089D01*
X85263000Y-87029911D01*
X85227068Y-86849271D01*
X85156586Y-86679111D01*
X85088000Y-86576465D01*
X85088000Y-72277191D01*
X85108729Y-72273068D01*
X85278889Y-72202586D01*
X85432028Y-72100262D01*
X85562262Y-71970028D01*
X85664586Y-71816889D01*
X85735068Y-71646729D01*
X85771000Y-71466089D01*
X85771000Y-71372000D01*
X87178199Y-71372000D01*
X87272896Y-71466698D01*
G04 #@! TA.AperFunction,Conductor*
D24*
G36*
X87272896Y-71466698D02*
G01*
X87214089Y-71455000D01*
X87029911Y-71455000D01*
X86849271Y-71490932D01*
X86679111Y-71561414D01*
X86525972Y-71663738D01*
X86395738Y-71793972D01*
X86293414Y-71947111D01*
X86222932Y-72117271D01*
X86187000Y-72297911D01*
X86187000Y-72482089D01*
X86222932Y-72662729D01*
X86293414Y-72832889D01*
X86395738Y-72986028D01*
X86525972Y-73116262D01*
X86616001Y-73176417D01*
X86616001Y-73426668D01*
X86612324Y-73464000D01*
X86616001Y-73501333D01*
X86626998Y-73612986D01*
X86628947Y-73619411D01*
X86670454Y-73756246D01*
X86741026Y-73888276D01*
X86812201Y-73975002D01*
X86836000Y-74004001D01*
X86864998Y-74027799D01*
X87897201Y-75060003D01*
X87920999Y-75089001D01*
X87937350Y-75102420D01*
X87955742Y-75136829D01*
X87994454Y-75184000D01*
X87955742Y-75231171D01*
X87937350Y-75265580D01*
X87920999Y-75278999D01*
X87897201Y-75307997D01*
X86864998Y-76340201D01*
X86836000Y-76363999D01*
X86812202Y-76392997D01*
X86812201Y-76392998D01*
X86741026Y-76479724D01*
X86670454Y-76611754D01*
X86644365Y-76697763D01*
X86626998Y-76755014D01*
X86621285Y-76813015D01*
X86612324Y-76904000D01*
X86616001Y-76941332D01*
X86616000Y-77940464D01*
X86547414Y-78043111D01*
X86476932Y-78213271D01*
X86441000Y-78393911D01*
X86441000Y-78578089D01*
X86476932Y-78758729D01*
X86547414Y-78928889D01*
X86649738Y-79082028D01*
X86779972Y-79212262D01*
X86870001Y-79272417D01*
X86870000Y-82004464D01*
X86801414Y-82107111D01*
X86730932Y-82277271D01*
X86695000Y-82457911D01*
X86695000Y-82642089D01*
X86730932Y-82822729D01*
X86801414Y-82992889D01*
X86903738Y-83146028D01*
X87033972Y-83276262D01*
X87187111Y-83378586D01*
X87357271Y-83449068D01*
X87373001Y-83452197D01*
X86610998Y-84214201D01*
X86582000Y-84237999D01*
X86558202Y-84266997D01*
X86558201Y-84266998D01*
X86487026Y-84353724D01*
X86416454Y-84485754D01*
X86393928Y-84560015D01*
X86372998Y-84629014D01*
X86367950Y-84680271D01*
X86358324Y-84778000D01*
X86362001Y-84815332D01*
X86362001Y-85306464D01*
X86293414Y-85409111D01*
X86222932Y-85579271D01*
X86187000Y-85759911D01*
X86187000Y-85944089D01*
X86222932Y-86124729D01*
X86293414Y-86294889D01*
X86395738Y-86448028D01*
X86525972Y-86578262D01*
X86679111Y-86680586D01*
X86849271Y-86751068D01*
X87029911Y-86787000D01*
X87214089Y-86787000D01*
X87394729Y-86751068D01*
X87564889Y-86680586D01*
X87718028Y-86578262D01*
X87848262Y-86448028D01*
X87950586Y-86294889D01*
X88021068Y-86124729D01*
X88057000Y-85944089D01*
X88057000Y-85759911D01*
X88021068Y-85579271D01*
X87950586Y-85409111D01*
X87882000Y-85306465D01*
X87882000Y-85157562D01*
X87882916Y-85160582D01*
X87955742Y-85296829D01*
X88053749Y-85416251D01*
X88173171Y-85514258D01*
X88262159Y-85561823D01*
X88254932Y-85579271D01*
X88219000Y-85759911D01*
X88219000Y-85944089D01*
X88254932Y-86124729D01*
X88325414Y-86294889D01*
X88427738Y-86448028D01*
X88557972Y-86578262D01*
X88711111Y-86680586D01*
X88881271Y-86751068D01*
X89061911Y-86787000D01*
X89246089Y-86787000D01*
X89426729Y-86751068D01*
X89596889Y-86680586D01*
X89750028Y-86578262D01*
X89880262Y-86448028D01*
X89982586Y-86294889D01*
X90053068Y-86124729D01*
X90089000Y-85944089D01*
X90089000Y-85759911D01*
X90066555Y-85647072D01*
X90361000Y-85647072D01*
X90514745Y-85631929D01*
X90662582Y-85587084D01*
X90798829Y-85514258D01*
X90918251Y-85416251D01*
X91016258Y-85296829D01*
X91089084Y-85160582D01*
X91133929Y-85012745D01*
X91140533Y-84945700D01*
X91251111Y-85019586D01*
X91421271Y-85090068D01*
X91601911Y-85126000D01*
X91786089Y-85126000D01*
X91966729Y-85090068D01*
X92136889Y-85019586D01*
X92205501Y-84973741D01*
X92205500Y-88928672D01*
X92200494Y-88979500D01*
X92205500Y-89030328D01*
X92205500Y-89030337D01*
X92220476Y-89182394D01*
X92279659Y-89377492D01*
X92375766Y-89557297D01*
X92505104Y-89714896D01*
X92544597Y-89747307D01*
X92628428Y-89831138D01*
X92628428Y-91068000D01*
X92645492Y-91241254D01*
X92696028Y-91407850D01*
X92778095Y-91561386D01*
X92888538Y-91695962D01*
X93023114Y-91806405D01*
X93176650Y-91888472D01*
X93343246Y-91939008D01*
X93516500Y-91956072D01*
X95091500Y-91956072D01*
X95264754Y-91939008D01*
X95431350Y-91888472D01*
X95584886Y-91806405D01*
X95719462Y-91695962D01*
X95829905Y-91561386D01*
X95911972Y-91407850D01*
X95962508Y-91241254D01*
X95979572Y-91068000D01*
X95979572Y-89018000D01*
X95962508Y-88844746D01*
X95911972Y-88678150D01*
X95829905Y-88524614D01*
X95719462Y-88390038D01*
X95584886Y-88279595D01*
X95431350Y-88197528D01*
X95264754Y-88146992D01*
X95091500Y-88129928D01*
X94275500Y-88129928D01*
X94275500Y-84501000D01*
X94326089Y-84501000D01*
X94506729Y-84465068D01*
X94676889Y-84394586D01*
X94830028Y-84292262D01*
X94960262Y-84162028D01*
X95062586Y-84008889D01*
X95133068Y-83838729D01*
X95169000Y-83658089D01*
X95169000Y-83473911D01*
X95133068Y-83293271D01*
X95062586Y-83123111D01*
X94994000Y-83020465D01*
X94994000Y-83008750D01*
X95013500Y-82989250D01*
X95013500Y-81915000D01*
X94994000Y-81915000D01*
X94994000Y-81661000D01*
X95013500Y-81661000D01*
X95013500Y-80586750D01*
X94994000Y-80567250D01*
X94994000Y-80288417D01*
X95084028Y-80228262D01*
X95205510Y-80106780D01*
X95205510Y-81196187D01*
X95201834Y-81233510D01*
X95205510Y-81270832D01*
X95205510Y-81270842D01*
X95216507Y-81382495D01*
X95258522Y-81521002D01*
X95259964Y-81525756D01*
X95267500Y-81539855D01*
X95267500Y-81661000D01*
X95287500Y-81661000D01*
X95287500Y-81915000D01*
X95267500Y-81915000D01*
X95267500Y-82989250D01*
X95426250Y-83148000D01*
X95640500Y-83151072D01*
X95764982Y-83138812D01*
X95884680Y-83102502D01*
X95994994Y-83043537D01*
X96091685Y-82964185D01*
X96171037Y-82867494D01*
X96230002Y-82757180D01*
X96266312Y-82637482D01*
X96268855Y-82611657D01*
X96337200Y-82680002D01*
X96360999Y-82709001D01*
X96476724Y-82803974D01*
X96608753Y-82874546D01*
X96752014Y-82918003D01*
X96863667Y-82929000D01*
X96863675Y-82929000D01*
X96901000Y-82932676D01*
X96938325Y-82929000D01*
X98124099Y-82929000D01*
X98146068Y-82970101D01*
X98325392Y-83188608D01*
X98543899Y-83367932D01*
X98676858Y-83439000D01*
X98543899Y-83510068D01*
X98325392Y-83689392D01*
X98146068Y-83907899D01*
X98012818Y-84157192D01*
X97971959Y-84291887D01*
X97882089Y-84274010D01*
X97697911Y-84274010D01*
X97517271Y-84309942D01*
X97347111Y-84380424D01*
X97193972Y-84482748D01*
X97063738Y-84612982D01*
X96961414Y-84766121D01*
X96890932Y-84936281D01*
X96855000Y-85116921D01*
X96855000Y-85301099D01*
X96890932Y-85481739D01*
X96961414Y-85651899D01*
X97063738Y-85805038D01*
X97193972Y-85935272D01*
X97347111Y-86037596D01*
X97517271Y-86108078D01*
X97638351Y-86132163D01*
X98079196Y-86573008D01*
X98012818Y-86697192D01*
X97930764Y-86967691D01*
X97903057Y-87249000D01*
X97930764Y-87530309D01*
X98012818Y-87800808D01*
X98078751Y-87924160D01*
X97700229Y-88360801D01*
X97644271Y-88371932D01*
X97474111Y-88442414D01*
X97320972Y-88544738D01*
X97190738Y-88674972D01*
X97088414Y-88828111D01*
X97017932Y-88998271D01*
X96982000Y-89178911D01*
X96982000Y-89363089D01*
X97017932Y-89543729D01*
X97088414Y-89713889D01*
X97190738Y-89867028D01*
X97320972Y-89997262D01*
X97474111Y-90099586D01*
X97644271Y-90170068D01*
X97824911Y-90206000D01*
X97971925Y-90206000D01*
X98012818Y-90340808D01*
X98146068Y-90590101D01*
X98325392Y-90808608D01*
X98543899Y-90987932D01*
X98676858Y-91059000D01*
X98543899Y-91130068D01*
X98325392Y-91309392D01*
X98146068Y-91527899D01*
X98012818Y-91777192D01*
X97930764Y-92047691D01*
X97903057Y-92329000D01*
X97930764Y-92610309D01*
X98012818Y-92880808D01*
X98146068Y-93130101D01*
X98325392Y-93348608D01*
X98543899Y-93527932D01*
X98676858Y-93599000D01*
X78260701Y-93599000D01*
X78274502Y-93573180D01*
X78310812Y-93453482D01*
X78323072Y-93329000D01*
X78323072Y-91329000D01*
X78310812Y-91204518D01*
X78274502Y-91084820D01*
X78215537Y-90974506D01*
X78136185Y-90877815D01*
X78039494Y-90798463D01*
X77951524Y-90751441D01*
X78083932Y-90590101D01*
X78217182Y-90340808D01*
X78299236Y-90070309D01*
X78326943Y-89789000D01*
X78299236Y-89507691D01*
X78217182Y-89237192D01*
X78083932Y-88987899D01*
X77904608Y-88769392D01*
X77686101Y-88590068D01*
X77553142Y-88519000D01*
X77686101Y-88447932D01*
X77904608Y-88268608D01*
X78083932Y-88050101D01*
X78217182Y-87800808D01*
X78299236Y-87530309D01*
X78310889Y-87412000D01*
X78324089Y-87412000D01*
X78504729Y-87376068D01*
X78674889Y-87305586D01*
X78828028Y-87203262D01*
X78958262Y-87073028D01*
X79060586Y-86919889D01*
X79131068Y-86749729D01*
X79167000Y-86569089D01*
X79167000Y-86384911D01*
X79131068Y-86204271D01*
X79060586Y-86034111D01*
X78958262Y-85880972D01*
X78828028Y-85750738D01*
X78674889Y-85648414D01*
X78504729Y-85577932D01*
X78381820Y-85553484D01*
X78303266Y-85489016D01*
X78171237Y-85418444D01*
X78138269Y-85408443D01*
X78217182Y-85260808D01*
X78299236Y-84990309D01*
X78305357Y-84928160D01*
X78597205Y-85220008D01*
X78620999Y-85249001D01*
X78637350Y-85262420D01*
X78655742Y-85296829D01*
X78753749Y-85416251D01*
X78873171Y-85514258D01*
X79009418Y-85587084D01*
X79157255Y-85631929D01*
X79311000Y-85647072D01*
X81061000Y-85647072D01*
X81214745Y-85631929D01*
X81362582Y-85587084D01*
X81498829Y-85514258D01*
X81511763Y-85503643D01*
X81536000Y-85508464D01*
X81536000Y-86299198D01*
X80242587Y-87592612D01*
X80198889Y-87563414D01*
X80028729Y-87492932D01*
X79848089Y-87457000D01*
X79663911Y-87457000D01*
X79483271Y-87492932D01*
X79313111Y-87563414D01*
X79159972Y-87665738D01*
X79029738Y-87795972D01*
X78927414Y-87949111D01*
X78856932Y-88119271D01*
X78821000Y-88299911D01*
X78821000Y-88484089D01*
X78856932Y-88664729D01*
X78927414Y-88834889D01*
X79029738Y-88988028D01*
X79159972Y-89118262D01*
X79313111Y-89220586D01*
X79483271Y-89291068D01*
X79663911Y-89327000D01*
X79848089Y-89327000D01*
X80028729Y-89291068D01*
X80198889Y-89220586D01*
X80301535Y-89152000D01*
X80480678Y-89152000D01*
X80518000Y-89155676D01*
X80555322Y-89152000D01*
X80555333Y-89152000D01*
X80666986Y-89141003D01*
X80810247Y-89097546D01*
X80942276Y-89026974D01*
X81058001Y-88932001D01*
X81081804Y-88902997D01*
X82552000Y-87432801D01*
X82552000Y-90386464D01*
X82483414Y-90489111D01*
X82412932Y-90659271D01*
X82377000Y-90839911D01*
X82377000Y-91024089D01*
X82412932Y-91204729D01*
X82483414Y-91374889D01*
X82585738Y-91528028D01*
X82715972Y-91658262D01*
X82869111Y-91760586D01*
X83039271Y-91831068D01*
X83219911Y-91867000D01*
X83404089Y-91867000D01*
X83584729Y-91831068D01*
X83754889Y-91760586D01*
X83908028Y-91658262D01*
X84038262Y-91528028D01*
X84140586Y-91374889D01*
X84164150Y-91318000D01*
X86403428Y-91318000D01*
X86415688Y-91442482D01*
X86451998Y-91562180D01*
X86510963Y-91672494D01*
X86590315Y-91769185D01*
X86687006Y-91848537D01*
X86797320Y-91907502D01*
X86917018Y-91943812D01*
X87041500Y-91956072D01*
X87793250Y-91953000D01*
X87952000Y-91794250D01*
X87952000Y-90170000D01*
X88206000Y-90170000D01*
X88206000Y-91794250D01*
X88364750Y-91953000D01*
X89116500Y-91956072D01*
X89240982Y-91943812D01*
X89360680Y-91907502D01*
X89470994Y-91848537D01*
X89567685Y-91769185D01*
X89647037Y-91672494D01*
X89706002Y-91562180D01*
X89742312Y-91442482D01*
X89754572Y-91318000D01*
X89751500Y-90328750D01*
X89592750Y-90170000D01*
X88206000Y-90170000D01*
X87952000Y-90170000D01*
X86565250Y-90170000D01*
X86406500Y-90328750D01*
X86403428Y-91318000D01*
X84164150Y-91318000D01*
X84211068Y-91204729D01*
X84247000Y-91024089D01*
X84247000Y-90839911D01*
X84211068Y-90659271D01*
X84140586Y-90489111D01*
X84072000Y-90386465D01*
X84072000Y-88768000D01*
X86403428Y-88768000D01*
X86406500Y-89757250D01*
X86565250Y-89916000D01*
X87952000Y-89916000D01*
X87952000Y-88291750D01*
X88206000Y-88291750D01*
X88206000Y-89916000D01*
X89592750Y-89916000D01*
X89751500Y-89757250D01*
X89754572Y-88768000D01*
X89742312Y-88643518D01*
X89706002Y-88523820D01*
X89647037Y-88413506D01*
X89567685Y-88316815D01*
X89470994Y-88237463D01*
X89360680Y-88178498D01*
X89240982Y-88142188D01*
X89116500Y-88129928D01*
X88364750Y-88133000D01*
X88206000Y-88291750D01*
X87952000Y-88291750D01*
X87793250Y-88133000D01*
X87041500Y-88129928D01*
X86917018Y-88142188D01*
X86797320Y-88178498D01*
X86687006Y-88237463D01*
X86590315Y-88316815D01*
X86510963Y-88413506D01*
X86451998Y-88523820D01*
X86415688Y-88643518D01*
X86403428Y-88768000D01*
X84072000Y-88768000D01*
X84072000Y-88024396D01*
X84235911Y-88057000D01*
X84420089Y-88057000D01*
X84600729Y-88021068D01*
X84770889Y-87950586D01*
X84924028Y-87848262D01*
X85054262Y-87718028D01*
X85156586Y-87564889D01*
X85227068Y-87394729D01*
X85263000Y-87214089D01*
X85263000Y-87029911D01*
X85227068Y-86849271D01*
X85156586Y-86679111D01*
X85088000Y-86576465D01*
X85088000Y-72277191D01*
X85108729Y-72273068D01*
X85278889Y-72202586D01*
X85432028Y-72100262D01*
X85562262Y-71970028D01*
X85664586Y-71816889D01*
X85735068Y-71646729D01*
X85771000Y-71466089D01*
X85771000Y-71372000D01*
X87178199Y-71372000D01*
X87272896Y-71466698D01*
G37*
G04 #@! TD.AperFunction*
D23*
X99672000Y-76962000D02*
X99692000Y-76962000D01*
X99692000Y-77216000D01*
X99672000Y-77216000D01*
X99672000Y-77236000D01*
X99418000Y-77236000D01*
X99418000Y-77216000D01*
X99398000Y-77216000D01*
X99398000Y-76962000D01*
X99418000Y-76962000D01*
X99418000Y-76942000D01*
X99672000Y-76942000D01*
X99672000Y-76962000D01*
G04 #@! TA.AperFunction,Conductor*
D24*
G36*
X99672000Y-76962000D02*
G01*
X99692000Y-76962000D01*
X99692000Y-77216000D01*
X99672000Y-77216000D01*
X99672000Y-77236000D01*
X99418000Y-77236000D01*
X99418000Y-77216000D01*
X99398000Y-77216000D01*
X99398000Y-76962000D01*
X99418000Y-76962000D01*
X99418000Y-76942000D01*
X99672000Y-76942000D01*
X99672000Y-76962000D01*
G37*
G04 #@! TD.AperFunction*
G04 #@! TD*
M02*
