M48
; DRILL file {KiCad (5.1.9)-1} date 11/02/21 13:36:51
; FORMAT={-:-/ absolute / inch / decimal}
; #@! TF.CreationDate,2021-11-02T13:36:51-07:00
; #@! TF.GenerationSoftware,Kicad,Pcbnew,(5.1.9)-1
FMAT,2
INCH
T1C0.0118
T2C0.0157
T3C0.0300
T4C0.0315
T5C0.0354
T6C0.0394
T7C0.1260
%
G90
G05
T1
X2.23Y-3.07
X2.23Y-3.11
X2.23Y-3.15
X2.275Y-3.07
X2.275Y-3.11
X2.275Y-3.15
X2.54Y-2.77
X2.59Y-3.61
X2.65Y-3.755
X2.65Y-3.785
X2.76Y-3.62
X2.78Y-3.705
X2.8Y-3.605
X2.805Y-3.73
X2.81Y-3.66
X2.8196Y-3.12
X2.83Y-3.0162
X2.845Y-3.77
X2.86Y-3.3446
X2.87Y-3.23
X2.88Y-2.8554
X2.88Y-2.98
X2.8854Y-3.17
X2.91Y-3.0408
X2.91Y-3.39
X2.92Y-3.25
X2.93Y-3.5058
X2.94Y-3.0654
X2.95Y-3.57
X2.96Y-3.35
X2.9619Y-3.2064
X3.02Y-2.79
X3.08Y-3.4046
X3.09Y-3.14
X3.0932Y-3.2768
X3.1Y-2.935
X3.14Y-3.48
X3.21Y-2.935
X3.21Y-3.29
X3.2154Y-3.33
X3.22Y-3.03
X3.225Y-2.99
X3.25Y-2.625
X3.25Y-2.6762
X3.25Y-2.8446
X3.25Y-2.905
X3.25Y-2.96
X3.28Y-2.905
X3.28Y-3.58
X3.3012Y-2.625
X3.3012Y-2.6762
X3.32Y-3.43
X3.34Y-2.81
X3.3524Y-2.625
X3.3524Y-2.6762
X3.37Y-2.905
X3.4Y-2.915
X3.4035Y-2.625
X3.4035Y-2.6762
X3.43Y-2.85
X3.43Y-3.38
X3.44Y-3.09
X3.45Y-3.25
X3.4646Y-2.8714
X3.51Y-3.38
X3.59Y-3.16
X3.61Y-3.3146
X3.63Y-3.17
X3.635Y-2.765
X3.685Y-2.76
X3.71Y-3.29
X3.72Y-2.98
X3.72Y-3.13
X3.7804Y-3.065
X3.805Y-3.13
X3.825Y-2.945
X3.83Y-3.05
X3.84Y-3.21
X3.85Y-3.3547
X3.855Y-3.5146
X3.97Y-3.39
X4.0Y-3.5546
X4.04Y-2.64
X4.04Y-2.6912
X4.04Y-2.81
X4.05Y-3.5
X4.06Y-3.4254
X4.0912Y-2.64
X4.0912Y-2.6912
X4.1Y-3.4754
X4.1424Y-2.64
X4.1424Y-2.6912
X4.18Y-3.05
X4.1935Y-2.64
X4.1935Y-2.6912
X4.21Y-3.035
X4.24Y-3.05
X4.2447Y-2.64
X4.2447Y-2.6912
T2
X2.655Y-3.5147
X2.76Y-3.5589
X2.81Y-2.92
X3.08Y-2.98
X3.61Y-3.43
X3.73Y-3.42
X3.78Y-3.42
X3.83Y-3.42
X4.08Y-3.58
X4.08Y-3.625
X4.08Y-3.67
X4.31Y-3.3452
X4.31Y-3.4215
T3
X2.29Y-2.985
X2.29Y-3.385
X2.39Y-2.985
X2.39Y-3.385
X2.49Y-2.985
X2.49Y-3.385
X2.59Y-2.985
X2.59Y-3.385
X2.69Y-2.985
X2.69Y-3.385
X2.79Y-2.985
X2.79Y-3.385
X4.16Y-2.985
X4.16Y-3.385
X4.26Y-2.985
X4.26Y-3.385
X4.36Y-2.985
X4.36Y-3.385
X4.46Y-2.985
X4.46Y-3.385
X4.56Y-2.985
X4.56Y-3.385
X4.66Y-2.985
X4.66Y-3.385
T4
X2.63Y-2.7493
X2.73Y-2.7493
X2.83Y-2.7493
T5
X4.33Y-2.76
X4.43Y-2.76
T6
X2.305Y-3.57
X2.405Y-3.57
X2.54Y-3.735
X2.54Y-3.835
X3.0191Y-2.935
X3.0191Y-3.035
X3.0191Y-3.135
X3.0191Y-3.235
X3.0191Y-3.335
X3.0191Y-3.435
X3.0191Y-3.535
X3.0191Y-3.635
X3.9191Y-2.935
X3.9191Y-3.035
X3.9191Y-3.135
X3.9191Y-3.235
X3.9191Y-3.335
X3.9191Y-3.435
X3.9191Y-3.535
X3.9191Y-3.635
X4.145Y-3.78
X4.145Y-3.88
X4.34Y-3.78
X4.34Y-3.88
T7
X2.315Y-2.735
X2.315Y-3.82
X4.665Y-2.735
X4.665Y-3.82
T0
M30
