G04 #@! TF.GenerationSoftware,KiCad,Pcbnew,(5.1.9)-1*
G04 #@! TF.CreationDate,2021-11-02T13:36:32-07:00*
G04 #@! TF.ProjectId,wemos_d1_mini_weather_station,77656d6f-735f-4643-915f-6d696e695f77,rev?*
G04 #@! TF.SameCoordinates,Original*
G04 #@! TF.FileFunction,Legend,Top*
G04 #@! TF.FilePolarity,Positive*
%FSLAX46Y46*%
G04 Gerber Fmt 4.6, Leading zero omitted, Abs format (unit mm)*
G04 Created by KiCad (PCBNEW (5.1.9)-1) date 2021-11-02 13:36:32*
%MOMM*%
%LPD*%
G01*
G04 APERTURE LIST*
%ADD10C,0.150000*%
%ADD11C,0.120000*%
G04 APERTURE END LIST*
D10*
X62428380Y-97131047D02*
X62428380Y-97607238D01*
X61428380Y-97607238D01*
X62428380Y-96797714D02*
X61761714Y-96797714D01*
X61428380Y-96797714D02*
X61476000Y-96845333D01*
X61523619Y-96797714D01*
X61476000Y-96750095D01*
X61428380Y-96797714D01*
X61523619Y-96797714D01*
X61761714Y-95892952D02*
X62571238Y-95892952D01*
X62666476Y-95940571D01*
X62714095Y-95988190D01*
X62761714Y-96083428D01*
X62761714Y-96226285D01*
X62714095Y-96321523D01*
X62380761Y-95892952D02*
X62428380Y-95988190D01*
X62428380Y-96178666D01*
X62380761Y-96273904D01*
X62333142Y-96321523D01*
X62237904Y-96369142D01*
X61952190Y-96369142D01*
X61856952Y-96321523D01*
X61809333Y-96273904D01*
X61761714Y-96178666D01*
X61761714Y-95988190D01*
X61809333Y-95892952D01*
X62428380Y-95416761D02*
X61428380Y-95416761D01*
X62428380Y-94988190D02*
X61904571Y-94988190D01*
X61809333Y-95035809D01*
X61761714Y-95131047D01*
X61761714Y-95273904D01*
X61809333Y-95369142D01*
X61856952Y-95416761D01*
X61761714Y-94654857D02*
X61761714Y-94273904D01*
X61428380Y-94512000D02*
X62285523Y-94512000D01*
X62380761Y-94464380D01*
X62428380Y-94369142D01*
X62428380Y-94273904D01*
X114482857Y-72477380D02*
X114673333Y-72477380D01*
X114768571Y-72525000D01*
X114863809Y-72620238D01*
X114911428Y-72810714D01*
X114911428Y-73144047D01*
X114863809Y-73334523D01*
X114768571Y-73429761D01*
X114673333Y-73477380D01*
X114482857Y-73477380D01*
X114387619Y-73429761D01*
X114292380Y-73334523D01*
X114244761Y-73144047D01*
X114244761Y-72810714D01*
X114292380Y-72620238D01*
X114387619Y-72525000D01*
X114482857Y-72477380D01*
X115768571Y-72810714D02*
X115768571Y-73477380D01*
X115340000Y-72810714D02*
X115340000Y-73334523D01*
X115387619Y-73429761D01*
X115482857Y-73477380D01*
X115625714Y-73477380D01*
X115720952Y-73429761D01*
X115768571Y-73382142D01*
X116101904Y-72810714D02*
X116482857Y-72810714D01*
X116244761Y-72477380D02*
X116244761Y-73334523D01*
X116292380Y-73429761D01*
X116387619Y-73477380D01*
X116482857Y-73477380D01*
X116768571Y-73429761D02*
X116863809Y-73477380D01*
X117054285Y-73477380D01*
X117149523Y-73429761D01*
X117197142Y-73334523D01*
X117197142Y-73286904D01*
X117149523Y-73191666D01*
X117054285Y-73144047D01*
X116911428Y-73144047D01*
X116816190Y-73096428D01*
X116768571Y-73001190D01*
X116768571Y-72953571D01*
X116816190Y-72858333D01*
X116911428Y-72810714D01*
X117054285Y-72810714D01*
X117149523Y-72858333D01*
X117625714Y-73477380D02*
X117625714Y-72810714D01*
X117625714Y-72477380D02*
X117578095Y-72525000D01*
X117625714Y-72572619D01*
X117673333Y-72525000D01*
X117625714Y-72477380D01*
X117625714Y-72572619D01*
X118530476Y-73477380D02*
X118530476Y-72477380D01*
X118530476Y-73429761D02*
X118435238Y-73477380D01*
X118244761Y-73477380D01*
X118149523Y-73429761D01*
X118101904Y-73382142D01*
X118054285Y-73286904D01*
X118054285Y-73001190D01*
X118101904Y-72905952D01*
X118149523Y-72858333D01*
X118244761Y-72810714D01*
X118435238Y-72810714D01*
X118530476Y-72858333D01*
X119387619Y-73429761D02*
X119292380Y-73477380D01*
X119101904Y-73477380D01*
X119006666Y-73429761D01*
X118959047Y-73334523D01*
X118959047Y-72953571D01*
X119006666Y-72858333D01*
X119101904Y-72810714D01*
X119292380Y-72810714D01*
X119387619Y-72858333D01*
X119435238Y-72953571D01*
X119435238Y-73048809D01*
X118959047Y-73144047D01*
X62793809Y-73477380D02*
X62793809Y-72477380D01*
X63270000Y-72810714D02*
X63270000Y-73477380D01*
X63270000Y-72905952D02*
X63317619Y-72858333D01*
X63412857Y-72810714D01*
X63555714Y-72810714D01*
X63650952Y-72858333D01*
X63698571Y-72953571D01*
X63698571Y-73477380D01*
X64127142Y-73429761D02*
X64222380Y-73477380D01*
X64412857Y-73477380D01*
X64508095Y-73429761D01*
X64555714Y-73334523D01*
X64555714Y-73286904D01*
X64508095Y-73191666D01*
X64412857Y-73144047D01*
X64270000Y-73144047D01*
X64174761Y-73096428D01*
X64127142Y-73001190D01*
X64127142Y-72953571D01*
X64174761Y-72858333D01*
X64270000Y-72810714D01*
X64412857Y-72810714D01*
X64508095Y-72858333D01*
X64984285Y-73477380D02*
X64984285Y-72810714D01*
X64984285Y-72477380D02*
X64936666Y-72525000D01*
X64984285Y-72572619D01*
X65031904Y-72525000D01*
X64984285Y-72477380D01*
X64984285Y-72572619D01*
X65889047Y-73477380D02*
X65889047Y-72477380D01*
X65889047Y-73429761D02*
X65793809Y-73477380D01*
X65603333Y-73477380D01*
X65508095Y-73429761D01*
X65460476Y-73382142D01*
X65412857Y-73286904D01*
X65412857Y-73001190D01*
X65460476Y-72905952D01*
X65508095Y-72858333D01*
X65603333Y-72810714D01*
X65793809Y-72810714D01*
X65889047Y-72858333D01*
X66746190Y-73429761D02*
X66650952Y-73477380D01*
X66460476Y-73477380D01*
X66365238Y-73429761D01*
X66317619Y-73334523D01*
X66317619Y-72953571D01*
X66365238Y-72858333D01*
X66460476Y-72810714D01*
X66650952Y-72810714D01*
X66746190Y-72858333D01*
X66793809Y-72953571D01*
X66793809Y-73048809D01*
X66317619Y-73144047D01*
X105084666Y-67762380D02*
X104751333Y-67286190D01*
X104513238Y-67762380D02*
X104513238Y-66762380D01*
X104894190Y-66762380D01*
X104989428Y-66810000D01*
X105037047Y-66857619D01*
X105084666Y-66952857D01*
X105084666Y-67095714D01*
X105037047Y-67190952D01*
X104989428Y-67238571D01*
X104894190Y-67286190D01*
X104513238Y-67286190D01*
X105941809Y-67762380D02*
X105941809Y-67238571D01*
X105894190Y-67143333D01*
X105798952Y-67095714D01*
X105608476Y-67095714D01*
X105513238Y-67143333D01*
X105941809Y-67714761D02*
X105846571Y-67762380D01*
X105608476Y-67762380D01*
X105513238Y-67714761D01*
X105465619Y-67619523D01*
X105465619Y-67524285D01*
X105513238Y-67429047D01*
X105608476Y-67381428D01*
X105846571Y-67381428D01*
X105941809Y-67333809D01*
X106418000Y-67762380D02*
X106418000Y-67095714D01*
X106418000Y-66762380D02*
X106370380Y-66810000D01*
X106418000Y-66857619D01*
X106465619Y-66810000D01*
X106418000Y-66762380D01*
X106418000Y-66857619D01*
X106894190Y-67095714D02*
X106894190Y-67762380D01*
X106894190Y-67190952D02*
X106941809Y-67143333D01*
X107037047Y-67095714D01*
X107179904Y-67095714D01*
X107275142Y-67143333D01*
X107322761Y-67238571D01*
X107322761Y-67762380D01*
X102139761Y-96242142D02*
X102092142Y-96289761D01*
X101949285Y-96337380D01*
X101854047Y-96337380D01*
X101711190Y-96289761D01*
X101615952Y-96194523D01*
X101568333Y-96099285D01*
X101520714Y-95908809D01*
X101520714Y-95765952D01*
X101568333Y-95575476D01*
X101615952Y-95480238D01*
X101711190Y-95385000D01*
X101854047Y-95337380D01*
X101949285Y-95337380D01*
X102092142Y-95385000D01*
X102139761Y-95432619D01*
X103044523Y-96337380D02*
X102568333Y-96337380D01*
X102568333Y-95337380D01*
X101544523Y-99512380D02*
X101544523Y-98512380D01*
X101782619Y-98512380D01*
X101925476Y-98560000D01*
X102020714Y-98655238D01*
X102068333Y-98750476D01*
X102115952Y-98940952D01*
X102115952Y-99083809D01*
X102068333Y-99274285D01*
X102020714Y-99369523D01*
X101925476Y-99464761D01*
X101782619Y-99512380D01*
X101544523Y-99512380D01*
X102496904Y-99226666D02*
X102973095Y-99226666D01*
X102401666Y-99512380D02*
X102735000Y-98512380D01*
X103068333Y-99512380D01*
X112903095Y-98560000D02*
X112807857Y-98512380D01*
X112665000Y-98512380D01*
X112522142Y-98560000D01*
X112426904Y-98655238D01*
X112379285Y-98750476D01*
X112331666Y-98940952D01*
X112331666Y-99083809D01*
X112379285Y-99274285D01*
X112426904Y-99369523D01*
X112522142Y-99464761D01*
X112665000Y-99512380D01*
X112760238Y-99512380D01*
X112903095Y-99464761D01*
X112950714Y-99417142D01*
X112950714Y-99083809D01*
X112760238Y-99083809D01*
X113379285Y-99512380D02*
X113379285Y-98512380D01*
X113950714Y-99512380D01*
X113950714Y-98512380D01*
X114426904Y-99512380D02*
X114426904Y-98512380D01*
X114665000Y-98512380D01*
X114807857Y-98560000D01*
X114903095Y-98655238D01*
X114950714Y-98750476D01*
X114998333Y-98940952D01*
X114998333Y-99083809D01*
X114950714Y-99274285D01*
X114903095Y-99369523D01*
X114807857Y-99464761D01*
X114665000Y-99512380D01*
X114426904Y-99512380D01*
X112839523Y-95337380D02*
X112363333Y-95337380D01*
X112315714Y-95813571D01*
X112363333Y-95765952D01*
X112458571Y-95718333D01*
X112696666Y-95718333D01*
X112791904Y-95765952D01*
X112839523Y-95813571D01*
X112887142Y-95908809D01*
X112887142Y-96146904D01*
X112839523Y-96242142D01*
X112791904Y-96289761D01*
X112696666Y-96337380D01*
X112458571Y-96337380D01*
X112363333Y-96289761D01*
X112315714Y-96242142D01*
X113172857Y-95337380D02*
X113506190Y-96337380D01*
X113839523Y-95337380D01*
D11*
G04 #@! TO.C,I2C*
X105283000Y-94682000D02*
X106613000Y-94682000D01*
X106613000Y-94682000D02*
X106613000Y-96012000D01*
X106613000Y-97282000D02*
X106613000Y-99882000D01*
X103953000Y-99882000D02*
X106613000Y-99882000D01*
X103953000Y-97282000D02*
X103953000Y-99882000D01*
X103953000Y-97282000D02*
X106613000Y-97282000D01*
G04 #@! TO.C,U5*
X70612000Y-89642000D02*
X67162000Y-89642000D01*
X70612000Y-89642000D02*
X72562000Y-89642000D01*
X70612000Y-94762000D02*
X68662000Y-94762000D01*
X70612000Y-94762000D02*
X72562000Y-94762000D01*
G04 #@! TO.C,U4*
X56896000Y-86614000D02*
G75*
G03*
X56896000Y-86614000I-635000J0D01*
G01*
X74041000Y-87884000D02*
X54991000Y-87884000D01*
X54991000Y-74295000D02*
X74041000Y-74295000D01*
X74041000Y-74295000D02*
X74041000Y-87884000D01*
X54991000Y-87884000D02*
X54991000Y-74295000D01*
X57658000Y-78613000D02*
X59563000Y-78613000D01*
X59563000Y-78867000D02*
X59563000Y-80137000D01*
X57658000Y-80518000D02*
X59563000Y-80518000D01*
X57658000Y-78867000D02*
X57658000Y-80137000D01*
X57658000Y-80772000D02*
X57658000Y-82042000D01*
X59563000Y-80772000D02*
X59563000Y-82042000D01*
X57658000Y-82423000D02*
X59563000Y-82423000D01*
X61658000Y-82423000D02*
X63563000Y-82423000D01*
X65658000Y-82423000D02*
X67563000Y-82423000D01*
X69658000Y-82423000D02*
X71563000Y-82423000D01*
X63563000Y-78867000D02*
X63563000Y-80137000D01*
X67563000Y-78867000D02*
X67563000Y-80137000D01*
X71563000Y-78867000D02*
X71563000Y-80137000D01*
X61658000Y-80518000D02*
X63563000Y-80518000D01*
X65658000Y-80518000D02*
X67563000Y-80518000D01*
X69658000Y-80518000D02*
X71563000Y-80518000D01*
X61658000Y-80772000D02*
X61658000Y-82042000D01*
X65658000Y-80772000D02*
X65658000Y-82042000D01*
X69658000Y-80772000D02*
X69658000Y-82042000D01*
X63563000Y-80772000D02*
X63563000Y-82042000D01*
X67563000Y-80772000D02*
X67563000Y-82042000D01*
X71563000Y-80772000D02*
X71563000Y-82042000D01*
X61658000Y-78613000D02*
X63563000Y-78613000D01*
X65658000Y-78613000D02*
X67563000Y-78613000D01*
X69658000Y-78613000D02*
X71563000Y-78613000D01*
X61658000Y-78867000D02*
X61658000Y-80137000D01*
X65658000Y-78867000D02*
X65658000Y-80137000D01*
X69658000Y-78867000D02*
X69658000Y-80137000D01*
G04 #@! TO.C,U3*
X104394000Y-86614000D02*
G75*
G03*
X104394000Y-86614000I-635000J0D01*
G01*
X121539000Y-87884000D02*
X102489000Y-87884000D01*
X102489000Y-74295000D02*
X121539000Y-74295000D01*
X121539000Y-74295000D02*
X121539000Y-87884000D01*
X102489000Y-87884000D02*
X102489000Y-74295000D01*
X105156000Y-78613000D02*
X107061000Y-78613000D01*
X107061000Y-78867000D02*
X107061000Y-80137000D01*
X105156000Y-80518000D02*
X107061000Y-80518000D01*
X105156000Y-78867000D02*
X105156000Y-80137000D01*
X105156000Y-80772000D02*
X105156000Y-82042000D01*
X107061000Y-80772000D02*
X107061000Y-82042000D01*
X105156000Y-82423000D02*
X107061000Y-82423000D01*
X109156000Y-82423000D02*
X111061000Y-82423000D01*
X113156000Y-82423000D02*
X115061000Y-82423000D01*
X117156000Y-82423000D02*
X119061000Y-82423000D01*
X111061000Y-78867000D02*
X111061000Y-80137000D01*
X115061000Y-78867000D02*
X115061000Y-80137000D01*
X119061000Y-78867000D02*
X119061000Y-80137000D01*
X109156000Y-80518000D02*
X111061000Y-80518000D01*
X113156000Y-80518000D02*
X115061000Y-80518000D01*
X117156000Y-80518000D02*
X119061000Y-80518000D01*
X109156000Y-80772000D02*
X109156000Y-82042000D01*
X113156000Y-80772000D02*
X113156000Y-82042000D01*
X117156000Y-80772000D02*
X117156000Y-82042000D01*
X111061000Y-80772000D02*
X111061000Y-82042000D01*
X115061000Y-80772000D02*
X115061000Y-82042000D01*
X119061000Y-80772000D02*
X119061000Y-82042000D01*
X109156000Y-78613000D02*
X111061000Y-78613000D01*
X113156000Y-78613000D02*
X115061000Y-78613000D01*
X117156000Y-78613000D02*
X119061000Y-78613000D01*
X109156000Y-78867000D02*
X109156000Y-80137000D01*
X113156000Y-78867000D02*
X113156000Y-80137000D01*
X117156000Y-78867000D02*
X117156000Y-80137000D01*
G04 #@! TO.C,U1*
X80976000Y-67639000D02*
X79161000Y-67639000D01*
X80976000Y-67394000D02*
X80976000Y-67639000D01*
X84836000Y-67394000D02*
X80976000Y-67394000D01*
X88696000Y-67394000D02*
X88696000Y-67639000D01*
X84836000Y-67394000D02*
X88696000Y-67394000D01*
X80976000Y-85514000D02*
X80976000Y-85269000D01*
X84836000Y-85514000D02*
X80976000Y-85514000D01*
X88696000Y-85514000D02*
X88696000Y-85269000D01*
X84836000Y-85514000D02*
X88696000Y-85514000D01*
G04 #@! TO.C,TH1*
X57217000Y-90678000D02*
X57217000Y-89348000D01*
X57217000Y-89348000D02*
X58547000Y-89348000D01*
X59817000Y-89348000D02*
X62417000Y-89348000D01*
X62417000Y-92008000D02*
X62417000Y-89348000D01*
X59817000Y-92008000D02*
X62417000Y-92008000D01*
X59817000Y-92008000D02*
X59817000Y-89348000D01*
G04 #@! TO.C,R6*
X70331064Y-98198000D02*
X69876936Y-98198000D01*
X70331064Y-99668000D02*
X69876936Y-99668000D01*
G04 #@! TO.C,R5*
X64516000Y-93539000D02*
X65846000Y-93539000D01*
X65846000Y-93539000D02*
X65846000Y-94869000D01*
X65846000Y-96139000D02*
X65846000Y-98739000D01*
X63186000Y-98739000D02*
X65846000Y-98739000D01*
X63186000Y-96139000D02*
X63186000Y-98739000D01*
X63186000Y-96139000D02*
X65846000Y-96139000D01*
G04 #@! TO.C,R4*
X104571436Y-72109000D02*
X105025564Y-72109000D01*
X104571436Y-70639000D02*
X105025564Y-70639000D01*
G04 #@! TO.C,R3*
X69876936Y-97255000D02*
X70331064Y-97255000D01*
X69876936Y-95785000D02*
X70331064Y-95785000D01*
G04 #@! TO.C,R2*
X94437564Y-73507666D02*
X93983436Y-73507666D01*
X94437564Y-74977666D02*
X93983436Y-74977666D01*
G04 #@! TO.C,R1*
X93983436Y-78735332D02*
X94437564Y-78735332D01*
X93983436Y-77265332D02*
X94437564Y-77265332D01*
G04 #@! TO.C,PWR*
X110236000Y-94682000D02*
X111566000Y-94682000D01*
X111566000Y-94682000D02*
X111566000Y-96012000D01*
X111566000Y-97282000D02*
X111566000Y-99882000D01*
X108906000Y-99882000D02*
X111566000Y-99882000D01*
X108906000Y-97282000D02*
X108906000Y-99882000D01*
X108906000Y-97282000D02*
X111566000Y-97282000D01*
G04 #@! TO.C,D1*
X113812000Y-71649000D02*
X113812000Y-68559000D01*
X113752000Y-70104000D02*
G75*
G03*
X113752000Y-70104000I-2500000J0D01*
G01*
X108262000Y-70104462D02*
G75*
G02*
X113812000Y-68559170I2990000J462D01*
G01*
X108262000Y-70103538D02*
G75*
G03*
X113812000Y-71648830I2990000J-462D01*
G01*
G04 #@! TO.C,C2*
X95601500Y-87783000D02*
X87541500Y-87783000D01*
X95601500Y-92303000D02*
X95601500Y-87783000D01*
X87541500Y-92303000D02*
X95601500Y-92303000D01*
G04 #@! TO.C,C1*
X93929248Y-82523000D02*
X94451752Y-82523000D01*
X93929248Y-81053000D02*
X94451752Y-81053000D01*
G04 #@! TO.C,I2C*
D10*
X104306809Y-93694380D02*
X104306809Y-92694380D01*
X104735380Y-92789619D02*
X104783000Y-92742000D01*
X104878238Y-92694380D01*
X105116333Y-92694380D01*
X105211571Y-92742000D01*
X105259190Y-92789619D01*
X105306809Y-92884857D01*
X105306809Y-92980095D01*
X105259190Y-93122952D01*
X104687761Y-93694380D01*
X105306809Y-93694380D01*
X106306809Y-93599142D02*
X106259190Y-93646761D01*
X106116333Y-93694380D01*
X106021095Y-93694380D01*
X105878238Y-93646761D01*
X105783000Y-93551523D01*
X105735380Y-93456285D01*
X105687761Y-93265809D01*
X105687761Y-93122952D01*
X105735380Y-92932476D01*
X105783000Y-92837238D01*
X105878238Y-92742000D01*
X106021095Y-92694380D01*
X106116333Y-92694380D01*
X106259190Y-92742000D01*
X106306809Y-92789619D01*
G04 #@! TO.C,U5*
X69850095Y-88254380D02*
X69850095Y-89063904D01*
X69897714Y-89159142D01*
X69945333Y-89206761D01*
X70040571Y-89254380D01*
X70231047Y-89254380D01*
X70326285Y-89206761D01*
X70373904Y-89159142D01*
X70421523Y-89063904D01*
X70421523Y-88254380D01*
X71373904Y-88254380D02*
X70897714Y-88254380D01*
X70850095Y-88730571D01*
X70897714Y-88682952D01*
X70992952Y-88635333D01*
X71231047Y-88635333D01*
X71326285Y-88682952D01*
X71373904Y-88730571D01*
X71421523Y-88825809D01*
X71421523Y-89063904D01*
X71373904Y-89159142D01*
X71326285Y-89206761D01*
X71231047Y-89254380D01*
X70992952Y-89254380D01*
X70897714Y-89206761D01*
X70850095Y-89159142D01*
G04 #@! TO.C,U1*
X84074095Y-66006380D02*
X84074095Y-66815904D01*
X84121714Y-66911142D01*
X84169333Y-66958761D01*
X84264571Y-67006380D01*
X84455047Y-67006380D01*
X84550285Y-66958761D01*
X84597904Y-66911142D01*
X84645523Y-66815904D01*
X84645523Y-66006380D01*
X85645523Y-67006380D02*
X85074095Y-67006380D01*
X85359809Y-67006380D02*
X85359809Y-66006380D01*
X85264571Y-66149238D01*
X85169333Y-66244476D01*
X85074095Y-66292095D01*
G04 #@! TO.C,TH1*
X55229380Y-91963714D02*
X55229380Y-91392285D01*
X56229380Y-91678000D02*
X55229380Y-91678000D01*
X56229380Y-91058952D02*
X55229380Y-91058952D01*
X55705571Y-91058952D02*
X55705571Y-90487523D01*
X56229380Y-90487523D02*
X55229380Y-90487523D01*
X56229380Y-89487523D02*
X56229380Y-90058952D01*
X56229380Y-89773238D02*
X55229380Y-89773238D01*
X55372238Y-89868476D01*
X55467476Y-89963714D01*
X55515095Y-90058952D01*
G04 #@! TO.C,R6*
X72731333Y-99258380D02*
X72398000Y-98782190D01*
X72159904Y-99258380D02*
X72159904Y-98258380D01*
X72540857Y-98258380D01*
X72636095Y-98306000D01*
X72683714Y-98353619D01*
X72731333Y-98448857D01*
X72731333Y-98591714D01*
X72683714Y-98686952D01*
X72636095Y-98734571D01*
X72540857Y-98782190D01*
X72159904Y-98782190D01*
X73588476Y-98258380D02*
X73398000Y-98258380D01*
X73302761Y-98306000D01*
X73255142Y-98353619D01*
X73159904Y-98496476D01*
X73112285Y-98686952D01*
X73112285Y-99067904D01*
X73159904Y-99163142D01*
X73207523Y-99210761D01*
X73302761Y-99258380D01*
X73493238Y-99258380D01*
X73588476Y-99210761D01*
X73636095Y-99163142D01*
X73683714Y-99067904D01*
X73683714Y-98829809D01*
X73636095Y-98734571D01*
X73588476Y-98686952D01*
X73493238Y-98639333D01*
X73302761Y-98639333D01*
X73207523Y-98686952D01*
X73159904Y-98734571D01*
X73112285Y-98829809D01*
G04 #@! TO.C,R5*
X64349333Y-92527380D02*
X64016000Y-92051190D01*
X63777904Y-92527380D02*
X63777904Y-91527380D01*
X64158857Y-91527380D01*
X64254095Y-91575000D01*
X64301714Y-91622619D01*
X64349333Y-91717857D01*
X64349333Y-91860714D01*
X64301714Y-91955952D01*
X64254095Y-92003571D01*
X64158857Y-92051190D01*
X63777904Y-92051190D01*
X65254095Y-91527380D02*
X64777904Y-91527380D01*
X64730285Y-92003571D01*
X64777904Y-91955952D01*
X64873142Y-91908333D01*
X65111238Y-91908333D01*
X65206476Y-91955952D01*
X65254095Y-92003571D01*
X65301714Y-92098809D01*
X65301714Y-92336904D01*
X65254095Y-92432142D01*
X65206476Y-92479761D01*
X65111238Y-92527380D01*
X64873142Y-92527380D01*
X64777904Y-92479761D01*
X64730285Y-92432142D01*
G04 #@! TO.C,R4*
X104631833Y-70176380D02*
X104298500Y-69700190D01*
X104060404Y-70176380D02*
X104060404Y-69176380D01*
X104441357Y-69176380D01*
X104536595Y-69224000D01*
X104584214Y-69271619D01*
X104631833Y-69366857D01*
X104631833Y-69509714D01*
X104584214Y-69604952D01*
X104536595Y-69652571D01*
X104441357Y-69700190D01*
X104060404Y-69700190D01*
X105488976Y-69509714D02*
X105488976Y-70176380D01*
X105250880Y-69128761D02*
X105012785Y-69843047D01*
X105631833Y-69843047D01*
G04 #@! TO.C,R3*
X72731333Y-96972380D02*
X72398000Y-96496190D01*
X72159904Y-96972380D02*
X72159904Y-95972380D01*
X72540857Y-95972380D01*
X72636095Y-96020000D01*
X72683714Y-96067619D01*
X72731333Y-96162857D01*
X72731333Y-96305714D01*
X72683714Y-96400952D01*
X72636095Y-96448571D01*
X72540857Y-96496190D01*
X72159904Y-96496190D01*
X73064666Y-95972380D02*
X73683714Y-95972380D01*
X73350380Y-96353333D01*
X73493238Y-96353333D01*
X73588476Y-96400952D01*
X73636095Y-96448571D01*
X73683714Y-96543809D01*
X73683714Y-96781904D01*
X73636095Y-96877142D01*
X73588476Y-96924761D01*
X73493238Y-96972380D01*
X73207523Y-96972380D01*
X73112285Y-96924761D01*
X73064666Y-96877142D01*
G04 #@! TO.C,R2*
X94067333Y-72842380D02*
X93734000Y-72366190D01*
X93495904Y-72842380D02*
X93495904Y-71842380D01*
X93876857Y-71842380D01*
X93972095Y-71890000D01*
X94019714Y-71937619D01*
X94067333Y-72032857D01*
X94067333Y-72175714D01*
X94019714Y-72270952D01*
X93972095Y-72318571D01*
X93876857Y-72366190D01*
X93495904Y-72366190D01*
X94448285Y-71937619D02*
X94495904Y-71890000D01*
X94591142Y-71842380D01*
X94829238Y-71842380D01*
X94924476Y-71890000D01*
X94972095Y-71937619D01*
X95019714Y-72032857D01*
X95019714Y-72128095D01*
X94972095Y-72270952D01*
X94400666Y-72842380D01*
X95019714Y-72842380D01*
G04 #@! TO.C,R1*
X94043833Y-76802712D02*
X93710500Y-76326522D01*
X93472404Y-76802712D02*
X93472404Y-75802712D01*
X93853357Y-75802712D01*
X93948595Y-75850332D01*
X93996214Y-75897951D01*
X94043833Y-75993189D01*
X94043833Y-76136046D01*
X93996214Y-76231284D01*
X93948595Y-76278903D01*
X93853357Y-76326522D01*
X93472404Y-76326522D01*
X94996214Y-76802712D02*
X94424785Y-76802712D01*
X94710500Y-76802712D02*
X94710500Y-75802712D01*
X94615261Y-75945570D01*
X94520023Y-76040808D01*
X94424785Y-76088427D01*
G04 #@! TO.C,PWR*
X108902666Y-93694380D02*
X108902666Y-92694380D01*
X109283619Y-92694380D01*
X109378857Y-92742000D01*
X109426476Y-92789619D01*
X109474095Y-92884857D01*
X109474095Y-93027714D01*
X109426476Y-93122952D01*
X109378857Y-93170571D01*
X109283619Y-93218190D01*
X108902666Y-93218190D01*
X109807428Y-92694380D02*
X110045523Y-93694380D01*
X110236000Y-92980095D01*
X110426476Y-93694380D01*
X110664571Y-92694380D01*
X111616952Y-93694380D02*
X111283619Y-93218190D01*
X111045523Y-93694380D02*
X111045523Y-92694380D01*
X111426476Y-92694380D01*
X111521714Y-92742000D01*
X111569333Y-92789619D01*
X111616952Y-92884857D01*
X111616952Y-93027714D01*
X111569333Y-93122952D01*
X111521714Y-93170571D01*
X111426476Y-93218190D01*
X111045523Y-93218190D01*
G04 #@! TO.C,C2*
X91024833Y-93500142D02*
X90977214Y-93547761D01*
X90834357Y-93595380D01*
X90739119Y-93595380D01*
X90596261Y-93547761D01*
X90501023Y-93452523D01*
X90453404Y-93357285D01*
X90405785Y-93166809D01*
X90405785Y-93023952D01*
X90453404Y-92833476D01*
X90501023Y-92738238D01*
X90596261Y-92643000D01*
X90739119Y-92595380D01*
X90834357Y-92595380D01*
X90977214Y-92643000D01*
X91024833Y-92690619D01*
X91405785Y-92690619D02*
X91453404Y-92643000D01*
X91548642Y-92595380D01*
X91786738Y-92595380D01*
X91881976Y-92643000D01*
X91929595Y-92690619D01*
X91977214Y-92785857D01*
X91977214Y-92881095D01*
X91929595Y-93023952D01*
X91358166Y-93595380D01*
X91977214Y-93595380D01*
G04 #@! TO.C,C1*
X94023833Y-80465142D02*
X93976214Y-80512761D01*
X93833357Y-80560380D01*
X93738119Y-80560380D01*
X93595261Y-80512761D01*
X93500023Y-80417523D01*
X93452404Y-80322285D01*
X93404785Y-80131809D01*
X93404785Y-79988952D01*
X93452404Y-79798476D01*
X93500023Y-79703238D01*
X93595261Y-79608000D01*
X93738119Y-79560380D01*
X93833357Y-79560380D01*
X93976214Y-79608000D01*
X94023833Y-79655619D01*
X94976214Y-80560380D02*
X94404785Y-80560380D01*
X94690500Y-80560380D02*
X94690500Y-79560380D01*
X94595261Y-79703238D01*
X94500023Y-79798476D01*
X94404785Y-79846095D01*
G04 #@! TD*
M02*
