G04 #@! TF.GenerationSoftware,KiCad,Pcbnew,(5.1.9)-1*
G04 #@! TF.CreationDate,2021-11-02T13:36:32-07:00*
G04 #@! TF.ProjectId,wemos_d1_mini_weather_station,77656d6f-735f-4643-915f-6d696e695f77,rev?*
G04 #@! TF.SameCoordinates,Original*
G04 #@! TF.FileFunction,Copper,L2,Bot*
G04 #@! TF.FilePolarity,Positive*
%FSLAX46Y46*%
G04 Gerber Fmt 4.6, Leading zero omitted, Abs format (unit mm)*
G04 Created by KiCad (PCBNEW (5.1.9)-1) date 2021-11-02 13:36:32*
%MOMM*%
%LPD*%
G01*
G04 APERTURE LIST*
G04 #@! TA.AperFunction,ComponentPad*
%ADD10O,1.700000X1.700000*%
G04 #@! TD*
G04 #@! TA.AperFunction,ComponentPad*
%ADD11R,1.700000X1.700000*%
G04 #@! TD*
G04 #@! TA.AperFunction,ComponentPad*
%ADD12C,1.440000*%
G04 #@! TD*
G04 #@! TA.AperFunction,ComponentPad*
%ADD13C,1.524000*%
G04 #@! TD*
G04 #@! TA.AperFunction,ComponentPad*
%ADD14O,2.000000X1.600000*%
G04 #@! TD*
G04 #@! TA.AperFunction,ComponentPad*
%ADD15R,2.000000X2.000000*%
G04 #@! TD*
G04 #@! TA.AperFunction,ComponentPad*
%ADD16C,1.800000*%
G04 #@! TD*
G04 #@! TA.AperFunction,ComponentPad*
%ADD17R,1.800000X1.800000*%
G04 #@! TD*
G04 #@! TA.AperFunction,ViaPad*
%ADD18C,0.600000*%
G04 #@! TD*
G04 #@! TA.AperFunction,ViaPad*
%ADD19C,0.800000*%
G04 #@! TD*
G04 #@! TA.AperFunction,Conductor*
%ADD20C,0.250000*%
G04 #@! TD*
G04 #@! TA.AperFunction,Conductor*
%ADD21C,0.800000*%
G04 #@! TD*
G04 #@! TA.AperFunction,Conductor*
%ADD22C,0.400000*%
G04 #@! TD*
G04 #@! TA.AperFunction,Conductor*
%ADD23C,0.254000*%
G04 #@! TD*
G04 #@! TA.AperFunction,Conductor*
%ADD24C,0.100000*%
G04 #@! TD*
G04 APERTURE END LIST*
D10*
G04 #@! TO.P,I2C,2*
G04 #@! TO.N,Net-(J2-Pad2)*
X105283000Y-98552000D03*
D11*
G04 #@! TO.P,I2C,1*
G04 #@! TO.N,Net-(J2-Pad1)*
X105283000Y-96012000D03*
G04 #@! TD*
D12*
G04 #@! TO.P,RV1,3*
G04 #@! TO.N,GND*
X66802000Y-69833000D03*
G04 #@! TO.P,RV1,2*
G04 #@! TO.N,Net-(RV1-Pad2)*
X69342000Y-69833000D03*
G04 #@! TO.P,RV1,1*
G04 #@! TO.N,+3V3*
X71882000Y-69833000D03*
G04 #@! TD*
D13*
G04 #@! TO.P,U4,10*
G04 #@! TO.N,Seg6*
X63246000Y-75819000D03*
G04 #@! TO.P,U4,2*
G04 #@! TO.N,Seg4*
X60706000Y-85979000D03*
G04 #@! TO.P,U4,6*
G04 #@! TO.N,G8*
X70866000Y-85979000D03*
G04 #@! TO.P,U4,12*
G04 #@! TO.N,G5*
X58166000Y-75819000D03*
G04 #@! TO.P,U4,8*
G04 #@! TO.N,G7*
X68326000Y-75819000D03*
G04 #@! TO.P,U4,7*
G04 #@! TO.N,Seg2*
X70866000Y-75819000D03*
G04 #@! TO.P,U4,3*
G04 #@! TO.N,Seg8*
X63246000Y-85979000D03*
G04 #@! TO.P,U4,1*
G04 #@! TO.N,Seg5*
X58166000Y-85979000D03*
G04 #@! TO.P,U4,11*
G04 #@! TO.N,Seg1*
X60706000Y-75819000D03*
G04 #@! TO.P,U4,5*
G04 #@! TO.N,Seg7*
X68326000Y-85979000D03*
G04 #@! TO.P,U4,9*
G04 #@! TO.N,G6*
X65786000Y-75819000D03*
G04 #@! TO.P,U4,4*
G04 #@! TO.N,Seg3*
X65786000Y-85979000D03*
G04 #@! TD*
G04 #@! TO.P,U3,10*
G04 #@! TO.N,Seg6*
X110744000Y-75819000D03*
G04 #@! TO.P,U3,2*
G04 #@! TO.N,Seg4*
X108204000Y-85979000D03*
G04 #@! TO.P,U3,6*
G04 #@! TO.N,G4*
X118364000Y-85979000D03*
G04 #@! TO.P,U3,12*
G04 #@! TO.N,G1*
X105664000Y-75819000D03*
G04 #@! TO.P,U3,8*
G04 #@! TO.N,G3*
X115824000Y-75819000D03*
G04 #@! TO.P,U3,7*
G04 #@! TO.N,Seg2*
X118364000Y-75819000D03*
G04 #@! TO.P,U3,3*
G04 #@! TO.N,Seg8*
X110744000Y-85979000D03*
G04 #@! TO.P,U3,1*
G04 #@! TO.N,Seg5*
X105664000Y-85979000D03*
G04 #@! TO.P,U3,11*
G04 #@! TO.N,Seg1*
X108204000Y-75819000D03*
G04 #@! TO.P,U3,5*
G04 #@! TO.N,Seg7*
X115824000Y-85979000D03*
G04 #@! TO.P,U3,9*
G04 #@! TO.N,G2*
X113284000Y-75819000D03*
G04 #@! TO.P,U3,4*
G04 #@! TO.N,Seg3*
X113284000Y-85979000D03*
G04 #@! TD*
D14*
G04 #@! TO.P,U2,16*
G04 #@! TO.N,N/C*
X99545000Y-92329000D03*
G04 #@! TO.P,U2,15*
X99545000Y-89789000D03*
G04 #@! TO.P,U2,14*
G04 #@! TO.N,Net-(J2-Pad1)*
X99545000Y-87249000D03*
G04 #@! TO.P,U2,13*
G04 #@! TO.N,Net-(J2-Pad2)*
X99545000Y-84709000D03*
G04 #@! TO.P,U2,12*
G04 #@! TO.N,Net-(R1-Pad2)*
X99545000Y-82169000D03*
G04 #@! TO.P,U2,11*
G04 #@! TO.N,Net-(R2-Pad1)*
X99545000Y-79629000D03*
G04 #@! TO.P,U2,10*
G04 #@! TO.N,GND*
X99545000Y-77089000D03*
G04 #@! TO.P,U2,9*
G04 #@! TO.N,+5V*
X99545000Y-74549000D03*
G04 #@! TO.P,U2,8*
G04 #@! TO.N,+3V3*
X76685000Y-74549000D03*
G04 #@! TO.P,U2,7*
G04 #@! TO.N,NTC*
X76685000Y-77089000D03*
G04 #@! TO.P,U2,6*
G04 #@! TO.N,LIGHT*
X76685000Y-79629000D03*
G04 #@! TO.P,U2,5*
G04 #@! TO.N,N/C*
X76685000Y-82169000D03*
G04 #@! TO.P,U2,4*
X76685000Y-84709000D03*
G04 #@! TO.P,U2,3*
G04 #@! TO.N,RAIN*
X76685000Y-87249000D03*
D15*
G04 #@! TO.P,U2,1*
G04 #@! TO.N,N/C*
X76685000Y-92329000D03*
D14*
G04 #@! TO.P,U2,2*
G04 #@! TO.N,TEMP*
X76685000Y-89789000D03*
G04 #@! TD*
D10*
G04 #@! TO.P,TH1,2*
G04 #@! TO.N,Net-(R3-Pad1)*
X61087000Y-90678000D03*
D11*
G04 #@! TO.P,TH1,1*
G04 #@! TO.N,NTC*
X58547000Y-90678000D03*
G04 #@! TD*
D10*
G04 #@! TO.P,R5,2*
G04 #@! TO.N,Net-(R5-Pad2)*
X64516000Y-97409000D03*
D11*
G04 #@! TO.P,R5,1*
G04 #@! TO.N,+3V3*
X64516000Y-94869000D03*
G04 #@! TD*
D10*
G04 #@! TO.P,PWR,2*
G04 #@! TO.N,GND*
X110236000Y-98552000D03*
D11*
G04 #@! TO.P,PWR,1*
G04 #@! TO.N,+5V*
X110236000Y-96012000D03*
G04 #@! TD*
D16*
G04 #@! TO.P,D1,2*
G04 #@! TO.N,Net-(D1-Pad2)*
X109982000Y-70104000D03*
D17*
G04 #@! TO.P,D1,1*
G04 #@! TO.N,GND*
X112522000Y-70104000D03*
G04 #@! TD*
D18*
G04 #@! TO.N,GND*
X67310000Y-95377000D03*
X67310000Y-96139000D03*
X70612000Y-94107000D03*
X71247000Y-94742000D03*
X72263000Y-95758000D03*
X92329000Y-70231000D03*
X93599000Y-70104000D03*
X82550000Y-73787000D03*
X85598000Y-73787000D03*
X83312000Y-73787000D03*
X86360000Y-74041000D03*
X82550000Y-66675000D03*
X83850000Y-66675000D03*
X85150000Y-66675000D03*
X86450000Y-66675000D03*
X82550000Y-67975000D03*
X83850000Y-67975000D03*
X85150000Y-67975000D03*
X86450000Y-67975000D03*
X81534000Y-74549000D03*
X78740000Y-74549000D03*
X102616000Y-67056000D03*
X103916000Y-67056000D03*
X105216000Y-67056000D03*
X106516000Y-67056000D03*
X107816000Y-67056000D03*
X102616000Y-68356000D03*
X103916000Y-68356000D03*
X105216000Y-68356000D03*
X106516000Y-68356000D03*
X107816000Y-68356000D03*
X56642000Y-77978000D03*
X56642000Y-78994000D03*
X56642000Y-80010000D03*
X57785000Y-80010000D03*
X57785000Y-78994000D03*
X57785000Y-77978000D03*
X71120000Y-91567000D03*
X70104000Y-91948000D03*
D19*
X94742000Y-86868000D03*
X91694000Y-87122000D03*
D18*
X106172000Y-77470000D03*
X106934000Y-77089000D03*
X107696000Y-77470000D03*
D19*
X96012000Y-86868000D03*
X97282000Y-86868000D03*
X103632000Y-90932000D03*
X103632000Y-92075000D03*
X103632000Y-93218000D03*
X78232000Y-75692000D03*
G04 #@! TO.N,+5V*
X109474000Y-84968006D03*
X109474000Y-86905000D03*
D18*
G04 #@! TO.N,Net-(R1-Pad2)*
X81915000Y-75946000D03*
X97155000Y-74803000D03*
X97282000Y-77470000D03*
X96022000Y-77851000D03*
G04 #@! TO.N,Net-(R2-Pad1)*
X81788000Y-76962000D03*
X94488000Y-75692000D03*
X96647000Y-79502000D03*
G04 #@! TO.N,RAIN*
X102616000Y-71374000D03*
X84328000Y-87122000D03*
X84836000Y-71374000D03*
G04 #@! TO.N,+3V3*
X76708000Y-70866000D03*
D19*
X70104000Y-90396990D03*
X67437199Y-89274566D03*
X71374000Y-74168000D03*
D18*
G04 #@! TO.N,NTC*
X71619001Y-79248000D03*
X71882000Y-76611000D03*
G04 #@! TO.N,G8*
X72644000Y-84953000D03*
X73152000Y-72527000D03*
X82550000Y-72253000D03*
G04 #@! TO.N,G7*
X88001000Y-72934524D03*
G04 #@! TO.N,G6*
X87122000Y-72390000D03*
G04 #@! TO.N,G5*
X87376000Y-78486000D03*
G04 #@! TO.N,G3*
X87630000Y-82550000D03*
G04 #@! TO.N,G2*
X92202000Y-80518000D03*
G04 #@! TO.N,G1*
X91186000Y-80264000D03*
G04 #@! TO.N,Seg8*
X87122000Y-85852000D03*
X100838000Y-86106000D03*
X91694000Y-84191000D03*
X97790000Y-85209010D03*
G04 #@! TO.N,Seg7*
X78232000Y-86477000D03*
X89154000Y-85852000D03*
X75184000Y-85090000D03*
G04 #@! TO.N,Seg6*
X73914000Y-77236000D03*
X94488000Y-79502000D03*
X94234000Y-83566000D03*
X81671000Y-84582000D03*
G04 #@! TO.N,Seg5*
X78566942Y-83231058D03*
X81534000Y-83566000D03*
X97536000Y-81534000D03*
G04 #@! TO.N,Seg4*
X79756000Y-88392000D03*
X103124000Y-87005000D03*
X97917000Y-89271000D03*
G04 #@! TO.N,Seg3*
X73914000Y-86106000D03*
X74168000Y-82550000D03*
X75231864Y-81442999D03*
X102870000Y-88900000D03*
X83312000Y-90932000D03*
X101600000Y-90287000D03*
G04 #@! TO.N,Seg2*
X73289000Y-80518000D03*
X78486000Y-79756000D03*
X73152000Y-75692000D03*
G04 #@! TO.N,Seg1*
X74676000Y-77861000D03*
X82550000Y-75184000D03*
G04 #@! TO.N,Net-(RV1-Pad2)*
X64516000Y-70358000D03*
X65786000Y-91694000D03*
X71374000Y-92964000D03*
G04 #@! TO.N,Net-(J2-Pad1)*
X104140000Y-88275000D03*
G04 #@! TO.N,LIGHT*
X74930000Y-90678000D03*
X74422000Y-89046990D03*
X72898000Y-82042000D03*
G04 #@! TD*
D20*
G04 #@! TO.N,GND*
X82550000Y-73787000D02*
X83312000Y-73787000D01*
X83312000Y-73787000D02*
X85852000Y-73787000D01*
X85852000Y-73787000D02*
X86106000Y-73787000D01*
X86106000Y-73787000D02*
X86360000Y-74041000D01*
X86360000Y-74041000D02*
X86360000Y-74041000D01*
D21*
X91948000Y-86868000D02*
X91694000Y-87122000D01*
X94742000Y-86868000D02*
X91948000Y-86868000D01*
X99545000Y-77089000D02*
X103124000Y-77089000D01*
X103124000Y-77089000D02*
X103378000Y-77343000D01*
X103378000Y-77343000D02*
X105918000Y-77343000D01*
X105918000Y-77343000D02*
X106172000Y-77343000D01*
X106553000Y-77343000D02*
X107061000Y-77343000D01*
X106172000Y-77343000D02*
X106553000Y-77343000D01*
X107061000Y-77343000D02*
X107315000Y-77343000D01*
D22*
G04 #@! TO.N,+5V*
X109474000Y-84968006D02*
X109474000Y-86905000D01*
D20*
G04 #@! TO.N,Net-(R1-Pad2)*
X97282000Y-77470000D02*
X96901000Y-77851000D01*
X96901000Y-77851000D02*
X96022000Y-77851000D01*
X92202000Y-74803000D02*
X97155000Y-74803000D01*
X91059000Y-75946000D02*
X92202000Y-74803000D01*
X81915000Y-75946000D02*
X91059000Y-75946000D01*
G04 #@! TO.N,Net-(R2-Pad1)*
X93218000Y-76962000D02*
X94488000Y-75692000D01*
X81788000Y-76962000D02*
X93218000Y-76962000D01*
X96647000Y-79629000D02*
X99545000Y-79629000D01*
X96647000Y-79502000D02*
X96647000Y-79629000D01*
D22*
G04 #@! TO.N,RAIN*
X76812000Y-87122000D02*
X76685000Y-87249000D01*
D20*
X84328000Y-87122000D02*
X76812000Y-87122000D01*
X102616000Y-71374000D02*
X84836000Y-71374000D01*
G04 #@! TO.N,+3V3*
X71882000Y-69833000D02*
X75675000Y-69833000D01*
X75675000Y-69833000D02*
X76708000Y-70866000D01*
X68559623Y-90396990D02*
X67437199Y-89274566D01*
X70104000Y-90396990D02*
X68559623Y-90396990D01*
X76304000Y-74168000D02*
X76685000Y-74549000D01*
X71374000Y-74168000D02*
X76304000Y-74168000D01*
X67437199Y-89274566D02*
X65665434Y-89274566D01*
X64516000Y-90424000D02*
X64516000Y-94869000D01*
X65665434Y-89274566D02*
X64516000Y-90424000D01*
G04 #@! TO.N,NTC*
X58547000Y-90678000D02*
X58547000Y-88265000D01*
X57078999Y-86796999D02*
X57078999Y-83383001D01*
X58547000Y-88265000D02*
X57078999Y-86796999D01*
X61214000Y-79248000D02*
X71619001Y-79248000D01*
X57078999Y-83383001D02*
X61214000Y-79248000D01*
X76207000Y-76611000D02*
X76685000Y-77089000D01*
X71882000Y-76611000D02*
X76207000Y-76611000D01*
G04 #@! TO.N,G8*
X71618000Y-85979000D02*
X72644000Y-84953000D01*
X70866000Y-85979000D02*
X71618000Y-85979000D01*
X82276000Y-72527000D02*
X82550000Y-72253000D01*
X73152000Y-72527000D02*
X82276000Y-72527000D01*
G04 #@! TO.N,G7*
X68326000Y-75819000D02*
X70993000Y-73152000D01*
X87783524Y-73152000D02*
X88001000Y-72934524D01*
X70993000Y-73152000D02*
X87783524Y-73152000D01*
G04 #@! TO.N,G6*
X65786000Y-75819000D02*
X69977000Y-71628000D01*
X69977000Y-71628000D02*
X83058000Y-71628000D01*
X83820000Y-72390000D02*
X87122000Y-72390000D01*
X83058000Y-71628000D02*
X83820000Y-72390000D01*
G04 #@! TO.N,G5*
X60833000Y-78486000D02*
X87376000Y-78486000D01*
X58166000Y-75819000D02*
X60833000Y-78486000D01*
G04 #@! TO.N,G3*
X98134996Y-82550000D02*
X87630000Y-82550000D01*
X98879006Y-83294010D02*
X98134996Y-82550000D01*
X108348990Y-83294010D02*
X98879006Y-83294010D01*
X115824000Y-75819000D02*
X108348990Y-83294010D01*
G04 #@! TO.N,G2*
X92438010Y-80754010D02*
X92202000Y-80518000D01*
X108348990Y-80754010D02*
X92438010Y-80754010D01*
X113284000Y-75819000D02*
X108348990Y-80754010D01*
G04 #@! TO.N,G1*
X95631000Y-75819000D02*
X91186000Y-80264000D01*
X105664000Y-75819000D02*
X95631000Y-75819000D01*
G04 #@! TO.N,Seg8*
X63246000Y-85979000D02*
X64897000Y-87630000D01*
X64897000Y-87630000D02*
X73406000Y-87630000D01*
X75184000Y-85852000D02*
X87122000Y-85852000D01*
X73406000Y-87630000D02*
X75184000Y-85852000D01*
X110744000Y-85979000D02*
X110744000Y-87122000D01*
X110744000Y-87122000D02*
X110744000Y-87376000D01*
X110744000Y-87376000D02*
X110490000Y-87630000D01*
X110490000Y-87630000D02*
X102616000Y-87630000D01*
X101092000Y-86106000D02*
X100838000Y-86106000D01*
X102616000Y-87630000D02*
X101092000Y-86106000D01*
X93335000Y-84191000D02*
X91694000Y-84191000D01*
X93335000Y-84191000D02*
X93589000Y-84191000D01*
X93589000Y-84191000D02*
X94782000Y-85384000D01*
X97615010Y-85384000D02*
X97790000Y-85209010D01*
X94782000Y-85384000D02*
X97615010Y-85384000D01*
G04 #@! TO.N,Seg7*
X88529000Y-86477000D02*
X89154000Y-85852000D01*
X78232000Y-86477000D02*
X88529000Y-86477000D01*
X91948000Y-88646000D02*
X89154000Y-85852000D01*
X100330000Y-88646000D02*
X91948000Y-88646000D01*
X101346000Y-89662000D02*
X100330000Y-88646000D01*
X113792000Y-89662000D02*
X101346000Y-89662000D01*
X115824000Y-87630000D02*
X113792000Y-89662000D01*
X115824000Y-85979000D02*
X115824000Y-87630000D01*
X69977000Y-84328000D02*
X68326000Y-85979000D01*
X74422000Y-84328000D02*
X69977000Y-84328000D01*
X75184000Y-85090000D02*
X74422000Y-84328000D01*
G04 #@! TO.N,Seg6*
X64663000Y-77236000D02*
X73914000Y-77236000D01*
X63246000Y-75819000D02*
X64663000Y-77236000D01*
X110744000Y-75819000D02*
X108077000Y-78486000D01*
X95504000Y-78486000D02*
X94488000Y-79502000D01*
X108077000Y-78486000D02*
X95504000Y-78486000D01*
X82687000Y-83566000D02*
X81671000Y-84582000D01*
X94234000Y-83566000D02*
X82687000Y-83566000D01*
G04 #@! TO.N,Seg5*
X58166000Y-85979000D02*
X60579000Y-83566000D01*
X78232000Y-83566000D02*
X78566942Y-83231058D01*
X60579000Y-83566000D02*
X78232000Y-83566000D01*
X83566000Y-81534000D02*
X97536000Y-81534000D01*
X81534000Y-83566000D02*
X83566000Y-81534000D01*
G04 #@! TO.N,Seg4*
X63119000Y-88392000D02*
X79756000Y-88392000D01*
X60706000Y-85979000D02*
X63119000Y-88392000D01*
X103185001Y-87066001D02*
X103124000Y-87005000D01*
X107116999Y-87066001D02*
X103185001Y-87066001D01*
X108204000Y-85979000D02*
X107116999Y-87066001D01*
X80635000Y-89271000D02*
X79756000Y-88392000D01*
X97917000Y-89271000D02*
X80635000Y-89271000D01*
G04 #@! TO.N,Seg3*
X72953999Y-87066001D02*
X73914000Y-86106000D01*
X66873001Y-87066001D02*
X72953999Y-87066001D01*
X65786000Y-85979000D02*
X66873001Y-87066001D01*
X74168000Y-82506863D02*
X75231864Y-81442999D01*
X74168000Y-82550000D02*
X74168000Y-82506863D01*
X100420573Y-91203990D02*
X85361990Y-91203990D01*
X100459614Y-91243031D02*
X100420573Y-91203990D01*
X85361990Y-91203990D02*
X83583990Y-91203990D01*
X83583990Y-91203990D02*
X83312000Y-90932000D01*
X112014000Y-88900000D02*
X102870000Y-88900000D01*
X113284000Y-87630000D02*
X112014000Y-88900000D01*
X113284000Y-85979000D02*
X113284000Y-87630000D01*
X100643969Y-91243031D02*
X101600000Y-90287000D01*
X100459614Y-91243031D02*
X100643969Y-91243031D01*
G04 #@! TO.N,Seg2*
X77424001Y-80817999D02*
X78486000Y-79756000D01*
X73289000Y-80518000D02*
X73588999Y-80817999D01*
X89454001Y-85226999D02*
X80381001Y-85226999D01*
X101801998Y-84243006D02*
X100210994Y-85834010D01*
X109939994Y-84243006D02*
X101801998Y-84243006D01*
X90061012Y-85834010D02*
X89454001Y-85226999D01*
X100210994Y-85834010D02*
X90061012Y-85834010D01*
X118364000Y-75819000D02*
X109939994Y-84243006D01*
X80381001Y-84028999D02*
X77170001Y-80817999D01*
X80381001Y-85226999D02*
X80381001Y-84028999D01*
X77170001Y-80817999D02*
X77424001Y-80817999D01*
X73588999Y-80817999D02*
X77170001Y-80817999D01*
X72771000Y-75819000D02*
X70866000Y-75819000D01*
X73152000Y-75692000D02*
X72771000Y-75819000D01*
G04 #@! TO.N,Seg1*
X62748000Y-77861000D02*
X74676000Y-77861000D01*
X60706000Y-75819000D02*
X62748000Y-77861000D01*
X82931000Y-74803000D02*
X82550000Y-75184000D01*
X87122000Y-74803000D02*
X82931000Y-74803000D01*
X88436536Y-73423990D02*
X87122000Y-74803000D01*
X105808990Y-73423990D02*
X88436536Y-73423990D01*
X108204000Y-75819000D02*
X105808990Y-73423990D01*
G04 #@! TO.N,Net-(RV1-Pad2)*
X68296999Y-68787999D02*
X65832001Y-68787999D01*
X69342000Y-69833000D02*
X68296999Y-68787999D01*
X64516000Y-70104000D02*
X64516000Y-70358000D01*
X65832001Y-68787999D02*
X64516000Y-70104000D01*
X67056000Y-92964000D02*
X71374000Y-92964000D01*
X65786000Y-91694000D02*
X67056000Y-92964000D01*
G04 #@! TO.N,Net-(J2-Pad1)*
X100795000Y-87249000D02*
X99545000Y-87249000D01*
X101821000Y-88275000D02*
X100795000Y-87249000D01*
X104140000Y-88275000D02*
X101821000Y-88275000D01*
G04 #@! TO.N,LIGHT*
X74930000Y-89554990D02*
X74422000Y-89046990D01*
X74930000Y-90678000D02*
X74930000Y-89554990D01*
X72898000Y-82042000D02*
X72663999Y-81807999D01*
X72663999Y-81807999D02*
X72663999Y-79990001D01*
X73025000Y-79629000D02*
X76685000Y-79629000D01*
X72663999Y-79990001D02*
X73025000Y-79629000D01*
G04 #@! TD*
D23*
G04 #@! TO.N,GND*
X120379545Y-66103909D02*
X120730208Y-66209780D01*
X121053625Y-66381744D01*
X121337484Y-66613254D01*
X121570965Y-66895486D01*
X121745183Y-67217695D01*
X121853502Y-67567614D01*
X121895001Y-67962452D01*
X121895000Y-98392721D01*
X121856091Y-98789545D01*
X121750220Y-99140206D01*
X121578257Y-99463623D01*
X121346748Y-99747482D01*
X121064514Y-99980965D01*
X120742304Y-100155184D01*
X120392385Y-100263502D01*
X119997557Y-100305000D01*
X101219000Y-100305000D01*
X101219000Y-95162000D01*
X103794928Y-95162000D01*
X103794928Y-96862000D01*
X103807188Y-96986482D01*
X103843498Y-97106180D01*
X103902463Y-97216494D01*
X103981815Y-97313185D01*
X104078506Y-97392537D01*
X104188820Y-97451502D01*
X104261380Y-97473513D01*
X104129525Y-97605368D01*
X103967010Y-97848589D01*
X103855068Y-98118842D01*
X103798000Y-98405740D01*
X103798000Y-98698260D01*
X103855068Y-98985158D01*
X103967010Y-99255411D01*
X104129525Y-99498632D01*
X104336368Y-99705475D01*
X104579589Y-99867990D01*
X104849842Y-99979932D01*
X105136740Y-100037000D01*
X105429260Y-100037000D01*
X105716158Y-99979932D01*
X105986411Y-99867990D01*
X106229632Y-99705475D01*
X106436475Y-99498632D01*
X106598990Y-99255411D01*
X106710932Y-98985158D01*
X106726102Y-98908890D01*
X108794524Y-98908890D01*
X108839175Y-99056099D01*
X108964359Y-99318920D01*
X109138412Y-99552269D01*
X109354645Y-99747178D01*
X109604748Y-99896157D01*
X109879109Y-99993481D01*
X110109000Y-99872814D01*
X110109000Y-98679000D01*
X110363000Y-98679000D01*
X110363000Y-99872814D01*
X110592891Y-99993481D01*
X110867252Y-99896157D01*
X111117355Y-99747178D01*
X111333588Y-99552269D01*
X111507641Y-99318920D01*
X111632825Y-99056099D01*
X111677476Y-98908890D01*
X111556155Y-98679000D01*
X110363000Y-98679000D01*
X110109000Y-98679000D01*
X108915845Y-98679000D01*
X108794524Y-98908890D01*
X106726102Y-98908890D01*
X106768000Y-98698260D01*
X106768000Y-98405740D01*
X106710932Y-98118842D01*
X106598990Y-97848589D01*
X106436475Y-97605368D01*
X106304620Y-97473513D01*
X106377180Y-97451502D01*
X106487494Y-97392537D01*
X106584185Y-97313185D01*
X106663537Y-97216494D01*
X106722502Y-97106180D01*
X106758812Y-96986482D01*
X106771072Y-96862000D01*
X106771072Y-95162000D01*
X108747928Y-95162000D01*
X108747928Y-96862000D01*
X108760188Y-96986482D01*
X108796498Y-97106180D01*
X108855463Y-97216494D01*
X108934815Y-97313185D01*
X109031506Y-97392537D01*
X109141820Y-97451502D01*
X109222466Y-97475966D01*
X109138412Y-97551731D01*
X108964359Y-97785080D01*
X108839175Y-98047901D01*
X108794524Y-98195110D01*
X108915845Y-98425000D01*
X110109000Y-98425000D01*
X110109000Y-98405000D01*
X110363000Y-98405000D01*
X110363000Y-98425000D01*
X111556155Y-98425000D01*
X111677476Y-98195110D01*
X111632825Y-98047901D01*
X111507641Y-97785080D01*
X111333588Y-97551731D01*
X111249534Y-97475966D01*
X111330180Y-97451502D01*
X111440494Y-97392537D01*
X111537185Y-97313185D01*
X111616537Y-97216494D01*
X111675502Y-97106180D01*
X111711812Y-96986482D01*
X111724072Y-96862000D01*
X111724072Y-96807872D01*
X116256000Y-96807872D01*
X116256000Y-97248128D01*
X116341890Y-97679925D01*
X116510369Y-98086669D01*
X116754962Y-98452729D01*
X117066271Y-98764038D01*
X117432331Y-99008631D01*
X117839075Y-99177110D01*
X118270872Y-99263000D01*
X118711128Y-99263000D01*
X119142925Y-99177110D01*
X119549669Y-99008631D01*
X119915729Y-98764038D01*
X120227038Y-98452729D01*
X120471631Y-98086669D01*
X120640110Y-97679925D01*
X120726000Y-97248128D01*
X120726000Y-96807872D01*
X120640110Y-96376075D01*
X120471631Y-95969331D01*
X120227038Y-95603271D01*
X119915729Y-95291962D01*
X119549669Y-95047369D01*
X119142925Y-94878890D01*
X118711128Y-94793000D01*
X118270872Y-94793000D01*
X117839075Y-94878890D01*
X117432331Y-95047369D01*
X117066271Y-95291962D01*
X116754962Y-95603271D01*
X116510369Y-95969331D01*
X116341890Y-96376075D01*
X116256000Y-96807872D01*
X111724072Y-96807872D01*
X111724072Y-95162000D01*
X111711812Y-95037518D01*
X111675502Y-94917820D01*
X111616537Y-94807506D01*
X111537185Y-94710815D01*
X111440494Y-94631463D01*
X111330180Y-94572498D01*
X111210482Y-94536188D01*
X111086000Y-94523928D01*
X109386000Y-94523928D01*
X109261518Y-94536188D01*
X109141820Y-94572498D01*
X109031506Y-94631463D01*
X108934815Y-94710815D01*
X108855463Y-94807506D01*
X108796498Y-94917820D01*
X108760188Y-95037518D01*
X108747928Y-95162000D01*
X106771072Y-95162000D01*
X106758812Y-95037518D01*
X106722502Y-94917820D01*
X106663537Y-94807506D01*
X106584185Y-94710815D01*
X106487494Y-94631463D01*
X106377180Y-94572498D01*
X106257482Y-94536188D01*
X106133000Y-94523928D01*
X104433000Y-94523928D01*
X104308518Y-94536188D01*
X104188820Y-94572498D01*
X104078506Y-94631463D01*
X103981815Y-94710815D01*
X103902463Y-94807506D01*
X103843498Y-94917820D01*
X103807188Y-95037518D01*
X103794928Y-95162000D01*
X101219000Y-95162000D01*
X101219000Y-93726000D01*
X101216560Y-93701224D01*
X101209333Y-93677399D01*
X101197597Y-93655443D01*
X101181803Y-93636197D01*
X101162557Y-93620403D01*
X101140601Y-93608667D01*
X101116776Y-93601440D01*
X101092000Y-93599000D01*
X100413142Y-93599000D01*
X100546101Y-93527932D01*
X100764608Y-93348608D01*
X100943932Y-93130101D01*
X101077182Y-92880808D01*
X101159236Y-92610309D01*
X101186943Y-92329000D01*
X101159236Y-92047691D01*
X101099886Y-91852038D01*
X101183970Y-91783032D01*
X101207773Y-91754029D01*
X101751649Y-91210153D01*
X101872729Y-91186068D01*
X102042889Y-91115586D01*
X102196028Y-91013262D01*
X102326262Y-90883028D01*
X102428586Y-90729889D01*
X102499068Y-90559729D01*
X102526464Y-90422000D01*
X113754678Y-90422000D01*
X113792000Y-90425676D01*
X113829322Y-90422000D01*
X113829333Y-90422000D01*
X113940986Y-90411003D01*
X114084247Y-90367546D01*
X114216276Y-90296974D01*
X114332001Y-90202001D01*
X114355804Y-90172997D01*
X116335003Y-88193799D01*
X116364001Y-88170001D01*
X116408307Y-88116014D01*
X116458974Y-88054277D01*
X116529546Y-87922247D01*
X116541656Y-87882324D01*
X116573003Y-87778986D01*
X116584000Y-87667333D01*
X116584000Y-87667323D01*
X116587676Y-87630000D01*
X116584000Y-87592677D01*
X116584000Y-87151341D01*
X116714535Y-87064120D01*
X116909120Y-86869535D01*
X117062005Y-86640727D01*
X117094000Y-86563485D01*
X117125995Y-86640727D01*
X117278880Y-86869535D01*
X117473465Y-87064120D01*
X117702273Y-87217005D01*
X117956510Y-87322314D01*
X118226408Y-87376000D01*
X118501592Y-87376000D01*
X118771490Y-87322314D01*
X119025727Y-87217005D01*
X119254535Y-87064120D01*
X119449120Y-86869535D01*
X119602005Y-86640727D01*
X119707314Y-86386490D01*
X119761000Y-86116592D01*
X119761000Y-85841408D01*
X119707314Y-85571510D01*
X119602005Y-85317273D01*
X119449120Y-85088465D01*
X119254535Y-84893880D01*
X119025727Y-84740995D01*
X118771490Y-84635686D01*
X118501592Y-84582000D01*
X118226408Y-84582000D01*
X117956510Y-84635686D01*
X117702273Y-84740995D01*
X117473465Y-84893880D01*
X117278880Y-85088465D01*
X117125995Y-85317273D01*
X117094000Y-85394515D01*
X117062005Y-85317273D01*
X116909120Y-85088465D01*
X116714535Y-84893880D01*
X116485727Y-84740995D01*
X116231490Y-84635686D01*
X115961592Y-84582000D01*
X115686408Y-84582000D01*
X115416510Y-84635686D01*
X115162273Y-84740995D01*
X114933465Y-84893880D01*
X114738880Y-85088465D01*
X114585995Y-85317273D01*
X114554000Y-85394515D01*
X114522005Y-85317273D01*
X114369120Y-85088465D01*
X114174535Y-84893880D01*
X113945727Y-84740995D01*
X113691490Y-84635686D01*
X113421592Y-84582000D01*
X113146408Y-84582000D01*
X112876510Y-84635686D01*
X112622273Y-84740995D01*
X112393465Y-84893880D01*
X112198880Y-85088465D01*
X112045995Y-85317273D01*
X112014000Y-85394515D01*
X111982005Y-85317273D01*
X111829120Y-85088465D01*
X111634535Y-84893880D01*
X111405727Y-84740995D01*
X111151490Y-84635686D01*
X110881592Y-84582000D01*
X110675801Y-84582000D01*
X118072430Y-77185372D01*
X118226408Y-77216000D01*
X118501592Y-77216000D01*
X118771490Y-77162314D01*
X119025727Y-77057005D01*
X119254535Y-76904120D01*
X119449120Y-76709535D01*
X119602005Y-76480727D01*
X119707314Y-76226490D01*
X119761000Y-75956592D01*
X119761000Y-75681408D01*
X119707314Y-75411510D01*
X119602005Y-75157273D01*
X119449120Y-74928465D01*
X119254535Y-74733880D01*
X119025727Y-74580995D01*
X118771490Y-74475686D01*
X118501592Y-74422000D01*
X118226408Y-74422000D01*
X117956510Y-74475686D01*
X117702273Y-74580995D01*
X117473465Y-74733880D01*
X117278880Y-74928465D01*
X117125995Y-75157273D01*
X117094000Y-75234515D01*
X117062005Y-75157273D01*
X116909120Y-74928465D01*
X116714535Y-74733880D01*
X116485727Y-74580995D01*
X116231490Y-74475686D01*
X115961592Y-74422000D01*
X115686408Y-74422000D01*
X115416510Y-74475686D01*
X115162273Y-74580995D01*
X114933465Y-74733880D01*
X114738880Y-74928465D01*
X114585995Y-75157273D01*
X114554000Y-75234515D01*
X114522005Y-75157273D01*
X114369120Y-74928465D01*
X114174535Y-74733880D01*
X113945727Y-74580995D01*
X113691490Y-74475686D01*
X113421592Y-74422000D01*
X113146408Y-74422000D01*
X112876510Y-74475686D01*
X112622273Y-74580995D01*
X112393465Y-74733880D01*
X112198880Y-74928465D01*
X112045995Y-75157273D01*
X112014000Y-75234515D01*
X111982005Y-75157273D01*
X111829120Y-74928465D01*
X111634535Y-74733880D01*
X111405727Y-74580995D01*
X111151490Y-74475686D01*
X110881592Y-74422000D01*
X110606408Y-74422000D01*
X110336510Y-74475686D01*
X110082273Y-74580995D01*
X109853465Y-74733880D01*
X109658880Y-74928465D01*
X109505995Y-75157273D01*
X109474000Y-75234515D01*
X109442005Y-75157273D01*
X109289120Y-74928465D01*
X109094535Y-74733880D01*
X108865727Y-74580995D01*
X108611490Y-74475686D01*
X108341592Y-74422000D01*
X108066408Y-74422000D01*
X107912430Y-74452628D01*
X106372794Y-72912993D01*
X106348991Y-72883989D01*
X106233266Y-72789016D01*
X106101237Y-72718444D01*
X105957976Y-72674987D01*
X105846323Y-72663990D01*
X105846312Y-72663990D01*
X105808990Y-72660314D01*
X105771668Y-72663990D01*
X88900505Y-72663990D01*
X88900068Y-72661795D01*
X88829586Y-72491635D01*
X88727262Y-72338496D01*
X88597028Y-72208262D01*
X88485887Y-72134000D01*
X102070465Y-72134000D01*
X102173111Y-72202586D01*
X102343271Y-72273068D01*
X102523911Y-72309000D01*
X102708089Y-72309000D01*
X102888729Y-72273068D01*
X103058889Y-72202586D01*
X103212028Y-72100262D01*
X103342262Y-71970028D01*
X103444586Y-71816889D01*
X103515068Y-71646729D01*
X103551000Y-71466089D01*
X103551000Y-71281911D01*
X103515068Y-71101271D01*
X103444586Y-70931111D01*
X103342262Y-70777972D01*
X103212028Y-70647738D01*
X103058889Y-70545414D01*
X102888729Y-70474932D01*
X102708089Y-70439000D01*
X102523911Y-70439000D01*
X102343271Y-70474932D01*
X102173111Y-70545414D01*
X102070465Y-70614000D01*
X85381535Y-70614000D01*
X85278889Y-70545414D01*
X85108729Y-70474932D01*
X84928089Y-70439000D01*
X84743911Y-70439000D01*
X84563271Y-70474932D01*
X84393111Y-70545414D01*
X84239972Y-70647738D01*
X84109738Y-70777972D01*
X84007414Y-70931111D01*
X83936932Y-71101271D01*
X83901000Y-71281911D01*
X83901000Y-71396199D01*
X83621803Y-71117002D01*
X83598001Y-71087999D01*
X83482276Y-70993026D01*
X83350247Y-70922454D01*
X83206986Y-70878997D01*
X83095333Y-70868000D01*
X83095322Y-70868000D01*
X83058000Y-70864324D01*
X83020678Y-70868000D01*
X77643000Y-70868000D01*
X77643000Y-70773911D01*
X77607068Y-70593271D01*
X77536586Y-70423111D01*
X77434262Y-70269972D01*
X77304028Y-70139738D01*
X77150889Y-70037414D01*
X76980729Y-69966932D01*
X76909766Y-69952816D01*
X108447000Y-69952816D01*
X108447000Y-70255184D01*
X108505989Y-70551743D01*
X108621701Y-70831095D01*
X108789688Y-71082505D01*
X109003495Y-71296312D01*
X109254905Y-71464299D01*
X109534257Y-71580011D01*
X109830816Y-71639000D01*
X110133184Y-71639000D01*
X110429743Y-71580011D01*
X110709095Y-71464299D01*
X110960505Y-71296312D01*
X111026944Y-71229873D01*
X111032498Y-71248180D01*
X111091463Y-71358494D01*
X111170815Y-71455185D01*
X111267506Y-71534537D01*
X111377820Y-71593502D01*
X111497518Y-71629812D01*
X111622000Y-71642072D01*
X112236250Y-71639000D01*
X112395000Y-71480250D01*
X112395000Y-70231000D01*
X112649000Y-70231000D01*
X112649000Y-71480250D01*
X112807750Y-71639000D01*
X113422000Y-71642072D01*
X113546482Y-71629812D01*
X113666180Y-71593502D01*
X113776494Y-71534537D01*
X113873185Y-71455185D01*
X113952537Y-71358494D01*
X114011502Y-71248180D01*
X114047812Y-71128482D01*
X114060072Y-71004000D01*
X114057000Y-70389750D01*
X113898250Y-70231000D01*
X112649000Y-70231000D01*
X112395000Y-70231000D01*
X112375000Y-70231000D01*
X112375000Y-69977000D01*
X112395000Y-69977000D01*
X112395000Y-68727750D01*
X112649000Y-68727750D01*
X112649000Y-69977000D01*
X113898250Y-69977000D01*
X114057000Y-69818250D01*
X114059847Y-69248872D01*
X116256000Y-69248872D01*
X116256000Y-69689128D01*
X116341890Y-70120925D01*
X116510369Y-70527669D01*
X116754962Y-70893729D01*
X117066271Y-71205038D01*
X117432331Y-71449631D01*
X117839075Y-71618110D01*
X118270872Y-71704000D01*
X118711128Y-71704000D01*
X119142925Y-71618110D01*
X119549669Y-71449631D01*
X119915729Y-71205038D01*
X120227038Y-70893729D01*
X120471631Y-70527669D01*
X120640110Y-70120925D01*
X120726000Y-69689128D01*
X120726000Y-69248872D01*
X120640110Y-68817075D01*
X120471631Y-68410331D01*
X120227038Y-68044271D01*
X119915729Y-67732962D01*
X119549669Y-67488369D01*
X119142925Y-67319890D01*
X118711128Y-67234000D01*
X118270872Y-67234000D01*
X117839075Y-67319890D01*
X117432331Y-67488369D01*
X117066271Y-67732962D01*
X116754962Y-68044271D01*
X116510369Y-68410331D01*
X116341890Y-68817075D01*
X116256000Y-69248872D01*
X114059847Y-69248872D01*
X114060072Y-69204000D01*
X114047812Y-69079518D01*
X114011502Y-68959820D01*
X113952537Y-68849506D01*
X113873185Y-68752815D01*
X113776494Y-68673463D01*
X113666180Y-68614498D01*
X113546482Y-68578188D01*
X113422000Y-68565928D01*
X112807750Y-68569000D01*
X112649000Y-68727750D01*
X112395000Y-68727750D01*
X112236250Y-68569000D01*
X111622000Y-68565928D01*
X111497518Y-68578188D01*
X111377820Y-68614498D01*
X111267506Y-68673463D01*
X111170815Y-68752815D01*
X111091463Y-68849506D01*
X111032498Y-68959820D01*
X111026944Y-68978127D01*
X110960505Y-68911688D01*
X110709095Y-68743701D01*
X110429743Y-68627989D01*
X110133184Y-68569000D01*
X109830816Y-68569000D01*
X109534257Y-68627989D01*
X109254905Y-68743701D01*
X109003495Y-68911688D01*
X108789688Y-69125495D01*
X108621701Y-69376905D01*
X108505989Y-69656257D01*
X108447000Y-69952816D01*
X76909766Y-69952816D01*
X76859649Y-69942847D01*
X76238804Y-69322002D01*
X76215001Y-69292999D01*
X76099276Y-69198026D01*
X75967247Y-69127454D01*
X75823986Y-69083997D01*
X75712333Y-69073000D01*
X75712322Y-69073000D01*
X75675000Y-69069324D01*
X75637678Y-69073000D01*
X73003828Y-69073000D01*
X72934497Y-68969238D01*
X72745762Y-68780503D01*
X72523833Y-68632215D01*
X72277239Y-68530072D01*
X72015456Y-68478000D01*
X71748544Y-68478000D01*
X71486761Y-68530072D01*
X71240167Y-68632215D01*
X71018238Y-68780503D01*
X70829503Y-68969238D01*
X70681215Y-69191167D01*
X70612000Y-69358266D01*
X70542785Y-69191167D01*
X70394497Y-68969238D01*
X70205762Y-68780503D01*
X69983833Y-68632215D01*
X69737239Y-68530072D01*
X69475456Y-68478000D01*
X69208544Y-68478000D01*
X69086147Y-68502346D01*
X68860803Y-68277001D01*
X68837000Y-68247998D01*
X68721275Y-68153025D01*
X68589246Y-68082453D01*
X68445985Y-68038996D01*
X68334332Y-68027999D01*
X68334321Y-68027999D01*
X68296999Y-68024323D01*
X68259677Y-68027999D01*
X65869323Y-68027999D01*
X65832000Y-68024323D01*
X65794677Y-68027999D01*
X65794668Y-68027999D01*
X65683015Y-68038996D01*
X65539754Y-68082453D01*
X65407725Y-68153025D01*
X65407723Y-68153026D01*
X65407724Y-68153026D01*
X65320997Y-68224200D01*
X65320993Y-68224204D01*
X65292000Y-68247998D01*
X65268206Y-68276991D01*
X64005002Y-69540197D01*
X63975999Y-69563999D01*
X63920936Y-69631094D01*
X63919972Y-69631738D01*
X63789738Y-69761972D01*
X63687414Y-69915111D01*
X63616932Y-70085271D01*
X63581000Y-70265911D01*
X63581000Y-70450089D01*
X63616932Y-70630729D01*
X63687414Y-70800889D01*
X63789738Y-70954028D01*
X63919972Y-71084262D01*
X64073111Y-71186586D01*
X64243271Y-71257068D01*
X64423911Y-71293000D01*
X64608089Y-71293000D01*
X64788729Y-71257068D01*
X64958889Y-71186586D01*
X65112028Y-71084262D01*
X65242262Y-70954028D01*
X65344586Y-70800889D01*
X65357977Y-70768560D01*
X66046045Y-70768560D01*
X66107932Y-71004368D01*
X66349790Y-71117266D01*
X66609027Y-71180811D01*
X66875680Y-71192561D01*
X67139501Y-71152063D01*
X67390353Y-71060875D01*
X67496068Y-71004368D01*
X67557955Y-70768560D01*
X66802000Y-70012605D01*
X66046045Y-70768560D01*
X65357977Y-70768560D01*
X65415068Y-70630729D01*
X65451000Y-70450089D01*
X65451000Y-70265911D01*
X65447332Y-70247470D01*
X65493965Y-70200837D01*
X65574125Y-70421353D01*
X65630632Y-70527068D01*
X65866440Y-70588955D01*
X66622395Y-69833000D01*
X66608253Y-69818858D01*
X66787858Y-69639253D01*
X66802000Y-69653395D01*
X66816143Y-69639253D01*
X66995748Y-69818858D01*
X66981605Y-69833000D01*
X67737560Y-70588955D01*
X67973368Y-70527068D01*
X68073764Y-70311993D01*
X68141215Y-70474833D01*
X68289503Y-70696762D01*
X68478238Y-70885497D01*
X68700167Y-71033785D01*
X68946761Y-71135928D01*
X69208544Y-71188000D01*
X69342198Y-71188000D01*
X66077571Y-74452628D01*
X65923592Y-74422000D01*
X65648408Y-74422000D01*
X65378510Y-74475686D01*
X65124273Y-74580995D01*
X64895465Y-74733880D01*
X64700880Y-74928465D01*
X64547995Y-75157273D01*
X64516000Y-75234515D01*
X64484005Y-75157273D01*
X64331120Y-74928465D01*
X64136535Y-74733880D01*
X63907727Y-74580995D01*
X63653490Y-74475686D01*
X63383592Y-74422000D01*
X63108408Y-74422000D01*
X62838510Y-74475686D01*
X62584273Y-74580995D01*
X62355465Y-74733880D01*
X62160880Y-74928465D01*
X62007995Y-75157273D01*
X61976000Y-75234515D01*
X61944005Y-75157273D01*
X61791120Y-74928465D01*
X61596535Y-74733880D01*
X61367727Y-74580995D01*
X61113490Y-74475686D01*
X60843592Y-74422000D01*
X60568408Y-74422000D01*
X60298510Y-74475686D01*
X60044273Y-74580995D01*
X59815465Y-74733880D01*
X59620880Y-74928465D01*
X59467995Y-75157273D01*
X59436000Y-75234515D01*
X59404005Y-75157273D01*
X59251120Y-74928465D01*
X59056535Y-74733880D01*
X58827727Y-74580995D01*
X58573490Y-74475686D01*
X58303592Y-74422000D01*
X58028408Y-74422000D01*
X57758510Y-74475686D01*
X57504273Y-74580995D01*
X57275465Y-74733880D01*
X57080880Y-74928465D01*
X56927995Y-75157273D01*
X56822686Y-75411510D01*
X56769000Y-75681408D01*
X56769000Y-75956592D01*
X56822686Y-76226490D01*
X56927995Y-76480727D01*
X57080880Y-76709535D01*
X57275465Y-76904120D01*
X57504273Y-77057005D01*
X57758510Y-77162314D01*
X58028408Y-77216000D01*
X58303592Y-77216000D01*
X58457570Y-77185372D01*
X60269201Y-78997003D01*
X60292999Y-79026001D01*
X60330456Y-79056741D01*
X56567997Y-82819202D01*
X56538999Y-82843000D01*
X56515201Y-82871998D01*
X56515200Y-82871999D01*
X56444025Y-82958725D01*
X56373453Y-83090755D01*
X56356991Y-83145025D01*
X56329997Y-83234015D01*
X56326400Y-83270539D01*
X56315323Y-83383001D01*
X56319000Y-83420333D01*
X56318999Y-86759676D01*
X56315323Y-86796999D01*
X56318999Y-86834321D01*
X56318999Y-86834331D01*
X56329996Y-86945984D01*
X56365832Y-87064120D01*
X56373453Y-87089245D01*
X56444025Y-87221275D01*
X56466779Y-87249000D01*
X56538998Y-87337000D01*
X56568002Y-87360803D01*
X57787001Y-88579803D01*
X57787001Y-89189928D01*
X57697000Y-89189928D01*
X57572518Y-89202188D01*
X57452820Y-89238498D01*
X57342506Y-89297463D01*
X57245815Y-89376815D01*
X57166463Y-89473506D01*
X57107498Y-89583820D01*
X57071188Y-89703518D01*
X57058928Y-89828000D01*
X57058928Y-91528000D01*
X57071188Y-91652482D01*
X57107498Y-91772180D01*
X57166463Y-91882494D01*
X57245815Y-91979185D01*
X57342506Y-92058537D01*
X57452820Y-92117502D01*
X57572518Y-92153812D01*
X57697000Y-92166072D01*
X59397000Y-92166072D01*
X59521482Y-92153812D01*
X59641180Y-92117502D01*
X59751494Y-92058537D01*
X59848185Y-91979185D01*
X59927537Y-91882494D01*
X59986502Y-91772180D01*
X60008513Y-91699620D01*
X60140368Y-91831475D01*
X60383589Y-91993990D01*
X60653842Y-92105932D01*
X60940740Y-92163000D01*
X61233260Y-92163000D01*
X61520158Y-92105932D01*
X61790411Y-91993990D01*
X62033632Y-91831475D01*
X62240475Y-91624632D01*
X62402990Y-91381411D01*
X62514932Y-91111158D01*
X62572000Y-90824260D01*
X62572000Y-90531740D01*
X62514932Y-90244842D01*
X62402990Y-89974589D01*
X62240475Y-89731368D01*
X62033632Y-89524525D01*
X61790411Y-89362010D01*
X61520158Y-89250068D01*
X61233260Y-89193000D01*
X60940740Y-89193000D01*
X60653842Y-89250068D01*
X60383589Y-89362010D01*
X60140368Y-89524525D01*
X60008513Y-89656380D01*
X59986502Y-89583820D01*
X59927537Y-89473506D01*
X59848185Y-89376815D01*
X59751494Y-89297463D01*
X59641180Y-89238498D01*
X59521482Y-89202188D01*
X59397000Y-89189928D01*
X59307000Y-89189928D01*
X59307000Y-88302323D01*
X59310676Y-88265000D01*
X59307000Y-88227677D01*
X59307000Y-88227667D01*
X59296003Y-88116014D01*
X59252546Y-87972753D01*
X59212053Y-87896997D01*
X59181974Y-87840723D01*
X59110799Y-87753997D01*
X59087001Y-87724999D01*
X59058003Y-87701201D01*
X58648179Y-87291377D01*
X58827727Y-87217005D01*
X59056535Y-87064120D01*
X59251120Y-86869535D01*
X59404005Y-86640727D01*
X59436000Y-86563485D01*
X59467995Y-86640727D01*
X59620880Y-86869535D01*
X59815465Y-87064120D01*
X60044273Y-87217005D01*
X60298510Y-87322314D01*
X60568408Y-87376000D01*
X60843592Y-87376000D01*
X60997570Y-87345372D01*
X62555200Y-88903002D01*
X62578999Y-88932001D01*
X62694724Y-89026974D01*
X62826753Y-89097546D01*
X62970014Y-89141003D01*
X63081667Y-89152000D01*
X63081676Y-89152000D01*
X63118999Y-89155676D01*
X63156322Y-89152000D01*
X64713198Y-89152000D01*
X64005003Y-89860196D01*
X63975999Y-89883999D01*
X63934686Y-89934340D01*
X63881026Y-89999724D01*
X63827648Y-90099586D01*
X63810454Y-90131754D01*
X63766997Y-90275015D01*
X63756000Y-90386668D01*
X63756000Y-90386678D01*
X63752324Y-90424000D01*
X63756000Y-90461323D01*
X63756001Y-93380928D01*
X63666000Y-93380928D01*
X63541518Y-93393188D01*
X63421820Y-93429498D01*
X63311506Y-93488463D01*
X63214815Y-93567815D01*
X63135463Y-93664506D01*
X63076498Y-93774820D01*
X63040188Y-93894518D01*
X63027928Y-94019000D01*
X63027928Y-95719000D01*
X63040188Y-95843482D01*
X63076498Y-95963180D01*
X63135463Y-96073494D01*
X63214815Y-96170185D01*
X63311506Y-96249537D01*
X63421820Y-96308502D01*
X63494380Y-96330513D01*
X63362525Y-96462368D01*
X63200010Y-96705589D01*
X63088068Y-96975842D01*
X63031000Y-97262740D01*
X63031000Y-97555260D01*
X63088068Y-97842158D01*
X63200010Y-98112411D01*
X63362525Y-98355632D01*
X63569368Y-98562475D01*
X63812589Y-98724990D01*
X64082842Y-98836932D01*
X64369740Y-98894000D01*
X64662260Y-98894000D01*
X64949158Y-98836932D01*
X65219411Y-98724990D01*
X65462632Y-98562475D01*
X65669475Y-98355632D01*
X65831990Y-98112411D01*
X65943932Y-97842158D01*
X66001000Y-97555260D01*
X66001000Y-97262740D01*
X65943932Y-96975842D01*
X65831990Y-96705589D01*
X65669475Y-96462368D01*
X65537620Y-96330513D01*
X65610180Y-96308502D01*
X65720494Y-96249537D01*
X65817185Y-96170185D01*
X65896537Y-96073494D01*
X65955502Y-95963180D01*
X65991812Y-95843482D01*
X66004072Y-95719000D01*
X66004072Y-94019000D01*
X65991812Y-93894518D01*
X65955502Y-93774820D01*
X65896537Y-93664506D01*
X65817185Y-93567815D01*
X65720494Y-93488463D01*
X65610180Y-93429498D01*
X65490482Y-93393188D01*
X65366000Y-93380928D01*
X65276000Y-93380928D01*
X65276000Y-92477744D01*
X65343111Y-92522586D01*
X65513271Y-92593068D01*
X65634351Y-92617153D01*
X66492201Y-93475003D01*
X66515999Y-93504001D01*
X66631724Y-93598974D01*
X66763753Y-93669546D01*
X66907014Y-93713003D01*
X67018667Y-93724000D01*
X67018676Y-93724000D01*
X67055999Y-93727676D01*
X67093322Y-93724000D01*
X70828465Y-93724000D01*
X70931111Y-93792586D01*
X71101271Y-93863068D01*
X71281911Y-93899000D01*
X71466089Y-93899000D01*
X71646729Y-93863068D01*
X71816889Y-93792586D01*
X71970028Y-93690262D01*
X72100262Y-93560028D01*
X72202586Y-93406889D01*
X72273068Y-93236729D01*
X72309000Y-93056089D01*
X72309000Y-92871911D01*
X72273068Y-92691271D01*
X72202586Y-92521111D01*
X72100262Y-92367972D01*
X71970028Y-92237738D01*
X71816889Y-92135414D01*
X71646729Y-92064932D01*
X71466089Y-92029000D01*
X71281911Y-92029000D01*
X71101271Y-92064932D01*
X70931111Y-92135414D01*
X70828465Y-92204000D01*
X67370802Y-92204000D01*
X66709153Y-91542351D01*
X66685068Y-91421271D01*
X66614586Y-91251111D01*
X66512262Y-91097972D01*
X66382028Y-90967738D01*
X66228889Y-90865414D01*
X66058729Y-90794932D01*
X65878089Y-90759000D01*
X65693911Y-90759000D01*
X65513271Y-90794932D01*
X65343111Y-90865414D01*
X65276000Y-90910256D01*
X65276000Y-90738801D01*
X65980236Y-90034566D01*
X66733488Y-90034566D01*
X66777425Y-90078503D01*
X66946943Y-90191771D01*
X67135301Y-90269792D01*
X67335260Y-90309566D01*
X67397398Y-90309566D01*
X67995824Y-90907993D01*
X68019622Y-90936991D01*
X68135347Y-91031964D01*
X68267376Y-91102536D01*
X68410637Y-91145993D01*
X68522290Y-91156990D01*
X68522299Y-91156990D01*
X68559622Y-91160666D01*
X68596945Y-91156990D01*
X69400289Y-91156990D01*
X69444226Y-91200927D01*
X69613744Y-91314195D01*
X69802102Y-91392216D01*
X70002061Y-91431990D01*
X70205939Y-91431990D01*
X70405898Y-91392216D01*
X70594256Y-91314195D01*
X70763774Y-91200927D01*
X70907937Y-91056764D01*
X71021205Y-90887246D01*
X71099226Y-90698888D01*
X71139000Y-90498929D01*
X71139000Y-90295051D01*
X71099226Y-90095092D01*
X71021205Y-89906734D01*
X70907937Y-89737216D01*
X70763774Y-89593053D01*
X70594256Y-89479785D01*
X70405898Y-89401764D01*
X70205939Y-89361990D01*
X70002061Y-89361990D01*
X69802102Y-89401764D01*
X69613744Y-89479785D01*
X69444226Y-89593053D01*
X69400289Y-89636990D01*
X68874425Y-89636990D01*
X68472199Y-89234765D01*
X68472199Y-89172627D01*
X68468096Y-89152000D01*
X73489570Y-89152000D01*
X73522932Y-89319719D01*
X73593414Y-89489879D01*
X73695738Y-89643018D01*
X73825972Y-89773252D01*
X73979111Y-89875576D01*
X74149271Y-89946058D01*
X74170001Y-89950181D01*
X74170000Y-90132464D01*
X74101414Y-90235111D01*
X74030932Y-90405271D01*
X73995000Y-90585911D01*
X73995000Y-90770089D01*
X74030932Y-90950729D01*
X74101414Y-91120889D01*
X74203738Y-91274028D01*
X74333972Y-91404262D01*
X74487111Y-91506586D01*
X74657271Y-91577068D01*
X74837911Y-91613000D01*
X75022089Y-91613000D01*
X75046928Y-91608059D01*
X75046928Y-93329000D01*
X75059188Y-93453482D01*
X75095498Y-93573180D01*
X75119118Y-93617369D01*
X75113443Y-93620403D01*
X75094197Y-93636197D01*
X75078403Y-93655443D01*
X75066667Y-93677399D01*
X75059440Y-93701224D01*
X75057000Y-93726000D01*
X75057000Y-100305000D01*
X57182279Y-100305000D01*
X56785455Y-100266091D01*
X56434794Y-100160220D01*
X56111377Y-99988257D01*
X55827518Y-99756748D01*
X55594035Y-99474514D01*
X55419816Y-99152304D01*
X55311498Y-98802385D01*
X55270000Y-98407557D01*
X55270000Y-96807872D01*
X56566000Y-96807872D01*
X56566000Y-97248128D01*
X56651890Y-97679925D01*
X56820369Y-98086669D01*
X57064962Y-98452729D01*
X57376271Y-98764038D01*
X57742331Y-99008631D01*
X58149075Y-99177110D01*
X58580872Y-99263000D01*
X59021128Y-99263000D01*
X59452925Y-99177110D01*
X59859669Y-99008631D01*
X60225729Y-98764038D01*
X60537038Y-98452729D01*
X60781631Y-98086669D01*
X60950110Y-97679925D01*
X61036000Y-97248128D01*
X61036000Y-96807872D01*
X60950110Y-96376075D01*
X60781631Y-95969331D01*
X60537038Y-95603271D01*
X60225729Y-95291962D01*
X59859669Y-95047369D01*
X59452925Y-94878890D01*
X59021128Y-94793000D01*
X58580872Y-94793000D01*
X58149075Y-94878890D01*
X57742331Y-95047369D01*
X57376271Y-95291962D01*
X57064962Y-95603271D01*
X56820369Y-95969331D01*
X56651890Y-96376075D01*
X56566000Y-96807872D01*
X55270000Y-96807872D01*
X55270000Y-69248872D01*
X56566000Y-69248872D01*
X56566000Y-69689128D01*
X56651890Y-70120925D01*
X56820369Y-70527669D01*
X57064962Y-70893729D01*
X57376271Y-71205038D01*
X57742331Y-71449631D01*
X58149075Y-71618110D01*
X58580872Y-71704000D01*
X59021128Y-71704000D01*
X59452925Y-71618110D01*
X59859669Y-71449631D01*
X60225729Y-71205038D01*
X60537038Y-70893729D01*
X60781631Y-70527669D01*
X60950110Y-70120925D01*
X61036000Y-69689128D01*
X61036000Y-69248872D01*
X60950110Y-68817075D01*
X60781631Y-68410331D01*
X60537038Y-68044271D01*
X60225729Y-67732962D01*
X59859669Y-67488369D01*
X59452925Y-67319890D01*
X59021128Y-67234000D01*
X58580872Y-67234000D01*
X58149075Y-67319890D01*
X57742331Y-67488369D01*
X57376271Y-67732962D01*
X57064962Y-68044271D01*
X56820369Y-68410331D01*
X56651890Y-68817075D01*
X56566000Y-69248872D01*
X55270000Y-69248872D01*
X55270000Y-67977279D01*
X55308909Y-67580455D01*
X55414780Y-67229792D01*
X55586744Y-66906375D01*
X55818254Y-66622516D01*
X56100486Y-66389035D01*
X56422695Y-66214817D01*
X56772614Y-66106498D01*
X57167443Y-66065000D01*
X119982721Y-66065000D01*
X120379545Y-66103909D01*
G04 #@! TA.AperFunction,Conductor*
D24*
G36*
X120379545Y-66103909D02*
G01*
X120730208Y-66209780D01*
X121053625Y-66381744D01*
X121337484Y-66613254D01*
X121570965Y-66895486D01*
X121745183Y-67217695D01*
X121853502Y-67567614D01*
X121895001Y-67962452D01*
X121895000Y-98392721D01*
X121856091Y-98789545D01*
X121750220Y-99140206D01*
X121578257Y-99463623D01*
X121346748Y-99747482D01*
X121064514Y-99980965D01*
X120742304Y-100155184D01*
X120392385Y-100263502D01*
X119997557Y-100305000D01*
X101219000Y-100305000D01*
X101219000Y-95162000D01*
X103794928Y-95162000D01*
X103794928Y-96862000D01*
X103807188Y-96986482D01*
X103843498Y-97106180D01*
X103902463Y-97216494D01*
X103981815Y-97313185D01*
X104078506Y-97392537D01*
X104188820Y-97451502D01*
X104261380Y-97473513D01*
X104129525Y-97605368D01*
X103967010Y-97848589D01*
X103855068Y-98118842D01*
X103798000Y-98405740D01*
X103798000Y-98698260D01*
X103855068Y-98985158D01*
X103967010Y-99255411D01*
X104129525Y-99498632D01*
X104336368Y-99705475D01*
X104579589Y-99867990D01*
X104849842Y-99979932D01*
X105136740Y-100037000D01*
X105429260Y-100037000D01*
X105716158Y-99979932D01*
X105986411Y-99867990D01*
X106229632Y-99705475D01*
X106436475Y-99498632D01*
X106598990Y-99255411D01*
X106710932Y-98985158D01*
X106726102Y-98908890D01*
X108794524Y-98908890D01*
X108839175Y-99056099D01*
X108964359Y-99318920D01*
X109138412Y-99552269D01*
X109354645Y-99747178D01*
X109604748Y-99896157D01*
X109879109Y-99993481D01*
X110109000Y-99872814D01*
X110109000Y-98679000D01*
X110363000Y-98679000D01*
X110363000Y-99872814D01*
X110592891Y-99993481D01*
X110867252Y-99896157D01*
X111117355Y-99747178D01*
X111333588Y-99552269D01*
X111507641Y-99318920D01*
X111632825Y-99056099D01*
X111677476Y-98908890D01*
X111556155Y-98679000D01*
X110363000Y-98679000D01*
X110109000Y-98679000D01*
X108915845Y-98679000D01*
X108794524Y-98908890D01*
X106726102Y-98908890D01*
X106768000Y-98698260D01*
X106768000Y-98405740D01*
X106710932Y-98118842D01*
X106598990Y-97848589D01*
X106436475Y-97605368D01*
X106304620Y-97473513D01*
X106377180Y-97451502D01*
X106487494Y-97392537D01*
X106584185Y-97313185D01*
X106663537Y-97216494D01*
X106722502Y-97106180D01*
X106758812Y-96986482D01*
X106771072Y-96862000D01*
X106771072Y-95162000D01*
X108747928Y-95162000D01*
X108747928Y-96862000D01*
X108760188Y-96986482D01*
X108796498Y-97106180D01*
X108855463Y-97216494D01*
X108934815Y-97313185D01*
X109031506Y-97392537D01*
X109141820Y-97451502D01*
X109222466Y-97475966D01*
X109138412Y-97551731D01*
X108964359Y-97785080D01*
X108839175Y-98047901D01*
X108794524Y-98195110D01*
X108915845Y-98425000D01*
X110109000Y-98425000D01*
X110109000Y-98405000D01*
X110363000Y-98405000D01*
X110363000Y-98425000D01*
X111556155Y-98425000D01*
X111677476Y-98195110D01*
X111632825Y-98047901D01*
X111507641Y-97785080D01*
X111333588Y-97551731D01*
X111249534Y-97475966D01*
X111330180Y-97451502D01*
X111440494Y-97392537D01*
X111537185Y-97313185D01*
X111616537Y-97216494D01*
X111675502Y-97106180D01*
X111711812Y-96986482D01*
X111724072Y-96862000D01*
X111724072Y-96807872D01*
X116256000Y-96807872D01*
X116256000Y-97248128D01*
X116341890Y-97679925D01*
X116510369Y-98086669D01*
X116754962Y-98452729D01*
X117066271Y-98764038D01*
X117432331Y-99008631D01*
X117839075Y-99177110D01*
X118270872Y-99263000D01*
X118711128Y-99263000D01*
X119142925Y-99177110D01*
X119549669Y-99008631D01*
X119915729Y-98764038D01*
X120227038Y-98452729D01*
X120471631Y-98086669D01*
X120640110Y-97679925D01*
X120726000Y-97248128D01*
X120726000Y-96807872D01*
X120640110Y-96376075D01*
X120471631Y-95969331D01*
X120227038Y-95603271D01*
X119915729Y-95291962D01*
X119549669Y-95047369D01*
X119142925Y-94878890D01*
X118711128Y-94793000D01*
X118270872Y-94793000D01*
X117839075Y-94878890D01*
X117432331Y-95047369D01*
X117066271Y-95291962D01*
X116754962Y-95603271D01*
X116510369Y-95969331D01*
X116341890Y-96376075D01*
X116256000Y-96807872D01*
X111724072Y-96807872D01*
X111724072Y-95162000D01*
X111711812Y-95037518D01*
X111675502Y-94917820D01*
X111616537Y-94807506D01*
X111537185Y-94710815D01*
X111440494Y-94631463D01*
X111330180Y-94572498D01*
X111210482Y-94536188D01*
X111086000Y-94523928D01*
X109386000Y-94523928D01*
X109261518Y-94536188D01*
X109141820Y-94572498D01*
X109031506Y-94631463D01*
X108934815Y-94710815D01*
X108855463Y-94807506D01*
X108796498Y-94917820D01*
X108760188Y-95037518D01*
X108747928Y-95162000D01*
X106771072Y-95162000D01*
X106758812Y-95037518D01*
X106722502Y-94917820D01*
X106663537Y-94807506D01*
X106584185Y-94710815D01*
X106487494Y-94631463D01*
X106377180Y-94572498D01*
X106257482Y-94536188D01*
X106133000Y-94523928D01*
X104433000Y-94523928D01*
X104308518Y-94536188D01*
X104188820Y-94572498D01*
X104078506Y-94631463D01*
X103981815Y-94710815D01*
X103902463Y-94807506D01*
X103843498Y-94917820D01*
X103807188Y-95037518D01*
X103794928Y-95162000D01*
X101219000Y-95162000D01*
X101219000Y-93726000D01*
X101216560Y-93701224D01*
X101209333Y-93677399D01*
X101197597Y-93655443D01*
X101181803Y-93636197D01*
X101162557Y-93620403D01*
X101140601Y-93608667D01*
X101116776Y-93601440D01*
X101092000Y-93599000D01*
X100413142Y-93599000D01*
X100546101Y-93527932D01*
X100764608Y-93348608D01*
X100943932Y-93130101D01*
X101077182Y-92880808D01*
X101159236Y-92610309D01*
X101186943Y-92329000D01*
X101159236Y-92047691D01*
X101099886Y-91852038D01*
X101183970Y-91783032D01*
X101207773Y-91754029D01*
X101751649Y-91210153D01*
X101872729Y-91186068D01*
X102042889Y-91115586D01*
X102196028Y-91013262D01*
X102326262Y-90883028D01*
X102428586Y-90729889D01*
X102499068Y-90559729D01*
X102526464Y-90422000D01*
X113754678Y-90422000D01*
X113792000Y-90425676D01*
X113829322Y-90422000D01*
X113829333Y-90422000D01*
X113940986Y-90411003D01*
X114084247Y-90367546D01*
X114216276Y-90296974D01*
X114332001Y-90202001D01*
X114355804Y-90172997D01*
X116335003Y-88193799D01*
X116364001Y-88170001D01*
X116408307Y-88116014D01*
X116458974Y-88054277D01*
X116529546Y-87922247D01*
X116541656Y-87882324D01*
X116573003Y-87778986D01*
X116584000Y-87667333D01*
X116584000Y-87667323D01*
X116587676Y-87630000D01*
X116584000Y-87592677D01*
X116584000Y-87151341D01*
X116714535Y-87064120D01*
X116909120Y-86869535D01*
X117062005Y-86640727D01*
X117094000Y-86563485D01*
X117125995Y-86640727D01*
X117278880Y-86869535D01*
X117473465Y-87064120D01*
X117702273Y-87217005D01*
X117956510Y-87322314D01*
X118226408Y-87376000D01*
X118501592Y-87376000D01*
X118771490Y-87322314D01*
X119025727Y-87217005D01*
X119254535Y-87064120D01*
X119449120Y-86869535D01*
X119602005Y-86640727D01*
X119707314Y-86386490D01*
X119761000Y-86116592D01*
X119761000Y-85841408D01*
X119707314Y-85571510D01*
X119602005Y-85317273D01*
X119449120Y-85088465D01*
X119254535Y-84893880D01*
X119025727Y-84740995D01*
X118771490Y-84635686D01*
X118501592Y-84582000D01*
X118226408Y-84582000D01*
X117956510Y-84635686D01*
X117702273Y-84740995D01*
X117473465Y-84893880D01*
X117278880Y-85088465D01*
X117125995Y-85317273D01*
X117094000Y-85394515D01*
X117062005Y-85317273D01*
X116909120Y-85088465D01*
X116714535Y-84893880D01*
X116485727Y-84740995D01*
X116231490Y-84635686D01*
X115961592Y-84582000D01*
X115686408Y-84582000D01*
X115416510Y-84635686D01*
X115162273Y-84740995D01*
X114933465Y-84893880D01*
X114738880Y-85088465D01*
X114585995Y-85317273D01*
X114554000Y-85394515D01*
X114522005Y-85317273D01*
X114369120Y-85088465D01*
X114174535Y-84893880D01*
X113945727Y-84740995D01*
X113691490Y-84635686D01*
X113421592Y-84582000D01*
X113146408Y-84582000D01*
X112876510Y-84635686D01*
X112622273Y-84740995D01*
X112393465Y-84893880D01*
X112198880Y-85088465D01*
X112045995Y-85317273D01*
X112014000Y-85394515D01*
X111982005Y-85317273D01*
X111829120Y-85088465D01*
X111634535Y-84893880D01*
X111405727Y-84740995D01*
X111151490Y-84635686D01*
X110881592Y-84582000D01*
X110675801Y-84582000D01*
X118072430Y-77185372D01*
X118226408Y-77216000D01*
X118501592Y-77216000D01*
X118771490Y-77162314D01*
X119025727Y-77057005D01*
X119254535Y-76904120D01*
X119449120Y-76709535D01*
X119602005Y-76480727D01*
X119707314Y-76226490D01*
X119761000Y-75956592D01*
X119761000Y-75681408D01*
X119707314Y-75411510D01*
X119602005Y-75157273D01*
X119449120Y-74928465D01*
X119254535Y-74733880D01*
X119025727Y-74580995D01*
X118771490Y-74475686D01*
X118501592Y-74422000D01*
X118226408Y-74422000D01*
X117956510Y-74475686D01*
X117702273Y-74580995D01*
X117473465Y-74733880D01*
X117278880Y-74928465D01*
X117125995Y-75157273D01*
X117094000Y-75234515D01*
X117062005Y-75157273D01*
X116909120Y-74928465D01*
X116714535Y-74733880D01*
X116485727Y-74580995D01*
X116231490Y-74475686D01*
X115961592Y-74422000D01*
X115686408Y-74422000D01*
X115416510Y-74475686D01*
X115162273Y-74580995D01*
X114933465Y-74733880D01*
X114738880Y-74928465D01*
X114585995Y-75157273D01*
X114554000Y-75234515D01*
X114522005Y-75157273D01*
X114369120Y-74928465D01*
X114174535Y-74733880D01*
X113945727Y-74580995D01*
X113691490Y-74475686D01*
X113421592Y-74422000D01*
X113146408Y-74422000D01*
X112876510Y-74475686D01*
X112622273Y-74580995D01*
X112393465Y-74733880D01*
X112198880Y-74928465D01*
X112045995Y-75157273D01*
X112014000Y-75234515D01*
X111982005Y-75157273D01*
X111829120Y-74928465D01*
X111634535Y-74733880D01*
X111405727Y-74580995D01*
X111151490Y-74475686D01*
X110881592Y-74422000D01*
X110606408Y-74422000D01*
X110336510Y-74475686D01*
X110082273Y-74580995D01*
X109853465Y-74733880D01*
X109658880Y-74928465D01*
X109505995Y-75157273D01*
X109474000Y-75234515D01*
X109442005Y-75157273D01*
X109289120Y-74928465D01*
X109094535Y-74733880D01*
X108865727Y-74580995D01*
X108611490Y-74475686D01*
X108341592Y-74422000D01*
X108066408Y-74422000D01*
X107912430Y-74452628D01*
X106372794Y-72912993D01*
X106348991Y-72883989D01*
X106233266Y-72789016D01*
X106101237Y-72718444D01*
X105957976Y-72674987D01*
X105846323Y-72663990D01*
X105846312Y-72663990D01*
X105808990Y-72660314D01*
X105771668Y-72663990D01*
X88900505Y-72663990D01*
X88900068Y-72661795D01*
X88829586Y-72491635D01*
X88727262Y-72338496D01*
X88597028Y-72208262D01*
X88485887Y-72134000D01*
X102070465Y-72134000D01*
X102173111Y-72202586D01*
X102343271Y-72273068D01*
X102523911Y-72309000D01*
X102708089Y-72309000D01*
X102888729Y-72273068D01*
X103058889Y-72202586D01*
X103212028Y-72100262D01*
X103342262Y-71970028D01*
X103444586Y-71816889D01*
X103515068Y-71646729D01*
X103551000Y-71466089D01*
X103551000Y-71281911D01*
X103515068Y-71101271D01*
X103444586Y-70931111D01*
X103342262Y-70777972D01*
X103212028Y-70647738D01*
X103058889Y-70545414D01*
X102888729Y-70474932D01*
X102708089Y-70439000D01*
X102523911Y-70439000D01*
X102343271Y-70474932D01*
X102173111Y-70545414D01*
X102070465Y-70614000D01*
X85381535Y-70614000D01*
X85278889Y-70545414D01*
X85108729Y-70474932D01*
X84928089Y-70439000D01*
X84743911Y-70439000D01*
X84563271Y-70474932D01*
X84393111Y-70545414D01*
X84239972Y-70647738D01*
X84109738Y-70777972D01*
X84007414Y-70931111D01*
X83936932Y-71101271D01*
X83901000Y-71281911D01*
X83901000Y-71396199D01*
X83621803Y-71117002D01*
X83598001Y-71087999D01*
X83482276Y-70993026D01*
X83350247Y-70922454D01*
X83206986Y-70878997D01*
X83095333Y-70868000D01*
X83095322Y-70868000D01*
X83058000Y-70864324D01*
X83020678Y-70868000D01*
X77643000Y-70868000D01*
X77643000Y-70773911D01*
X77607068Y-70593271D01*
X77536586Y-70423111D01*
X77434262Y-70269972D01*
X77304028Y-70139738D01*
X77150889Y-70037414D01*
X76980729Y-69966932D01*
X76909766Y-69952816D01*
X108447000Y-69952816D01*
X108447000Y-70255184D01*
X108505989Y-70551743D01*
X108621701Y-70831095D01*
X108789688Y-71082505D01*
X109003495Y-71296312D01*
X109254905Y-71464299D01*
X109534257Y-71580011D01*
X109830816Y-71639000D01*
X110133184Y-71639000D01*
X110429743Y-71580011D01*
X110709095Y-71464299D01*
X110960505Y-71296312D01*
X111026944Y-71229873D01*
X111032498Y-71248180D01*
X111091463Y-71358494D01*
X111170815Y-71455185D01*
X111267506Y-71534537D01*
X111377820Y-71593502D01*
X111497518Y-71629812D01*
X111622000Y-71642072D01*
X112236250Y-71639000D01*
X112395000Y-71480250D01*
X112395000Y-70231000D01*
X112649000Y-70231000D01*
X112649000Y-71480250D01*
X112807750Y-71639000D01*
X113422000Y-71642072D01*
X113546482Y-71629812D01*
X113666180Y-71593502D01*
X113776494Y-71534537D01*
X113873185Y-71455185D01*
X113952537Y-71358494D01*
X114011502Y-71248180D01*
X114047812Y-71128482D01*
X114060072Y-71004000D01*
X114057000Y-70389750D01*
X113898250Y-70231000D01*
X112649000Y-70231000D01*
X112395000Y-70231000D01*
X112375000Y-70231000D01*
X112375000Y-69977000D01*
X112395000Y-69977000D01*
X112395000Y-68727750D01*
X112649000Y-68727750D01*
X112649000Y-69977000D01*
X113898250Y-69977000D01*
X114057000Y-69818250D01*
X114059847Y-69248872D01*
X116256000Y-69248872D01*
X116256000Y-69689128D01*
X116341890Y-70120925D01*
X116510369Y-70527669D01*
X116754962Y-70893729D01*
X117066271Y-71205038D01*
X117432331Y-71449631D01*
X117839075Y-71618110D01*
X118270872Y-71704000D01*
X118711128Y-71704000D01*
X119142925Y-71618110D01*
X119549669Y-71449631D01*
X119915729Y-71205038D01*
X120227038Y-70893729D01*
X120471631Y-70527669D01*
X120640110Y-70120925D01*
X120726000Y-69689128D01*
X120726000Y-69248872D01*
X120640110Y-68817075D01*
X120471631Y-68410331D01*
X120227038Y-68044271D01*
X119915729Y-67732962D01*
X119549669Y-67488369D01*
X119142925Y-67319890D01*
X118711128Y-67234000D01*
X118270872Y-67234000D01*
X117839075Y-67319890D01*
X117432331Y-67488369D01*
X117066271Y-67732962D01*
X116754962Y-68044271D01*
X116510369Y-68410331D01*
X116341890Y-68817075D01*
X116256000Y-69248872D01*
X114059847Y-69248872D01*
X114060072Y-69204000D01*
X114047812Y-69079518D01*
X114011502Y-68959820D01*
X113952537Y-68849506D01*
X113873185Y-68752815D01*
X113776494Y-68673463D01*
X113666180Y-68614498D01*
X113546482Y-68578188D01*
X113422000Y-68565928D01*
X112807750Y-68569000D01*
X112649000Y-68727750D01*
X112395000Y-68727750D01*
X112236250Y-68569000D01*
X111622000Y-68565928D01*
X111497518Y-68578188D01*
X111377820Y-68614498D01*
X111267506Y-68673463D01*
X111170815Y-68752815D01*
X111091463Y-68849506D01*
X111032498Y-68959820D01*
X111026944Y-68978127D01*
X110960505Y-68911688D01*
X110709095Y-68743701D01*
X110429743Y-68627989D01*
X110133184Y-68569000D01*
X109830816Y-68569000D01*
X109534257Y-68627989D01*
X109254905Y-68743701D01*
X109003495Y-68911688D01*
X108789688Y-69125495D01*
X108621701Y-69376905D01*
X108505989Y-69656257D01*
X108447000Y-69952816D01*
X76909766Y-69952816D01*
X76859649Y-69942847D01*
X76238804Y-69322002D01*
X76215001Y-69292999D01*
X76099276Y-69198026D01*
X75967247Y-69127454D01*
X75823986Y-69083997D01*
X75712333Y-69073000D01*
X75712322Y-69073000D01*
X75675000Y-69069324D01*
X75637678Y-69073000D01*
X73003828Y-69073000D01*
X72934497Y-68969238D01*
X72745762Y-68780503D01*
X72523833Y-68632215D01*
X72277239Y-68530072D01*
X72015456Y-68478000D01*
X71748544Y-68478000D01*
X71486761Y-68530072D01*
X71240167Y-68632215D01*
X71018238Y-68780503D01*
X70829503Y-68969238D01*
X70681215Y-69191167D01*
X70612000Y-69358266D01*
X70542785Y-69191167D01*
X70394497Y-68969238D01*
X70205762Y-68780503D01*
X69983833Y-68632215D01*
X69737239Y-68530072D01*
X69475456Y-68478000D01*
X69208544Y-68478000D01*
X69086147Y-68502346D01*
X68860803Y-68277001D01*
X68837000Y-68247998D01*
X68721275Y-68153025D01*
X68589246Y-68082453D01*
X68445985Y-68038996D01*
X68334332Y-68027999D01*
X68334321Y-68027999D01*
X68296999Y-68024323D01*
X68259677Y-68027999D01*
X65869323Y-68027999D01*
X65832000Y-68024323D01*
X65794677Y-68027999D01*
X65794668Y-68027999D01*
X65683015Y-68038996D01*
X65539754Y-68082453D01*
X65407725Y-68153025D01*
X65407723Y-68153026D01*
X65407724Y-68153026D01*
X65320997Y-68224200D01*
X65320993Y-68224204D01*
X65292000Y-68247998D01*
X65268206Y-68276991D01*
X64005002Y-69540197D01*
X63975999Y-69563999D01*
X63920936Y-69631094D01*
X63919972Y-69631738D01*
X63789738Y-69761972D01*
X63687414Y-69915111D01*
X63616932Y-70085271D01*
X63581000Y-70265911D01*
X63581000Y-70450089D01*
X63616932Y-70630729D01*
X63687414Y-70800889D01*
X63789738Y-70954028D01*
X63919972Y-71084262D01*
X64073111Y-71186586D01*
X64243271Y-71257068D01*
X64423911Y-71293000D01*
X64608089Y-71293000D01*
X64788729Y-71257068D01*
X64958889Y-71186586D01*
X65112028Y-71084262D01*
X65242262Y-70954028D01*
X65344586Y-70800889D01*
X65357977Y-70768560D01*
X66046045Y-70768560D01*
X66107932Y-71004368D01*
X66349790Y-71117266D01*
X66609027Y-71180811D01*
X66875680Y-71192561D01*
X67139501Y-71152063D01*
X67390353Y-71060875D01*
X67496068Y-71004368D01*
X67557955Y-70768560D01*
X66802000Y-70012605D01*
X66046045Y-70768560D01*
X65357977Y-70768560D01*
X65415068Y-70630729D01*
X65451000Y-70450089D01*
X65451000Y-70265911D01*
X65447332Y-70247470D01*
X65493965Y-70200837D01*
X65574125Y-70421353D01*
X65630632Y-70527068D01*
X65866440Y-70588955D01*
X66622395Y-69833000D01*
X66608253Y-69818858D01*
X66787858Y-69639253D01*
X66802000Y-69653395D01*
X66816143Y-69639253D01*
X66995748Y-69818858D01*
X66981605Y-69833000D01*
X67737560Y-70588955D01*
X67973368Y-70527068D01*
X68073764Y-70311993D01*
X68141215Y-70474833D01*
X68289503Y-70696762D01*
X68478238Y-70885497D01*
X68700167Y-71033785D01*
X68946761Y-71135928D01*
X69208544Y-71188000D01*
X69342198Y-71188000D01*
X66077571Y-74452628D01*
X65923592Y-74422000D01*
X65648408Y-74422000D01*
X65378510Y-74475686D01*
X65124273Y-74580995D01*
X64895465Y-74733880D01*
X64700880Y-74928465D01*
X64547995Y-75157273D01*
X64516000Y-75234515D01*
X64484005Y-75157273D01*
X64331120Y-74928465D01*
X64136535Y-74733880D01*
X63907727Y-74580995D01*
X63653490Y-74475686D01*
X63383592Y-74422000D01*
X63108408Y-74422000D01*
X62838510Y-74475686D01*
X62584273Y-74580995D01*
X62355465Y-74733880D01*
X62160880Y-74928465D01*
X62007995Y-75157273D01*
X61976000Y-75234515D01*
X61944005Y-75157273D01*
X61791120Y-74928465D01*
X61596535Y-74733880D01*
X61367727Y-74580995D01*
X61113490Y-74475686D01*
X60843592Y-74422000D01*
X60568408Y-74422000D01*
X60298510Y-74475686D01*
X60044273Y-74580995D01*
X59815465Y-74733880D01*
X59620880Y-74928465D01*
X59467995Y-75157273D01*
X59436000Y-75234515D01*
X59404005Y-75157273D01*
X59251120Y-74928465D01*
X59056535Y-74733880D01*
X58827727Y-74580995D01*
X58573490Y-74475686D01*
X58303592Y-74422000D01*
X58028408Y-74422000D01*
X57758510Y-74475686D01*
X57504273Y-74580995D01*
X57275465Y-74733880D01*
X57080880Y-74928465D01*
X56927995Y-75157273D01*
X56822686Y-75411510D01*
X56769000Y-75681408D01*
X56769000Y-75956592D01*
X56822686Y-76226490D01*
X56927995Y-76480727D01*
X57080880Y-76709535D01*
X57275465Y-76904120D01*
X57504273Y-77057005D01*
X57758510Y-77162314D01*
X58028408Y-77216000D01*
X58303592Y-77216000D01*
X58457570Y-77185372D01*
X60269201Y-78997003D01*
X60292999Y-79026001D01*
X60330456Y-79056741D01*
X56567997Y-82819202D01*
X56538999Y-82843000D01*
X56515201Y-82871998D01*
X56515200Y-82871999D01*
X56444025Y-82958725D01*
X56373453Y-83090755D01*
X56356991Y-83145025D01*
X56329997Y-83234015D01*
X56326400Y-83270539D01*
X56315323Y-83383001D01*
X56319000Y-83420333D01*
X56318999Y-86759676D01*
X56315323Y-86796999D01*
X56318999Y-86834321D01*
X56318999Y-86834331D01*
X56329996Y-86945984D01*
X56365832Y-87064120D01*
X56373453Y-87089245D01*
X56444025Y-87221275D01*
X56466779Y-87249000D01*
X56538998Y-87337000D01*
X56568002Y-87360803D01*
X57787001Y-88579803D01*
X57787001Y-89189928D01*
X57697000Y-89189928D01*
X57572518Y-89202188D01*
X57452820Y-89238498D01*
X57342506Y-89297463D01*
X57245815Y-89376815D01*
X57166463Y-89473506D01*
X57107498Y-89583820D01*
X57071188Y-89703518D01*
X57058928Y-89828000D01*
X57058928Y-91528000D01*
X57071188Y-91652482D01*
X57107498Y-91772180D01*
X57166463Y-91882494D01*
X57245815Y-91979185D01*
X57342506Y-92058537D01*
X57452820Y-92117502D01*
X57572518Y-92153812D01*
X57697000Y-92166072D01*
X59397000Y-92166072D01*
X59521482Y-92153812D01*
X59641180Y-92117502D01*
X59751494Y-92058537D01*
X59848185Y-91979185D01*
X59927537Y-91882494D01*
X59986502Y-91772180D01*
X60008513Y-91699620D01*
X60140368Y-91831475D01*
X60383589Y-91993990D01*
X60653842Y-92105932D01*
X60940740Y-92163000D01*
X61233260Y-92163000D01*
X61520158Y-92105932D01*
X61790411Y-91993990D01*
X62033632Y-91831475D01*
X62240475Y-91624632D01*
X62402990Y-91381411D01*
X62514932Y-91111158D01*
X62572000Y-90824260D01*
X62572000Y-90531740D01*
X62514932Y-90244842D01*
X62402990Y-89974589D01*
X62240475Y-89731368D01*
X62033632Y-89524525D01*
X61790411Y-89362010D01*
X61520158Y-89250068D01*
X61233260Y-89193000D01*
X60940740Y-89193000D01*
X60653842Y-89250068D01*
X60383589Y-89362010D01*
X60140368Y-89524525D01*
X60008513Y-89656380D01*
X59986502Y-89583820D01*
X59927537Y-89473506D01*
X59848185Y-89376815D01*
X59751494Y-89297463D01*
X59641180Y-89238498D01*
X59521482Y-89202188D01*
X59397000Y-89189928D01*
X59307000Y-89189928D01*
X59307000Y-88302323D01*
X59310676Y-88265000D01*
X59307000Y-88227677D01*
X59307000Y-88227667D01*
X59296003Y-88116014D01*
X59252546Y-87972753D01*
X59212053Y-87896997D01*
X59181974Y-87840723D01*
X59110799Y-87753997D01*
X59087001Y-87724999D01*
X59058003Y-87701201D01*
X58648179Y-87291377D01*
X58827727Y-87217005D01*
X59056535Y-87064120D01*
X59251120Y-86869535D01*
X59404005Y-86640727D01*
X59436000Y-86563485D01*
X59467995Y-86640727D01*
X59620880Y-86869535D01*
X59815465Y-87064120D01*
X60044273Y-87217005D01*
X60298510Y-87322314D01*
X60568408Y-87376000D01*
X60843592Y-87376000D01*
X60997570Y-87345372D01*
X62555200Y-88903002D01*
X62578999Y-88932001D01*
X62694724Y-89026974D01*
X62826753Y-89097546D01*
X62970014Y-89141003D01*
X63081667Y-89152000D01*
X63081676Y-89152000D01*
X63118999Y-89155676D01*
X63156322Y-89152000D01*
X64713198Y-89152000D01*
X64005003Y-89860196D01*
X63975999Y-89883999D01*
X63934686Y-89934340D01*
X63881026Y-89999724D01*
X63827648Y-90099586D01*
X63810454Y-90131754D01*
X63766997Y-90275015D01*
X63756000Y-90386668D01*
X63756000Y-90386678D01*
X63752324Y-90424000D01*
X63756000Y-90461323D01*
X63756001Y-93380928D01*
X63666000Y-93380928D01*
X63541518Y-93393188D01*
X63421820Y-93429498D01*
X63311506Y-93488463D01*
X63214815Y-93567815D01*
X63135463Y-93664506D01*
X63076498Y-93774820D01*
X63040188Y-93894518D01*
X63027928Y-94019000D01*
X63027928Y-95719000D01*
X63040188Y-95843482D01*
X63076498Y-95963180D01*
X63135463Y-96073494D01*
X63214815Y-96170185D01*
X63311506Y-96249537D01*
X63421820Y-96308502D01*
X63494380Y-96330513D01*
X63362525Y-96462368D01*
X63200010Y-96705589D01*
X63088068Y-96975842D01*
X63031000Y-97262740D01*
X63031000Y-97555260D01*
X63088068Y-97842158D01*
X63200010Y-98112411D01*
X63362525Y-98355632D01*
X63569368Y-98562475D01*
X63812589Y-98724990D01*
X64082842Y-98836932D01*
X64369740Y-98894000D01*
X64662260Y-98894000D01*
X64949158Y-98836932D01*
X65219411Y-98724990D01*
X65462632Y-98562475D01*
X65669475Y-98355632D01*
X65831990Y-98112411D01*
X65943932Y-97842158D01*
X66001000Y-97555260D01*
X66001000Y-97262740D01*
X65943932Y-96975842D01*
X65831990Y-96705589D01*
X65669475Y-96462368D01*
X65537620Y-96330513D01*
X65610180Y-96308502D01*
X65720494Y-96249537D01*
X65817185Y-96170185D01*
X65896537Y-96073494D01*
X65955502Y-95963180D01*
X65991812Y-95843482D01*
X66004072Y-95719000D01*
X66004072Y-94019000D01*
X65991812Y-93894518D01*
X65955502Y-93774820D01*
X65896537Y-93664506D01*
X65817185Y-93567815D01*
X65720494Y-93488463D01*
X65610180Y-93429498D01*
X65490482Y-93393188D01*
X65366000Y-93380928D01*
X65276000Y-93380928D01*
X65276000Y-92477744D01*
X65343111Y-92522586D01*
X65513271Y-92593068D01*
X65634351Y-92617153D01*
X66492201Y-93475003D01*
X66515999Y-93504001D01*
X66631724Y-93598974D01*
X66763753Y-93669546D01*
X66907014Y-93713003D01*
X67018667Y-93724000D01*
X67018676Y-93724000D01*
X67055999Y-93727676D01*
X67093322Y-93724000D01*
X70828465Y-93724000D01*
X70931111Y-93792586D01*
X71101271Y-93863068D01*
X71281911Y-93899000D01*
X71466089Y-93899000D01*
X71646729Y-93863068D01*
X71816889Y-93792586D01*
X71970028Y-93690262D01*
X72100262Y-93560028D01*
X72202586Y-93406889D01*
X72273068Y-93236729D01*
X72309000Y-93056089D01*
X72309000Y-92871911D01*
X72273068Y-92691271D01*
X72202586Y-92521111D01*
X72100262Y-92367972D01*
X71970028Y-92237738D01*
X71816889Y-92135414D01*
X71646729Y-92064932D01*
X71466089Y-92029000D01*
X71281911Y-92029000D01*
X71101271Y-92064932D01*
X70931111Y-92135414D01*
X70828465Y-92204000D01*
X67370802Y-92204000D01*
X66709153Y-91542351D01*
X66685068Y-91421271D01*
X66614586Y-91251111D01*
X66512262Y-91097972D01*
X66382028Y-90967738D01*
X66228889Y-90865414D01*
X66058729Y-90794932D01*
X65878089Y-90759000D01*
X65693911Y-90759000D01*
X65513271Y-90794932D01*
X65343111Y-90865414D01*
X65276000Y-90910256D01*
X65276000Y-90738801D01*
X65980236Y-90034566D01*
X66733488Y-90034566D01*
X66777425Y-90078503D01*
X66946943Y-90191771D01*
X67135301Y-90269792D01*
X67335260Y-90309566D01*
X67397398Y-90309566D01*
X67995824Y-90907993D01*
X68019622Y-90936991D01*
X68135347Y-91031964D01*
X68267376Y-91102536D01*
X68410637Y-91145993D01*
X68522290Y-91156990D01*
X68522299Y-91156990D01*
X68559622Y-91160666D01*
X68596945Y-91156990D01*
X69400289Y-91156990D01*
X69444226Y-91200927D01*
X69613744Y-91314195D01*
X69802102Y-91392216D01*
X70002061Y-91431990D01*
X70205939Y-91431990D01*
X70405898Y-91392216D01*
X70594256Y-91314195D01*
X70763774Y-91200927D01*
X70907937Y-91056764D01*
X71021205Y-90887246D01*
X71099226Y-90698888D01*
X71139000Y-90498929D01*
X71139000Y-90295051D01*
X71099226Y-90095092D01*
X71021205Y-89906734D01*
X70907937Y-89737216D01*
X70763774Y-89593053D01*
X70594256Y-89479785D01*
X70405898Y-89401764D01*
X70205939Y-89361990D01*
X70002061Y-89361990D01*
X69802102Y-89401764D01*
X69613744Y-89479785D01*
X69444226Y-89593053D01*
X69400289Y-89636990D01*
X68874425Y-89636990D01*
X68472199Y-89234765D01*
X68472199Y-89172627D01*
X68468096Y-89152000D01*
X73489570Y-89152000D01*
X73522932Y-89319719D01*
X73593414Y-89489879D01*
X73695738Y-89643018D01*
X73825972Y-89773252D01*
X73979111Y-89875576D01*
X74149271Y-89946058D01*
X74170001Y-89950181D01*
X74170000Y-90132464D01*
X74101414Y-90235111D01*
X74030932Y-90405271D01*
X73995000Y-90585911D01*
X73995000Y-90770089D01*
X74030932Y-90950729D01*
X74101414Y-91120889D01*
X74203738Y-91274028D01*
X74333972Y-91404262D01*
X74487111Y-91506586D01*
X74657271Y-91577068D01*
X74837911Y-91613000D01*
X75022089Y-91613000D01*
X75046928Y-91608059D01*
X75046928Y-93329000D01*
X75059188Y-93453482D01*
X75095498Y-93573180D01*
X75119118Y-93617369D01*
X75113443Y-93620403D01*
X75094197Y-93636197D01*
X75078403Y-93655443D01*
X75066667Y-93677399D01*
X75059440Y-93701224D01*
X75057000Y-93726000D01*
X75057000Y-100305000D01*
X57182279Y-100305000D01*
X56785455Y-100266091D01*
X56434794Y-100160220D01*
X56111377Y-99988257D01*
X55827518Y-99756748D01*
X55594035Y-99474514D01*
X55419816Y-99152304D01*
X55311498Y-98802385D01*
X55270000Y-98407557D01*
X55270000Y-96807872D01*
X56566000Y-96807872D01*
X56566000Y-97248128D01*
X56651890Y-97679925D01*
X56820369Y-98086669D01*
X57064962Y-98452729D01*
X57376271Y-98764038D01*
X57742331Y-99008631D01*
X58149075Y-99177110D01*
X58580872Y-99263000D01*
X59021128Y-99263000D01*
X59452925Y-99177110D01*
X59859669Y-99008631D01*
X60225729Y-98764038D01*
X60537038Y-98452729D01*
X60781631Y-98086669D01*
X60950110Y-97679925D01*
X61036000Y-97248128D01*
X61036000Y-96807872D01*
X60950110Y-96376075D01*
X60781631Y-95969331D01*
X60537038Y-95603271D01*
X60225729Y-95291962D01*
X59859669Y-95047369D01*
X59452925Y-94878890D01*
X59021128Y-94793000D01*
X58580872Y-94793000D01*
X58149075Y-94878890D01*
X57742331Y-95047369D01*
X57376271Y-95291962D01*
X57064962Y-95603271D01*
X56820369Y-95969331D01*
X56651890Y-96376075D01*
X56566000Y-96807872D01*
X55270000Y-96807872D01*
X55270000Y-69248872D01*
X56566000Y-69248872D01*
X56566000Y-69689128D01*
X56651890Y-70120925D01*
X56820369Y-70527669D01*
X57064962Y-70893729D01*
X57376271Y-71205038D01*
X57742331Y-71449631D01*
X58149075Y-71618110D01*
X58580872Y-71704000D01*
X59021128Y-71704000D01*
X59452925Y-71618110D01*
X59859669Y-71449631D01*
X60225729Y-71205038D01*
X60537038Y-70893729D01*
X60781631Y-70527669D01*
X60950110Y-70120925D01*
X61036000Y-69689128D01*
X61036000Y-69248872D01*
X60950110Y-68817075D01*
X60781631Y-68410331D01*
X60537038Y-68044271D01*
X60225729Y-67732962D01*
X59859669Y-67488369D01*
X59452925Y-67319890D01*
X59021128Y-67234000D01*
X58580872Y-67234000D01*
X58149075Y-67319890D01*
X57742331Y-67488369D01*
X57376271Y-67732962D01*
X57064962Y-68044271D01*
X56820369Y-68410331D01*
X56651890Y-68817075D01*
X56566000Y-69248872D01*
X55270000Y-69248872D01*
X55270000Y-67977279D01*
X55308909Y-67580455D01*
X55414780Y-67229792D01*
X55586744Y-66906375D01*
X55818254Y-66622516D01*
X56100486Y-66389035D01*
X56422695Y-66214817D01*
X56772614Y-66106498D01*
X57167443Y-66065000D01*
X119982721Y-66065000D01*
X120379545Y-66103909D01*
G37*
G04 #@! TD.AperFunction*
D23*
X98012818Y-86697192D02*
X97930764Y-86967691D01*
X97903057Y-87249000D01*
X97930764Y-87530309D01*
X98012818Y-87800808D01*
X98058354Y-87886000D01*
X92262802Y-87886000D01*
X90970811Y-86594010D01*
X98067970Y-86594010D01*
X98012818Y-86697192D01*
G04 #@! TA.AperFunction,Conductor*
D24*
G36*
X98012818Y-86697192D02*
G01*
X97930764Y-86967691D01*
X97903057Y-87249000D01*
X97930764Y-87530309D01*
X98012818Y-87800808D01*
X98058354Y-87886000D01*
X92262802Y-87886000D01*
X90970811Y-86594010D01*
X98067970Y-86594010D01*
X98012818Y-86697192D01*
G37*
G04 #@! TD.AperFunction*
D23*
X86796491Y-74043000D02*
X82968322Y-74043000D01*
X82930999Y-74039324D01*
X82893676Y-74043000D01*
X82893667Y-74043000D01*
X82782014Y-74053997D01*
X82638753Y-74097454D01*
X82506724Y-74168026D01*
X82392107Y-74262089D01*
X82277271Y-74284932D01*
X82107111Y-74355414D01*
X81953972Y-74457738D01*
X81823738Y-74587972D01*
X81721414Y-74741111D01*
X81650932Y-74911271D01*
X81622302Y-75055203D01*
X81472111Y-75117414D01*
X81318972Y-75219738D01*
X81188738Y-75349972D01*
X81086414Y-75503111D01*
X81015932Y-75673271D01*
X80980000Y-75853911D01*
X80980000Y-76038089D01*
X81015932Y-76218729D01*
X81072474Y-76355236D01*
X81061738Y-76365972D01*
X80959414Y-76519111D01*
X80888932Y-76689271D01*
X80853000Y-76869911D01*
X80853000Y-77054089D01*
X80888932Y-77234729D01*
X80959414Y-77404889D01*
X81061738Y-77558028D01*
X81191972Y-77688262D01*
X81248451Y-77726000D01*
X78171646Y-77726000D01*
X78217182Y-77640808D01*
X78299236Y-77370309D01*
X78326943Y-77089000D01*
X78299236Y-76807691D01*
X78217182Y-76537192D01*
X78083932Y-76287899D01*
X77904608Y-76069392D01*
X77686101Y-75890068D01*
X77553142Y-75819000D01*
X77686101Y-75747932D01*
X77904608Y-75568608D01*
X78083932Y-75350101D01*
X78217182Y-75100808D01*
X78299236Y-74830309D01*
X78326943Y-74549000D01*
X78299236Y-74267691D01*
X78217182Y-73997192D01*
X78171646Y-73912000D01*
X86921366Y-73912000D01*
X86796491Y-74043000D01*
G04 #@! TA.AperFunction,Conductor*
D24*
G36*
X86796491Y-74043000D02*
G01*
X82968322Y-74043000D01*
X82930999Y-74039324D01*
X82893676Y-74043000D01*
X82893667Y-74043000D01*
X82782014Y-74053997D01*
X82638753Y-74097454D01*
X82506724Y-74168026D01*
X82392107Y-74262089D01*
X82277271Y-74284932D01*
X82107111Y-74355414D01*
X81953972Y-74457738D01*
X81823738Y-74587972D01*
X81721414Y-74741111D01*
X81650932Y-74911271D01*
X81622302Y-75055203D01*
X81472111Y-75117414D01*
X81318972Y-75219738D01*
X81188738Y-75349972D01*
X81086414Y-75503111D01*
X81015932Y-75673271D01*
X80980000Y-75853911D01*
X80980000Y-76038089D01*
X81015932Y-76218729D01*
X81072474Y-76355236D01*
X81061738Y-76365972D01*
X80959414Y-76519111D01*
X80888932Y-76689271D01*
X80853000Y-76869911D01*
X80853000Y-77054089D01*
X80888932Y-77234729D01*
X80959414Y-77404889D01*
X81061738Y-77558028D01*
X81191972Y-77688262D01*
X81248451Y-77726000D01*
X78171646Y-77726000D01*
X78217182Y-77640808D01*
X78299236Y-77370309D01*
X78326943Y-77089000D01*
X78299236Y-76807691D01*
X78217182Y-76537192D01*
X78083932Y-76287899D01*
X77904608Y-76069392D01*
X77686101Y-75890068D01*
X77553142Y-75819000D01*
X77686101Y-75747932D01*
X77904608Y-75568608D01*
X78083932Y-75350101D01*
X78217182Y-75100808D01*
X78299236Y-74830309D01*
X78326943Y-74549000D01*
X78299236Y-74267691D01*
X78217182Y-73997192D01*
X78171646Y-73912000D01*
X86921366Y-73912000D01*
X86796491Y-74043000D01*
G37*
G04 #@! TD.AperFunction*
D23*
X106965995Y-76480727D02*
X107118880Y-76709535D01*
X107313465Y-76904120D01*
X107542273Y-77057005D01*
X107796510Y-77162314D01*
X108066408Y-77216000D01*
X108272199Y-77216000D01*
X107762199Y-77726000D01*
X101033265Y-77726000D01*
X101126444Y-77495730D01*
X101136904Y-77438039D01*
X101014915Y-77216000D01*
X99672000Y-77216000D01*
X99672000Y-77236000D01*
X99418000Y-77236000D01*
X99418000Y-77216000D01*
X99398000Y-77216000D01*
X99398000Y-76962000D01*
X99418000Y-76962000D01*
X99418000Y-76942000D01*
X99672000Y-76942000D01*
X99672000Y-76962000D01*
X101014915Y-76962000D01*
X101136904Y-76739961D01*
X101126444Y-76682270D01*
X101084656Y-76579000D01*
X104491659Y-76579000D01*
X104578880Y-76709535D01*
X104773465Y-76904120D01*
X105002273Y-77057005D01*
X105256510Y-77162314D01*
X105526408Y-77216000D01*
X105801592Y-77216000D01*
X106071490Y-77162314D01*
X106325727Y-77057005D01*
X106554535Y-76904120D01*
X106749120Y-76709535D01*
X106902005Y-76480727D01*
X106934000Y-76403485D01*
X106965995Y-76480727D01*
G04 #@! TA.AperFunction,Conductor*
D24*
G36*
X106965995Y-76480727D02*
G01*
X107118880Y-76709535D01*
X107313465Y-76904120D01*
X107542273Y-77057005D01*
X107796510Y-77162314D01*
X108066408Y-77216000D01*
X108272199Y-77216000D01*
X107762199Y-77726000D01*
X101033265Y-77726000D01*
X101126444Y-77495730D01*
X101136904Y-77438039D01*
X101014915Y-77216000D01*
X99672000Y-77216000D01*
X99672000Y-77236000D01*
X99418000Y-77236000D01*
X99418000Y-77216000D01*
X99398000Y-77216000D01*
X99398000Y-76962000D01*
X99418000Y-76962000D01*
X99418000Y-76942000D01*
X99672000Y-76942000D01*
X99672000Y-76962000D01*
X101014915Y-76962000D01*
X101136904Y-76739961D01*
X101126444Y-76682270D01*
X101084656Y-76579000D01*
X104491659Y-76579000D01*
X104578880Y-76709535D01*
X104773465Y-76904120D01*
X105002273Y-77057005D01*
X105256510Y-77162314D01*
X105526408Y-77216000D01*
X105801592Y-77216000D01*
X106071490Y-77162314D01*
X106325727Y-77057005D01*
X106554535Y-76904120D01*
X106749120Y-76709535D01*
X106902005Y-76480727D01*
X106934000Y-76403485D01*
X106965995Y-76480727D01*
G37*
G04 #@! TD.AperFunction*
G04 #@! TD*
M02*
